<svg width="584" height="584" viewBox="0 0 584 584" fill="none" xmlns="http://www.w3.org/2000/svg">
<path d="M47.959 307.394C47.959 307.394 50.6921 392.273 121.543 448.851C192.394 505.429 290.599 509.482 370.093 514.866C449.587 520.251 510.639 475.236 519.831 407.212C529.023 339.187 468.369 319.226 435.35 241.776C402.33 164.326 405.297 138.899 335.602 91.2792C265.908 43.6598 156.782 72.8949 99.5963 154.491C42.411 236.088 47.959 307.394 47.959 307.394Z" fill="#261C40"/>
<path opacity="0.1" d="M47.959 307.394C47.959 307.394 50.6921 392.273 121.543 448.851C192.394 505.429 290.599 509.482 370.093 514.866C449.587 520.251 510.639 475.236 519.831 407.212C529.023 339.187 468.369 319.226 435.35 241.776C402.33 164.326 405.297 138.899 335.602 91.2792C265.908 43.6598 156.782 72.8949 99.5963 154.491C42.411 236.088 47.959 307.394 47.959 307.394Z" fill="white"/>
<path d="M80.2066 444.459H69.4844" stroke="#6C54FF" stroke-width="1.1133" stroke-miterlimit="10"/>
<path d="M514.516 444.459H97.166" stroke="#6C54FF" stroke-width="1.1133" stroke-miterlimit="10"/>
<path d="M357.49 489.287C377.093 489.287 392.985 484.915 392.985 479.522C392.985 474.13 377.093 469.758 357.49 469.758C337.886 469.758 321.994 474.13 321.994 479.522C321.994 484.915 337.886 489.287 357.49 489.287Z" fill="#6C54FF"/>
<path d="M174.032 501.703C137.088 501.703 131.633 496.365 131.096 492.055C130.974 491.158 131.063 490.244 131.355 489.386C131.646 488.529 132.134 487.751 132.778 487.114C142.729 476.673 200.078 481.088 279.432 487.196C290.505 488.049 301.951 488.925 313.69 489.801C393.873 495.758 426.156 494.987 432.826 486.928C434.181 485.281 434.461 483.225 433.713 480.445C430.536 468.824 388.068 468.765 371.985 469.676C371.617 469.695 371.256 469.569 370.98 469.324C370.705 469.079 370.537 468.736 370.513 468.368C370.502 468.186 370.527 468.004 370.587 467.832C370.647 467.659 370.74 467.501 370.862 467.365C370.984 467.229 371.131 467.119 371.296 467.04C371.46 466.962 371.639 466.917 371.821 466.908C377.976 466.546 432.055 463.825 436.388 479.756C437.381 483.424 436.925 486.355 434.963 488.738C427.476 497.825 396.828 498.794 313.491 492.604C301.741 491.728 290.295 490.852 279.222 489.999C203.582 484.159 143.827 479.569 134.787 489.065C134.43 489.404 134.158 489.824 133.996 490.289C133.833 490.754 133.784 491.252 133.853 491.74C134.191 494.496 140.861 500.663 194.589 498.514C224.641 497.346 254.834 494.041 255.138 494.006C255.489 493.991 255.833 494.111 256.1 494.341C256.367 494.57 256.537 494.892 256.575 495.242C256.614 495.592 256.518 495.944 256.308 496.226C256.097 496.508 255.788 496.699 255.441 496.762C255.138 496.762 224.852 500.079 194.705 501.282C186.95 501.563 180.082 501.703 174.032 501.703Z" fill="white" stroke="#6C54FF" stroke-width="1.1133" stroke-miterlimit="10"/>
<path d="M344.291 488.096C367.391 488.096 386.117 469.369 386.117 446.269C386.117 423.17 367.391 404.443 344.291 404.443C321.191 404.443 302.465 423.17 302.465 446.269C302.465 469.369 321.191 488.096 344.291 488.096Z" fill="white"/>
<mask id="mask0_937_4315" style="mask-type:luminance" maskUnits="userSpaceOnUse" x="302" y="404" width="85" height="85">
<path d="M344.291 488.096C367.391 488.096 386.117 469.369 386.117 446.269C386.117 423.17 367.391 404.443 344.291 404.443C321.191 404.443 302.465 423.17 302.465 446.269C302.465 469.369 321.191 488.096 344.291 488.096Z" fill="white"/>
</mask>
<g mask="url(#mask0_937_4315)">
<path d="M344.291 488.096C351.903 488.1 359.371 486.028 365.891 482.101C372.412 478.174 377.736 472.541 381.292 465.811C384.847 459.081 386.497 451.508 386.065 443.908C385.633 436.309 383.135 428.972 378.84 422.688C378.385 440.908 368.328 467.807 316.025 477.058C323.725 484.159 333.817 488.1 344.291 488.096Z" fill="#6C54FF"/>
<path opacity="0.3" d="M344.291 488.096C351.903 488.1 359.371 486.028 365.891 482.101C372.412 478.174 377.736 472.541 381.292 465.811C384.847 459.081 386.497 451.508 386.065 443.908C385.633 436.309 383.135 428.972 378.84 422.688C378.385 440.908 368.328 467.807 316.025 477.058C323.725 484.159 333.817 488.1 344.291 488.096Z" fill="white"/>
<path d="M364.871 462.668C357.412 455.412 348.355 450.007 338.427 446.888M364.871 462.668H367.09C372.013 457.788 376.252 452.264 379.693 446.246C360.106 425.549 341.055 427.663 341.055 427.663C341.055 427.663 360.164 425.549 379.751 446.269C380.826 444.342 381.725 442.532 382.461 440.862C374.308 429.439 360.269 421.648 352.735 420.48L350.983 420.06M364.871 462.668C347.666 462.423 334.585 459.76 324.809 456.197C325.439 429.777 334.865 412.176 339.794 404.724C341.364 404.542 342.944 404.448 344.524 404.443C345.961 404.443 347.363 404.525 348.764 404.654M350.983 420.06C348.283 419.569 345.521 419.529 342.807 419.943M350.983 420.06L355.971 406.044C353.614 405.37 351.203 404.905 348.764 404.654M348.764 404.654C345.529 409.875 337.201 426.554 337.201 459.643M374.32 454.153C357.664 437.918 339.28 437.066 339.28 437.066" stroke="#6C54FF" stroke-width="1.1133" stroke-linecap="round" stroke-linejoin="round"/>
<path d="M324.761 456.267C325.392 429.847 334.818 412.246 339.747 404.794C335.89 405.226 332.113 406.193 328.522 407.667C319.67 420.653 314.67 435.878 314.098 451.584C317.528 453.415 321.093 454.981 324.761 456.267Z" stroke="#6C54FF" stroke-width="1.1133" stroke-linecap="round" stroke-linejoin="round"/>
<path d="M328.524 407.632C321.301 410.61 315.054 415.548 310.489 421.888C305.923 428.228 303.221 435.718 302.688 443.513C306.127 446.675 309.963 449.377 314.099 451.549C314.671 435.843 319.672 420.619 328.524 407.632Z" stroke="#6C54FF" stroke-width="1.1133" stroke-linecap="round" stroke-linejoin="round"/>
<path d="M382.403 440.862C383.314 438.85 384.094 436.783 384.739 434.671C382.993 428.714 379.95 423.218 375.828 418.576L372.592 429.369L375.769 418.576C373.189 415.682 370.222 413.159 366.951 411.078L363.388 424.405L366.974 411.136C363.554 408.949 359.831 407.276 355.925 406.172L350.938 420.188C358.576 421.286 370.385 425.783 382.403 440.862Z" stroke="#6C54FF" stroke-width="1.1133" stroke-linecap="round" stroke-linejoin="round"/>
<path d="M346.603 478.565C351.469 475.621 356.111 472.323 360.491 468.695C362.885 466.686 367.277 462.703 367.417 462.703C367.277 462.703 375.663 453.242 378.443 448.302C378.443 448.372 379.681 446.339 379.611 446.269C379.541 446.199 380.615 444.506 380.545 444.436C381.226 443.291 381.819 442.096 382.321 440.862C383.231 438.85 384.011 436.782 384.657 434.671C385.772 438.488 386.338 442.445 386.339 446.421C386.339 447.075 386.339 447.636 386.339 448.243C368.678 473.04 355.071 483.669 346.51 488.329C345.821 488.329 345.12 488.329 344.407 488.329C340.124 488.33 335.867 487.676 331.781 486.39C336.869 484.07 341.818 481.457 346.603 478.565ZM346.603 478.565H346.907" stroke="#6C54FF" stroke-width="1.1133" stroke-linecap="round" stroke-linejoin="round"/>
<path d="M386.339 448.243C368.679 473.04 355.071 483.669 346.58 488.224C356.993 487.7 366.837 483.313 374.189 475.92C381.54 468.527 385.872 458.659 386.339 448.243Z" stroke="#6C54FF" stroke-width="1.1133" stroke-linecap="round" stroke-linejoin="round"/>
<path d="M311.727 472.538C316.909 479.053 323.915 483.875 331.851 486.39C336.939 484.07 341.888 481.457 346.673 478.565C336.698 480.41 321.094 475.832 311.727 472.538Z" stroke="#6C54FF" stroke-width="1.1133" stroke-linecap="round" stroke-linejoin="round"/>
<path d="M346.675 478.565C351.541 475.622 356.183 472.323 360.562 468.695C330.44 471.779 311.857 462.446 303.961 457.144C305.451 462.759 308.097 468.002 311.728 472.538C321.096 475.832 336.7 480.41 346.675 478.565Z" stroke="#6C54FF" stroke-width="1.1133" stroke-linecap="round" stroke-linejoin="round"/>
<path d="M364.871 462.691H367.091C365.117 464.677 362.956 466.686 360.562 468.695C330.439 471.779 311.856 462.446 303.96 457.167C303.039 453.667 302.572 450.064 302.57 446.445C302.57 445.475 302.617 444.529 302.687 443.571C305.233 445.966 310.408 451.315 324.762 456.291C334.585 459.783 347.667 462.446 364.871 462.691ZM364.871 462.691C365.035 462.843 365.198 462.995 365.35 463.159" stroke="#6C54FF" stroke-width="1.1133" stroke-linecap="round" stroke-linejoin="round"/>
</g>
<path d="M344.291 488.096C367.391 488.096 386.117 469.369 386.117 446.269C386.117 423.17 367.391 404.443 344.291 404.443C321.191 404.443 302.465 423.17 302.465 446.269C302.465 469.369 321.191 488.096 344.291 488.096Z" stroke="#6C54FF" stroke-width="1.1133" stroke-linecap="round" stroke-linejoin="round"/>
<path d="M421.332 374.788C421.332 374.788 418.47 365.502 410.131 362.162C404.291 359.826 397.668 360.456 391.653 361.496C380.464 363.447 370.699 367.897 360.117 371.693C360.117 371.693 364.649 370.022 383.232 379.086C390.076 382.415 397.902 385.008 405.728 384.833C412 384.692 421.647 382.894 421.332 374.788Z" fill="#6C54FF"/>
<path d="M422.336 347.492C422.336 347.492 422.336 337.762 415.328 332.168C410.446 328.266 403.882 326.923 397.808 326.187C386.525 324.821 375.896 326.257 364.637 326.83C364.637 326.83 369.461 326.549 384.633 340.589C390.228 345.751 396.979 350.493 404.489 352.584C410.539 354.266 420.28 355.341 422.336 347.492Z" fill="#6C54FF"/>
<path d="M441.504 383.595C441.504 383.595 433.924 377.509 433.9 368.527C433.9 362.279 436.902 356.31 440.091 351.113C446.024 341.418 453.756 333.99 461.208 325.522C461.208 325.522 457.985 329.119 459.55 349.734C460.134 357.326 459.643 365.561 456.595 372.767C454.2 378.561 448.979 386.865 441.504 383.595Z" fill="#6C54FF"/>
<path d="M468.368 398.522C468.368 398.522 467.293 388.862 473.624 382.485C478.016 378.058 484.381 375.956 490.303 374.531C501.352 371.868 512.074 372.066 523.322 371.331C523.322 371.331 518.51 371.599 505.055 387.297C500.102 393.137 493.947 398.568 486.694 401.523C480.912 403.894 471.358 406.079 468.368 398.522Z" fill="#6C54FF"/>
<path d="M466.65 364.077C466.65 364.077 457.014 362.757 452.389 355.06C449.165 349.711 448.686 343.03 448.745 336.933C448.861 325.58 451.688 315.22 453.732 304.135C453.732 304.135 452.809 308.878 464.746 325.755C469.138 331.981 472.922 339.292 474.09 347.048C474.92 353.273 474.698 363.073 466.65 364.077Z" fill="#6C54FF"/>
<path d="M494.378 346.779C494.378 346.779 501.305 353.6 510.228 352.619C516.43 351.907 522.013 348.204 526.802 344.443C535.726 337.435 542.208 328.862 549.742 320.488C549.742 320.488 546.553 324.097 525.891 324.949C518.287 325.265 510.17 326.701 503.36 330.579C497.894 333.639 490.267 339.795 494.378 346.779Z" fill="#6C54FF"/>
<path d="M486.356 340.04C486.356 340.04 496.027 341.009 502.334 334.62C506.725 330.17 508.758 323.793 510.124 317.848C512.671 306.787 512.367 296.053 512.974 284.805C512.974 284.805 512.764 289.617 497.195 303.236C491.471 308.247 486.04 314.461 483.179 321.737C480.854 327.589 478.764 337.167 486.356 340.04Z" fill="#6C54FF"/>
<path d="M451.816 434.192L435.114 393.09L415.854 345.564" stroke="#6C54FF" stroke-width="1.1133" stroke-linecap="round" stroke-linejoin="round"/>
<path d="M455.672 427.126L472.363 369.976L490.35 334.656" stroke="#6C54FF" stroke-width="1.1133" stroke-linecap="round" stroke-linejoin="round"/>
<path d="M462.084 404.654L478.786 395.018" stroke="#6C54FF" stroke-width="1.1133" stroke-linecap="round" stroke-linejoin="round"/>
<path d="M472.363 369.976L464.012 351.346" stroke="#6C54FF" stroke-width="1.1133" stroke-linecap="round" stroke-linejoin="round"/>
<path d="M482.816 351.44L503.186 342.353" stroke="#6C54FF" stroke-width="1.1133" stroke-linecap="round" stroke-linejoin="round"/>
<path d="M438.326 400.799L445.393 372.545" stroke="#6C54FF" stroke-width="1.1133" stroke-linecap="round" stroke-linejoin="round"/>
<path d="M428.96 379.32L412.643 370.618" stroke="#6C54FF" stroke-width="1.1133" stroke-linecap="round" stroke-linejoin="round"/>
<path d="M460.378 454.737H446.456C444.18 454.736 441.975 453.942 440.223 452.49C438.47 451.038 437.279 449.019 436.855 446.783L431.902 420.702H474.931L469.991 446.783C469.564 449.02 468.371 451.039 466.616 452.491C464.862 453.942 462.656 454.737 460.378 454.737Z" fill="#6C54FF" stroke="#6C54FF" stroke-width="1.1133" stroke-linecap="round" stroke-linejoin="round"/>
<path d="M269.984 399.783C243.985 399.783 228.357 376.715 222.809 356.427L222.622 355.714C222.326 354.731 222.232 353.697 222.345 352.676C222.458 351.655 222.776 350.668 223.279 349.772C223.783 348.877 224.462 348.092 225.275 347.465C226.089 346.838 227.021 346.382 228.015 346.123C229.009 345.865 230.045 345.809 231.061 345.961C232.077 346.112 233.052 346.466 233.928 347.003C234.804 347.539 235.563 348.247 236.159 349.084C236.755 349.92 237.176 350.868 237.397 351.872L237.537 352.397C241.754 367.838 253.235 385.487 271.655 384.47C275.118 384.35 278.518 383.503 281.633 381.984C284.748 380.465 287.508 378.307 289.735 375.652C299.838 364.066 304.359 338.872 303.354 326.164C303.259 325.348 303.329 324.522 303.561 323.734C303.792 322.947 304.18 322.214 304.701 321.579C305.222 320.945 305.866 320.422 306.594 320.042C307.321 319.662 308.118 319.432 308.937 319.367C309.755 319.302 310.578 319.402 311.357 319.663C312.136 319.923 312.854 320.337 313.469 320.881C314.084 321.425 314.583 322.087 314.936 322.828C315.289 323.57 315.489 324.374 315.525 325.194C316.693 339.339 315.151 369.742 301.24 385.685C297.679 389.877 293.289 393.287 288.346 395.699C283.403 398.111 278.014 399.474 272.519 399.701C271.666 399.76 270.814 399.783 269.984 399.783Z" fill="white"/>
<mask id="mask1_937_4315" style="mask-type:luminance" maskUnits="userSpaceOnUse" x="222" y="319" width="94" height="81">
<path d="M269.984 399.783C243.985 399.783 228.357 376.715 222.809 356.427L222.622 355.714C222.326 354.731 222.232 353.697 222.345 352.676C222.458 351.655 222.776 350.668 223.279 349.772C223.783 348.877 224.462 348.092 225.275 347.465C226.089 346.838 227.021 346.382 228.015 346.123C229.009 345.865 230.045 345.809 231.061 345.961C232.077 346.112 233.052 346.466 233.928 347.003C234.804 347.539 235.563 348.247 236.159 349.084C236.755 349.92 237.176 350.868 237.397 351.872L237.537 352.397C241.754 367.838 253.235 385.487 271.655 384.47C275.118 384.35 278.518 383.503 281.633 381.984C284.748 380.465 287.508 378.307 289.735 375.652C299.838 364.066 304.359 338.872 303.354 326.164C303.259 325.348 303.329 324.522 303.561 323.734C303.792 322.947 304.18 322.214 304.701 321.579C305.222 320.945 305.866 320.422 306.594 320.042C307.321 319.662 308.118 319.432 308.937 319.367C309.755 319.302 310.578 319.402 311.357 319.663C312.136 319.923 312.854 320.337 313.469 320.881C314.084 321.425 314.583 322.087 314.936 322.828C315.289 323.57 315.489 324.374 315.525 325.194C316.693 339.339 315.151 369.742 301.24 385.685C297.679 389.877 293.289 393.287 288.346 395.699C283.403 398.111 278.014 399.474 272.519 399.701C271.666 399.76 270.814 399.783 269.984 399.783Z" fill="white"/>
</mask>
<g mask="url(#mask1_937_4315)">
<path d="M308.948 319.588C307.335 319.719 305.839 320.485 304.79 321.718C303.741 322.951 303.225 324.55 303.354 326.164C303.844 332.366 303.015 341.535 300.866 350.692C303.935 350.562 307.005 350.957 309.941 351.86C309.246 360.647 306.16 369.077 301.018 376.236C289.676 391.993 272.67 397.027 259.437 395.134C253.515 394.293 246.729 391.187 241.018 387.998C248.767 395.555 259.159 399.792 269.984 399.806C270.813 399.806 271.666 399.806 272.519 399.736C278.014 399.509 283.403 398.147 288.346 395.734C293.289 393.322 297.679 389.913 301.24 385.72C315.151 369.777 316.646 339.374 315.524 325.23C315.467 324.426 315.251 323.642 314.888 322.922C314.526 322.203 314.024 321.562 313.413 321.038C312.801 320.513 312.092 320.115 311.326 319.866C310.559 319.617 309.751 319.523 308.948 319.588Z" fill="#6C54FF"/>
<path opacity="0.5" d="M308.948 319.588C307.335 319.719 305.839 320.485 304.79 321.718C303.741 322.951 303.225 324.55 303.354 326.164C303.844 332.366 303.015 341.535 300.866 350.692C303.935 350.562 307.005 350.957 309.941 351.86C309.246 360.647 306.16 369.077 301.018 376.236C289.676 391.993 272.67 397.027 259.437 395.134C253.515 394.293 246.729 391.187 241.018 387.998C248.767 395.555 259.159 399.792 269.984 399.806C270.813 399.806 271.666 399.806 272.519 399.736C278.014 399.509 283.403 398.147 288.346 395.734C293.289 393.322 297.679 389.913 301.24 385.72C315.151 369.777 316.646 339.374 315.524 325.23C315.467 324.426 315.251 323.642 314.888 322.922C314.526 322.203 314.024 321.562 313.413 321.038C312.801 320.513 312.092 320.115 311.326 319.866C310.559 319.617 309.751 319.523 308.948 319.588Z" fill="white"/>
</g>
<path d="M269.984 399.783C243.985 399.783 228.357 376.715 222.809 356.427L222.622 355.714C222.326 354.731 222.232 353.697 222.345 352.676C222.458 351.655 222.776 350.668 223.279 349.772C223.783 348.877 224.462 348.092 225.275 347.465C226.089 346.838 227.021 346.382 228.015 346.123C229.009 345.865 230.045 345.809 231.061 345.961C232.077 346.112 233.052 346.466 233.928 347.003C234.804 347.539 235.563 348.247 236.159 349.084C236.755 349.92 237.176 350.868 237.397 351.872L237.537 352.397C241.754 367.838 253.235 385.487 271.655 384.47C275.118 384.35 278.518 383.503 281.633 381.984C284.748 380.465 287.508 378.307 289.735 375.652C299.838 364.066 304.359 338.872 303.354 326.164C303.259 325.348 303.329 324.522 303.561 323.734C303.792 322.947 304.18 322.214 304.701 321.579C305.222 320.945 305.866 320.422 306.594 320.042C307.321 319.662 308.118 319.432 308.937 319.367C309.755 319.302 310.578 319.402 311.357 319.663C312.136 319.923 312.854 320.337 313.469 320.881C314.084 321.425 314.583 322.087 314.936 322.828C315.289 323.57 315.489 324.374 315.525 325.194C316.693 339.339 315.151 369.742 301.24 385.685C297.679 389.877 293.289 393.287 288.346 395.699C283.403 398.111 278.014 399.474 272.519 399.701C271.666 399.76 270.814 399.783 269.984 399.783Z" stroke="#6C54FF" stroke-width="1.1133" stroke-linecap="round" stroke-linejoin="round"/>
<path d="M254.986 383.98C255.605 381.119 248.76 385.592 243.025 389.762C245.147 391.554 247.43 393.146 249.847 394.515C251.891 391.187 254.39 386.737 254.986 383.98Z" fill="#6C54FF" stroke="#6C54FF" stroke-width="1.1133" stroke-linecap="round" stroke-linejoin="round"/>
<path d="M269.984 399.783C270.813 399.783 271.666 399.783 272.518 399.713C275 399.574 277.465 399.226 279.888 398.674C276.665 394.469 272.226 388.909 270.953 388.489C269.493 387.998 266.678 395.158 265.113 399.503C266.73 399.691 268.356 399.785 269.984 399.783Z" fill="#6C54FF" stroke="#6C54FF" stroke-width="1.1133" stroke-linecap="round" stroke-linejoin="round"/>
<path d="M237.537 352.397L237.397 351.872C237.176 350.868 236.755 349.92 236.159 349.084C235.563 348.247 234.804 347.539 233.928 347.003C233.052 346.466 232.077 346.112 231.061 345.961C230.045 345.809 229.009 345.865 228.015 346.123C227.021 346.382 226.089 346.838 225.275 347.465C224.462 348.092 223.783 348.877 223.279 349.772C222.776 350.668 222.458 351.655 222.345 352.676C222.232 353.697 222.326 354.731 222.622 355.714L222.809 356.427C224.756 363.552 227.748 370.349 231.686 376.598L245.596 369.976C241.949 364.607 239.225 358.665 237.537 352.397Z" fill="#6C54FF" stroke="#6C54FF" stroke-width="1.1133" stroke-linecap="round" stroke-linejoin="round"/>
<path d="M301.24 385.685C302.309 384.448 303.3 383.145 304.207 381.784C299.792 380.277 293.181 378.198 290.728 378.42C287.82 378.689 291.768 388.033 293.8 392.436C296.536 390.485 299.033 388.219 301.24 385.685Z" fill="#6C54FF" stroke="#6C54FF" stroke-width="1.1133" stroke-linecap="round" stroke-linejoin="round"/>
<path d="M301.484 360.725C301.017 361.66 306.728 365.818 310.583 368.492C311.805 364.854 312.789 361.14 313.526 357.373C308.854 358.307 301.939 359.814 301.484 360.725Z" fill="#6C54FF" stroke="#6C54FF" stroke-width="1.1133" stroke-linecap="round" stroke-linejoin="round"/>
<path d="M315.419 343.45C315.676 340.122 315.805 336.945 315.817 334.025C311.799 336.232 307.033 339.292 307.033 341.301C307.033 343.31 311.495 343.556 315.419 343.45Z" fill="#6C54FF" stroke="#6C54FF" stroke-width="1.1133" stroke-linecap="round" stroke-linejoin="round"/>
<path d="M252.533 253.082C252.533 253.082 241.192 285.926 247.301 311.482C249.11 318.961 252.622 325.92 257.564 331.818C262.505 337.715 268.742 342.392 275.788 345.483C275.788 345.483 259.214 351.323 262.94 360.305C266.666 369.286 280.951 363.505 285.611 360.597C290.271 357.688 296.123 348.975 296.941 343.158C297.46 340.186 297.656 337.167 297.525 334.153C297.525 334.153 316.411 332.121 329.201 321.655C329.201 321.655 340.542 330.661 348.683 328.92C356.824 327.18 368.446 312.638 367.278 299.569C366.11 286.499 358.576 286.51 353.974 288.496C351.585 289.399 349.407 290.783 347.574 292.561C347.574 292.561 354.255 284.385 347.574 273.09C345.602 269.777 342.902 266.956 339.678 264.842C336.454 262.727 332.792 261.374 328.967 260.884C328.967 260.884 325.463 242.278 315.021 235.305C304.579 228.332 267.355 221.114 252.533 253.082Z" fill="white"/>
<mask id="mask2_937_4315" style="mask-type:luminance" maskUnits="userSpaceOnUse" x="245" y="229" width="123" height="137">
<path d="M252.533 253.082C252.533 253.082 241.192 285.926 247.301 311.482C249.11 318.961 252.622 325.92 257.564 331.818C262.505 337.715 268.742 342.392 275.788 345.483C275.788 345.483 259.214 351.323 262.94 360.305C266.666 369.286 280.951 363.505 285.611 360.597C290.271 357.688 296.123 348.975 296.941 343.158C297.46 340.186 297.656 337.167 297.525 334.153C297.525 334.153 316.411 332.121 329.201 321.655C329.201 321.655 340.542 330.661 348.683 328.92C356.824 327.18 368.446 312.638 367.278 299.569C366.11 286.499 358.576 286.51 353.974 288.496C351.585 289.399 349.407 290.783 347.574 292.561C347.574 292.561 354.255 284.385 347.574 273.09C345.602 269.777 342.902 266.956 339.678 264.842C336.454 262.727 332.792 261.374 328.967 260.884C328.967 260.884 325.463 242.278 315.021 235.305C304.579 228.332 267.355 221.114 252.533 253.082Z" fill="white"/>
</mask>
<g mask="url(#mask2_937_4315)">
<path d="M338.884 264.377C333.492 273.371 326.031 280.948 317.12 286.478C308.21 292.008 298.108 295.33 287.655 296.17C264.529 298.202 251.564 293.647 245.607 290.481C246.33 277.774 248.686 265.212 252.615 253.105C267.437 221.137 304.638 228.402 315.103 235.375C325.569 242.348 329.049 260.954 329.049 260.954C332.532 261.391 335.883 262.558 338.884 264.377ZM353.974 288.496C351.586 289.399 349.407 290.783 347.574 292.561C348.988 290.61 349.921 288.353 350.295 285.973C334.586 293.799 335.812 310.501 333.861 310.501C331.455 310.501 330.264 302.103 330.264 302.103C330.264 302.103 327.262 314.098 309.24 322.508C291.218 330.918 270.836 324.307 270.836 324.307C270.836 324.307 275.041 333.908 264.237 332.705C261.205 332.415 258.298 331.353 255.792 329.621C260.973 336.528 267.854 341.977 275.765 345.436C275.765 345.436 259.191 351.276 262.917 360.258C266.643 369.24 280.939 363.458 285.588 360.55C290.237 357.641 296.1 348.928 296.918 343.112C297.437 340.14 297.633 337.12 297.502 334.106C297.502 334.106 316.388 332.074 329.178 321.609C329.178 321.609 340.519 330.614 348.66 328.874C356.801 327.133 368.423 312.592 367.255 299.522C366.087 286.452 358.576 286.51 353.974 288.496Z" fill="#6C54FF"/>
<path opacity="0.5" d="M338.884 264.377C333.492 273.371 326.031 280.948 317.12 286.478C308.21 292.008 298.108 295.33 287.655 296.17C264.529 298.202 251.564 293.647 245.607 290.481C246.33 277.774 248.686 265.212 252.615 253.105C267.437 221.137 304.638 228.402 315.103 235.375C325.569 242.348 329.049 260.954 329.049 260.954C332.532 261.391 335.883 262.558 338.884 264.377ZM353.974 288.496C351.586 289.399 349.407 290.783 347.574 292.561C348.988 290.61 349.921 288.353 350.295 285.973C334.586 293.799 335.812 310.501 333.861 310.501C331.455 310.501 330.264 302.103 330.264 302.103C330.264 302.103 327.262 314.098 309.24 322.508C291.218 330.918 270.836 324.307 270.836 324.307C270.836 324.307 275.041 333.908 264.237 332.705C261.205 332.415 258.298 331.353 255.792 329.621C260.973 336.528 267.854 341.977 275.765 345.436C275.765 345.436 259.191 351.276 262.917 360.258C266.643 369.24 280.939 363.458 285.588 360.55C290.237 357.641 296.1 348.928 296.918 343.112C297.437 340.14 297.633 337.12 297.502 334.106C297.502 334.106 316.388 332.074 329.178 321.609C329.178 321.609 340.519 330.614 348.66 328.874C356.801 327.133 368.423 312.592 367.255 299.522C366.087 286.452 358.576 286.51 353.974 288.496Z" fill="white"/>
<path d="M297.584 334.176C291.316 334.343 285.093 333.071 279.393 330.457C273.693 327.843 268.668 323.957 264.705 319.097" stroke="#6C54FF" stroke-width="1.1133" stroke-linecap="round" stroke-linejoin="round"/>
</g>
<path d="M252.533 253.082C252.533 253.082 241.192 285.926 247.301 311.482C249.11 318.961 252.622 325.92 257.564 331.818C262.505 337.715 268.742 342.392 275.788 345.483C275.788 345.483 259.214 351.323 262.94 360.305C266.666 369.286 280.951 363.505 285.611 360.597C290.271 357.688 296.123 348.975 296.941 343.158C297.46 340.186 297.656 337.167 297.525 334.153C297.525 334.153 316.411 332.121 329.201 321.655C329.201 321.655 340.542 330.661 348.683 328.92C356.824 327.18 368.446 312.638 367.278 299.569C366.11 286.499 358.576 286.51 353.974 288.496C351.585 289.399 349.407 290.783 347.574 292.561C347.574 292.561 354.255 284.385 347.574 273.09C345.602 269.777 342.902 266.956 339.678 264.842C336.454 262.727 332.792 261.374 328.967 260.884C328.967 260.884 325.463 242.278 315.021 235.305C304.579 228.332 267.355 221.114 252.533 253.082Z" stroke="#6C54FF" stroke-width="1.1133" stroke-linecap="round" stroke-linejoin="round"/>
<path d="M347.574 292.607C347.574 292.607 341.477 296.684 338.568 309.181" stroke="#6C54FF" stroke-width="1.1133" stroke-linecap="round" stroke-linejoin="round"/>
<path d="M358.774 297.957C358.062 300.083 356.111 301.356 354.429 300.783C352.747 300.211 351.977 298.027 352.689 295.901C353.402 293.775 355.352 292.502 357.034 293.075C358.716 293.647 359.498 295.831 358.774 297.957Z" fill="white" stroke="#6C54FF" stroke-width="1.1133" stroke-linecap="round" stroke-linejoin="round"/>
<path d="M364.791 301.741C364.079 303.867 362.128 305.14 360.446 304.568C358.764 303.995 357.982 301.811 358.706 299.686C359.43 297.56 361.369 296.287 363.051 296.859C364.733 297.431 365.515 299.615 364.791 301.741Z" fill="white" stroke="#6C54FF" stroke-width="1.1133" stroke-linecap="round" stroke-linejoin="round"/>
<path d="M366.076 307.406C365.843 307.797 365.504 308.114 365.098 308.319C364.691 308.525 364.235 308.612 363.782 308.569C363.329 308.526 362.897 308.355 362.537 308.076C362.177 307.798 361.904 307.423 361.748 306.995C361.593 306.567 361.562 306.104 361.659 305.659C361.756 305.215 361.978 304.807 362.298 304.483C362.618 304.159 363.023 303.932 363.466 303.829C363.91 303.727 364.373 303.752 364.803 303.902C365.423 304.212 365.901 304.748 366.138 305.4C366.375 306.052 366.353 306.77 366.076 307.406Z" fill="white" stroke="#6C54FF" stroke-width="1.1133" stroke-linecap="round" stroke-linejoin="round"/>
<path d="M358.401 315.185C356.299 318.981 352.094 320.663 348.999 318.946C345.904 317.229 345.109 312.779 347.212 308.983C349.314 305.187 353.519 303.505 356.614 305.222C359.709 306.939 360.504 311.389 358.401 315.185Z" fill="white" stroke="#6C54FF" stroke-width="1.1133" stroke-linecap="round" stroke-linejoin="round"/>
<path d="M275.789 345.506C279.705 347.329 284.155 347.64 288.287 346.382" stroke="#6C54FF" stroke-width="1.1133" stroke-linecap="round" stroke-linejoin="round"/>
<path d="M263 360.328C263 360.328 264.168 355.387 271.421 351.907" stroke="#6C54FF" stroke-width="1.1133" stroke-linecap="round" stroke-linejoin="round"/>
<path d="M270.264 364.696C270.264 364.696 273.172 357.688 278.113 354.523" stroke="#6C54FF" stroke-width="1.1133" stroke-linecap="round" stroke-linejoin="round"/>
<path d="M155.648 284.291C154.413 283.305 153.428 282.041 152.774 280.602C152.121 279.163 151.817 277.589 151.887 276.01V248.317H80.4524C78.7074 248.382 76.969 248.07 75.3562 247.4C73.7433 246.731 72.2943 245.721 71.1084 244.439C68.7719 241.967 67.4899 238.683 67.5343 235.282C67.5249 232.518 68.338 229.815 69.8703 227.515L138.292 119.989C143.431 112.054 150.26 108.087 158.778 108.087C163.358 107.931 167.83 109.498 171.311 112.478C174.652 115.398 176.322 119.739 176.322 125.502V230.026H194.496C195.751 229.95 197.008 230.152 198.176 230.616C199.345 231.08 200.397 231.796 201.259 232.712C202.795 234.514 203.64 236.804 203.64 239.171C203.64 241.539 202.795 243.829 201.259 245.63C200.397 246.547 199.345 247.262 198.176 247.727C197.008 248.191 195.751 248.392 194.496 248.317H176.193V276.01C176.269 277.577 175.981 279.141 175.35 280.578C174.72 282.014 173.765 283.286 172.561 284.291C170.21 286.262 167.231 287.327 164.163 287.293C161.061 287.317 158.049 286.255 155.648 284.291ZM151.841 230.026V133.783L91.9338 230.026H151.841Z" fill="#6C54FF"/>
<path d="M254.777 284.852C247.776 281.796 241.576 277.163 236.661 271.315C231.725 265.135 227.871 258.165 225.262 250.7C222.304 242.634 220.225 234.274 219.06 225.763C217.844 216.496 217.259 207.158 217.308 197.812C217.308 136.243 238.332 105.459 280.38 105.459C322.428 105.459 343.401 136.243 343.3 197.812C343.341 207.113 342.776 216.407 341.606 225.634C340.479 234.147 338.419 242.509 335.462 250.571C332.853 258.037 328.999 265.007 324.063 271.186C319.142 277.043 312.945 281.693 305.947 284.782C297.901 288.339 289.175 290.093 280.38 289.921C271.58 290.098 262.846 288.368 254.777 284.852ZM292.807 267.18C296.325 265.679 299.519 263.509 302.209 260.791C304.934 257.89 307.174 254.569 308.844 250.956C310.686 247.129 312.175 243.141 313.294 239.043C314.472 234.578 315.33 230.034 315.863 225.447C316.494 220.386 316.915 215.749 317.125 211.536C317.335 207.324 317.436 202.749 317.428 197.812C317.428 192.634 317.327 187.853 317.125 183.469C316.922 179.086 316.482 174.382 315.805 169.36C315.223 164.776 314.346 160.235 313.177 155.764C312.072 151.707 310.581 147.765 308.727 143.991C307.045 140.435 304.801 137.174 302.081 134.332C299.406 131.668 296.23 129.56 292.737 128.13C284.751 125.046 275.903 125.046 267.917 128.13C264.449 129.543 261.297 131.631 258.643 134.273C255.944 137.103 253.705 140.339 252.009 143.863C250.138 147.603 248.666 151.529 247.617 155.578C246.477 160.075 245.619 164.639 245.048 169.243C244.37 174.336 243.93 179.078 243.728 183.469C243.525 187.861 243.42 192.642 243.412 197.812C243.412 202.741 243.517 207.336 243.728 211.595C243.938 215.854 244.355 220.526 244.977 225.611C245.516 230.197 246.375 234.74 247.547 239.206C248.65 243.303 250.124 247.291 251.95 251.12C253.603 254.711 255.823 258.012 258.526 260.896C261.197 263.597 264.372 265.748 267.87 267.227C275.864 270.481 284.813 270.481 292.807 267.227V267.18Z" fill="#6C54FF"/>
<path d="M451.525 284.291C450.29 283.305 449.305 282.041 448.651 280.602C447.998 279.163 447.694 277.589 447.764 276.01V248.317H376.329C374.584 248.382 372.846 248.07 371.233 247.4C369.62 246.731 368.171 245.721 366.985 244.439C364.649 241.967 363.367 238.683 363.411 235.282C363.402 232.518 364.215 229.815 365.747 227.515L434.169 119.989C439.261 112.054 446.071 108.087 454.597 108.087C459.201 107.913 463.701 109.481 467.2 112.478C470.54 115.398 472.21 119.739 472.21 125.502V230.026H490.385C491.64 229.95 492.896 230.152 494.065 230.616C495.234 231.08 496.286 231.796 497.147 232.712C498.684 234.514 499.528 236.804 499.528 239.171C499.528 241.539 498.684 243.829 497.147 245.63C496.286 246.547 495.234 247.262 494.065 247.727C492.896 248.191 491.64 248.392 490.385 248.317H472.07V276.01C472.146 277.577 471.857 279.141 471.227 280.577C470.597 282.014 469.642 283.286 468.438 284.291C466.087 286.262 463.108 287.327 460.04 287.293C456.938 287.317 453.926 286.255 451.525 284.291ZM447.764 230.026V133.783L387.858 230.026H447.764Z" fill="#6C54FF"/>
<path d="M228.987 236.52C228.987 236.52 216.781 253.666 215.041 271.104C213.301 288.543 215.333 300.164 220.566 304.533C225.798 308.901 231.019 307.149 233.928 303.073C236.836 298.996 232.187 284.758 232.187 284.758C232.187 284.758 237.128 271.104 244.685 261.515C252.242 251.926 253.69 250.466 253.69 250.466C253.69 250.466 240.608 235.644 228.987 236.52Z" fill="white"/>
<mask id="mask3_937_4315" style="mask-type:luminance" maskUnits="userSpaceOnUse" x="214" y="236" width="40" height="72">
<path d="M228.987 236.52C228.987 236.52 216.781 253.666 215.041 271.104C213.301 288.543 215.333 300.164 220.566 304.533C225.798 308.901 231.019 307.149 233.928 303.073C236.836 298.996 232.187 284.758 232.187 284.758C232.187 284.758 237.128 271.104 244.685 261.515C252.242 251.926 253.69 250.466 253.69 250.466C253.69 250.466 240.608 235.644 228.987 236.52Z" fill="white"/>
</mask>
<g mask="url(#mask3_937_4315)">
<path d="M228.986 236.52C226.323 240.455 223.961 244.586 221.92 248.877C227.76 251.213 236.812 256.002 242.558 264.482C243.259 263.466 243.983 262.461 244.731 261.515C252.288 251.926 253.736 250.466 253.736 250.466C253.736 250.466 240.608 235.644 228.986 236.52Z" fill="#6C54FF"/>
<path opacity="0.5" d="M228.986 236.52C226.323 240.455 223.961 244.586 221.92 248.877C227.76 251.213 236.812 256.002 242.558 264.482C243.259 263.466 243.983 262.461 244.731 261.515C252.288 251.926 253.736 250.466 253.736 250.466C253.736 250.466 240.608 235.644 228.986 236.52Z" fill="white"/>
</g>
<path d="M228.987 236.52C228.987 236.52 216.781 253.666 215.041 271.105C213.301 288.543 215.333 300.164 220.566 304.533C225.798 308.901 231.019 307.149 233.928 303.073C236.836 298.996 232.187 284.758 232.187 284.758C232.187 284.758 237.128 271.104 244.685 261.515C252.242 251.926 253.69 250.466 253.69 250.466C253.69 250.466 240.608 235.644 228.987 236.52Z" stroke="#6C54FF" stroke-width="1.1133" stroke-linecap="round" stroke-linejoin="round"/>
<path d="M220.565 304.533C219.138 300.722 218.445 296.676 218.521 292.607" stroke="#6C54FF" stroke-width="1.1133" stroke-linecap="round" stroke-linejoin="round"/>
<path d="M228.403 306.273C228.403 306.273 225.507 301.332 225.215 292.899" stroke="#6C54FF" stroke-width="1.1133" stroke-linecap="round" stroke-linejoin="round"/>
<path d="M232.771 267.612C232.771 264.552 226.931 258.572 218.813 255.932C217.722 258.778 216.821 261.692 216.115 264.657C219.269 265.197 222.332 266.176 225.214 267.565C229.571 269.936 232.771 271.104 232.771 267.612Z" fill="#6C54FF" stroke="#6C54FF" stroke-width="1.1133" stroke-linecap="round" stroke-linejoin="round"/>
<path d="M228.274 237.56C226.391 240.43 224.66 243.397 223.088 246.448C225.546 247.098 227.904 248.08 230.096 249.368C239.101 254.589 240.841 255.208 237.945 247.616C236.193 242.851 232.011 239.615 228.274 237.56Z" fill="#6C54FF" stroke="#6C54FF" stroke-width="1.1133" stroke-linecap="round" stroke-linejoin="round"/>
<path d="M324.587 228.052C324.587 228.052 338.416 243.913 341.862 261.106C345.308 278.299 344.432 290.061 339.643 294.908C334.854 299.756 329.493 298.541 326.199 294.768C322.905 290.996 326.199 276.384 326.199 276.384C326.199 276.384 319.939 263.267 311.482 254.46C303.026 245.654 301.426 244.357 301.426 244.357C301.426 244.357 312.931 228.321 324.587 228.052Z" fill="white"/>
<mask id="mask4_937_4315" style="mask-type:luminance" maskUnits="userSpaceOnUse" x="301" y="228" width="43" height="71">
<path d="M324.587 228.052C324.587 228.052 338.416 243.913 341.862 261.106C345.308 278.299 344.432 290.061 339.643 294.908C334.854 299.756 329.493 298.541 326.199 294.768C322.905 290.996 326.199 276.384 326.199 276.384C326.199 276.384 319.939 263.267 311.482 254.46C303.026 245.654 301.426 244.357 301.426 244.357C301.426 244.357 312.931 228.321 324.587 228.052Z" fill="white"/>
</mask>
<g mask="url(#mask4_937_4315)">
<path d="M324.587 228.052C312.907 228.321 301.367 244.404 301.367 244.404C301.367 244.404 302.956 245.712 311.424 254.507C313.007 256.175 314.497 257.93 315.885 259.763C320.305 252.298 326.619 246.133 334.188 241.893C331.403 237.005 328.19 232.373 324.587 228.052Z" fill="#6C54FF"/>
<path opacity="0.5" d="M324.587 228.052C312.907 228.321 301.367 244.404 301.367 244.404C301.367 244.404 302.956 245.712 311.424 254.507C313.007 256.175 314.497 257.93 315.885 259.763C320.305 252.298 326.619 246.133 334.188 241.893C331.403 237.005 328.19 232.373 324.587 228.052Z" fill="white"/>
</g>
<path d="M324.587 228.052C324.587 228.052 338.416 243.913 341.862 261.106C345.308 278.299 344.432 290.061 339.643 294.908C334.854 299.756 329.493 298.541 326.199 294.768C322.905 290.996 326.199 276.384 326.199 276.384C326.199 276.384 319.939 263.267 311.482 254.46C303.026 245.654 301.426 244.357 301.426 244.357C301.426 244.357 312.931 228.321 324.587 228.052Z" stroke="#6C54FF" stroke-width="1.1133" stroke-linecap="round" stroke-linejoin="round"/>
<path d="M339.643 294.908C340.69 290.981 340.983 286.891 340.507 282.854" stroke="#6C54FF" stroke-width="1.1133" stroke-linecap="round" stroke-linejoin="round"/>
<path d="M332.004 297.408C332.004 297.408 334.422 292.21 333.884 283.789" stroke="#6C54FF" stroke-width="1.1133" stroke-linecap="round" stroke-linejoin="round"/>
<path d="M323.875 259.366C323.583 256.318 328.804 249.8 336.629 246.425C337.983 249.147 339.154 251.956 340.133 254.834C337.054 255.693 334.106 256.97 331.373 258.63C327.285 261.375 324.225 262.8 323.875 259.366Z" fill="#6C54FF" stroke="#6C54FF" stroke-width="1.1133" stroke-linecap="round" stroke-linejoin="round"/>
<path d="M325.394 229.021C327.542 231.672 329.546 234.437 331.397 237.303C329.006 238.188 326.747 239.394 324.681 240.888C316.236 246.985 314.554 247.733 316.704 239.931C318.047 235.06 321.878 231.428 325.394 229.021Z" fill="#6C54FF" stroke="#6C54FF" stroke-width="1.1133" stroke-linecap="round" stroke-linejoin="round"/>
<path d="M227.842 221.686C227.842 221.686 224.245 233.822 225.6 238.763C226.955 243.703 233.239 239.218 239.534 244.603C245.83 249.987 251.658 259.705 275.497 261.504C299.336 263.302 313.725 250.443 318.713 243.248C323.7 236.053 323.21 227.515 331.748 227.071C340.286 226.627 333.103 209.983 330.404 207.285C330.404 207.285 347.037 182.558 347.037 176.263C347.037 169.967 331.304 171.311 311.997 177.162C311.997 177.162 297.607 169.512 271.526 174.009C245.444 178.505 237.805 186.156 237.805 186.156C237.805 186.156 205.428 190.197 203.186 194.238C200.943 198.28 207.613 215.391 227.842 221.686Z" fill="white"/>
<mask id="mask5_937_4315" style="mask-type:luminance" maskUnits="userSpaceOnUse" x="202" y="172" width="146" height="90">
<path d="M227.842 221.686C227.842 221.686 224.245 233.822 225.6 238.763C226.955 243.703 233.239 239.218 239.534 244.603C245.83 249.987 251.658 259.705 275.497 261.504C299.336 263.302 313.725 250.443 318.713 243.248C323.7 236.053 323.21 227.515 331.748 227.071C340.286 226.627 333.103 209.983 330.404 207.285C330.404 207.285 347.037 182.558 347.037 176.263C347.037 169.967 331.304 171.311 311.997 177.162C311.997 177.162 297.607 169.512 271.526 174.009C245.444 178.505 237.805 186.156 237.805 186.156C237.805 186.156 205.428 190.197 203.186 194.238C200.943 198.28 207.613 215.391 227.842 221.686Z" fill="white"/>
</mask>
<g mask="url(#mask5_937_4315)">
<path d="M331.714 227.083C340.263 226.627 333.068 209.995 330.37 207.297C330.37 207.297 333.536 202.625 337.098 196.785C327.439 191.739 317.955 188.936 315.432 191.774C310 197.871 312.955 209.551 315.432 220.974C317.908 232.397 308.015 237.268 301.1 247.149C294.186 257.03 284.316 246.156 284.316 246.156C280.812 260.487 266.037 251.097 266.037 251.097C254.684 247.593 235.424 236.286 239.371 228.379C243.319 220.472 244.312 213.067 237.398 206.654C230.483 200.242 202.907 194.904 202.907 194.904C201.458 199.775 208.455 215.73 227.855 221.768C227.855 221.768 224.258 233.904 225.612 238.844C226.967 243.785 233.251 239.3 239.547 244.684C245.842 250.069 251.671 259.787 275.509 261.585C299.348 263.384 313.738 250.524 318.725 243.329C323.713 236.135 323.164 227.526 331.714 227.083Z" fill="#6C54FF"/>
<path opacity="0.5" d="M331.714 227.083C340.263 226.627 333.068 209.995 330.37 207.297C330.37 207.297 333.536 202.625 337.098 196.785C327.439 191.739 317.955 188.936 315.432 191.774C310 197.871 312.955 209.551 315.432 220.974C317.908 232.397 308.015 237.268 301.1 247.149C294.186 257.03 284.316 246.156 284.316 246.156C280.812 260.487 266.037 251.097 266.037 251.097C254.684 247.593 235.424 236.286 239.371 228.379C243.319 220.472 244.312 213.067 237.398 206.654C230.483 200.242 202.907 194.904 202.907 194.904C201.458 199.775 208.455 215.73 227.855 221.768C227.855 221.768 224.258 233.904 225.612 238.844C226.967 243.785 233.251 239.3 239.547 244.684C245.842 250.069 251.671 259.787 275.509 261.585C299.348 263.384 313.738 250.524 318.725 243.329C323.713 236.135 323.164 227.526 331.714 227.083Z" fill="white"/>
<path d="M296.544 229.792C296.883 232.642 290.552 235.714 282.435 236.66C274.317 237.606 267.449 236.065 267.111 233.156C266.772 230.248 273.102 227.246 281.232 226.3C289.361 225.354 296.217 226.954 296.544 229.792Z" fill="#6C54FF"/>
<path opacity="0.5" d="M296.544 229.792C296.883 232.642 290.552 235.714 282.435 236.66C274.317 237.606 267.449 236.065 267.111 233.156C266.772 230.248 273.102 227.246 281.232 226.3C289.361 225.354 296.217 226.954 296.544 229.792Z" fill="white"/>
</g>
<path d="M227.842 221.686C227.842 221.686 224.245 233.822 225.6 238.763C226.955 243.703 233.239 239.218 239.534 244.603C245.83 249.987 251.658 259.705 275.497 261.504C299.336 263.302 313.725 250.443 318.713 243.248C323.7 236.053 323.21 227.515 331.748 227.071C340.286 226.627 333.103 209.983 330.404 207.285C330.404 207.285 347.037 182.558 347.037 176.263C347.037 169.967 331.304 171.311 311.997 177.162C311.997 177.162 297.607 169.512 271.526 174.009C245.444 178.505 237.805 186.156 237.805 186.156C237.805 186.156 205.428 190.197 203.186 194.238C200.943 198.28 207.613 215.391 227.842 221.686Z" stroke="#6C54FF" stroke-width="1.1133" stroke-miterlimit="10"/>
<path d="M320.838 185.712C309.158 193.561 313.281 201.41 318.502 205.766C321.69 208.43 326.83 208.102 330.345 207.355C330.345 207.355 346.978 182.628 346.978 176.333C346.989 176.274 332.459 177.805 320.838 185.712Z" fill="#6C54FF" stroke="#6C54FF" stroke-width="1.1133" stroke-miterlimit="10"/>
<path d="M202.895 194.822C201.446 199.693 208.443 215.648 227.843 221.686C227.843 221.686 242.654 220.238 237.713 208.324C233.099 197.205 209.774 194.437 202.895 194.822Z" fill="#6C54FF" stroke="#6C54FF" stroke-width="1.1133" stroke-miterlimit="10"/>
<path d="M271.456 174.032C269.926 174.301 268.454 174.581 267.041 174.861C269.377 186.658 273.22 206.304 276.654 206.304C280.088 206.304 282.716 184.766 283.837 172.7C279.685 172.875 275.55 173.32 271.456 174.032Z" fill="#6C54FF" stroke="#6C54FF" stroke-width="1.1133" stroke-miterlimit="10"/>
<path d="M258.058 202.8C261.632 200.697 261.095 184.894 260.523 176.321C256.834 177.238 253.203 178.373 249.648 179.72C250.945 187.744 254.239 205.042 258.058 202.8Z" fill="#6C54FF" stroke="#6C54FF" stroke-width="1.1133" stroke-miterlimit="10"/>
<path d="M292.644 195.535C296.3 196.82 298.355 183.68 299.512 173.565C295.82 172.963 292.086 172.647 288.346 172.619C288.229 180.923 288.684 194.145 292.644 195.535Z" fill="#6C54FF" stroke="#6C54FF" stroke-width="1.1133" stroke-miterlimit="10"/>
<path d="M287.75 241.017C284.339 240.12 280.714 240.568 277.623 242.267C277.487 242.345 277.372 242.454 277.286 242.585C277.2 242.715 277.146 242.864 277.128 243.02C277.11 243.175 277.128 243.333 277.182 243.48C277.235 243.627 277.322 243.759 277.436 243.867L283.638 249.707C283.754 249.816 283.895 249.895 284.048 249.939C284.201 249.983 284.363 249.99 284.519 249.959C284.675 249.928 284.822 249.861 284.947 249.762C285.072 249.663 285.172 249.536 285.238 249.391L288.415 242.383C288.472 242.251 288.5 242.108 288.496 241.963C288.493 241.819 288.458 241.677 288.395 241.548C288.332 241.418 288.241 241.304 288.13 241.212C288.019 241.12 287.889 241.054 287.75 241.017Z" fill="#6C54FF" stroke="#6C54FF" stroke-width="1.1133" stroke-linecap="round" stroke-linejoin="round"/>
<path d="M273.009 231.264C273.861 233.518 273.523 235.737 272.25 236.216C270.976 236.695 269.248 235.27 268.384 233.028C267.519 230.785 267.87 228.554 269.143 228.075C270.416 227.596 272.144 229.021 273.009 231.264Z" fill="#6C54FF"/>
<path d="M289.922 229.664C289.478 232 290.202 234.161 291.545 234.406C292.888 234.651 294.337 232.946 294.78 230.575C295.224 228.204 294.5 226.09 293.157 225.833C291.814 225.576 290.365 227.305 289.922 229.664Z" fill="#6C54FF"/>
<path d="M285.238 249.38C285.238 249.38 276.946 260.639 269.389 249.31" stroke="#6C54FF" stroke-width="1.1133" stroke-linecap="round" stroke-linejoin="round"/>
<path d="M283.637 249.695C283.637 249.695 289.15 255.407 294.966 252.206C300.783 249.006 297.302 244.03 297.302 244.03" stroke="#6C54FF" stroke-width="1.1133" stroke-linecap="round" stroke-linejoin="round"/>
<path d="M258.35 222.27C258.35 222.27 260.382 215.006 269.971 216.746" stroke="#6C54FF" stroke-width="3.33991" stroke-linecap="round" stroke-linejoin="round"/>
<path d="M287.41 215.589C287.41 215.589 294.675 211.233 301.356 218.206" stroke="#6C54FF" stroke-width="3.33991" stroke-linecap="round" stroke-linejoin="round"/>
<path d="M252.826 241.753L259.799 243.493" stroke="#6C54FF" stroke-width="1.1133" stroke-miterlimit="10" stroke-linecap="round"/>
<path d="M258.923 246.109L252.826 247.266" stroke="#6C54FF" stroke-width="1.1133" stroke-miterlimit="10" stroke-linecap="round"/>
<path d="M260.091 249.31L255.734 251.634" stroke="#6C54FF" stroke-width="1.1133" stroke-miterlimit="10" stroke-linecap="round"/>
<path d="M304.264 238.552L310.372 237.092" stroke="#6C54FF" stroke-width="1.1133" stroke-miterlimit="10" stroke-linecap="round"/>
<path d="M305.432 241.461H309.496" stroke="#6C54FF" stroke-width="1.1133" stroke-miterlimit="10" stroke-linecap="round"/>
<path d="M306.297 244.369L311.822 245.817" stroke="#6C54FF" stroke-width="1.1133" stroke-miterlimit="10" stroke-linecap="round"/>
</svg>
