<svg width="212" height="189" viewBox="0 0 212 189" fill="none" xmlns="http://www.w3.org/2000/svg">
<path d="M16.9232 187.723C9.81031 189.629 2.49916 185.408 0.593265 178.295C-1.31263 171.182 2.90847 163.871 10.0214 161.965C17.1342 160.059 24.4454 164.28 26.3513 171.393C28.2572 178.506 24.0361 185.817 16.9232 187.723ZM211.383 24.1832C211.748 25.5148 210.964 26.8901 209.633 27.2551L187.933 33.2023C186.601 33.5672 185.226 32.7836 184.861 31.452C184.496 30.1204 185.28 28.745 186.611 28.3801L205.9 23.0937L200.614 3.80499C200.249 2.47339 201.032 1.09806 202.364 0.733105C203.696 0.368159 205.071 1.15179 205.436 2.48339L211.383 24.1832ZM10.9835 174.607C11.4278 169.942 13.0945 155.865 16.2785 141.523C17.87 134.355 19.8551 127.054 22.2827 120.806C24.6765 114.644 27.6312 109.152 31.3392 105.951L34.6062 109.737C31.8716 112.097 29.277 116.61 26.9433 122.616C24.6436 128.536 22.7231 135.565 21.1596 142.607C18.0337 156.686 16.3927 170.548 15.961 175.081L10.9835 174.607ZM31.3392 105.951C35.0432 102.754 39.733 101.169 44.6228 100.31C49.5017 99.4531 54.8488 99.2802 59.9739 99.1004C65.181 98.9177 70.1729 98.7279 74.6712 97.9048C79.1565 97.084 82.9036 95.6723 85.7232 93.2209L89.0038 96.9942C85.2388 100.268 80.5054 101.92 75.5712 102.823C70.6498 103.724 65.2831 103.917 60.1492 104.097C54.9334 104.28 49.9573 104.45 45.4876 105.235C41.0288 106.018 37.3447 107.373 34.6062 109.737L31.3392 105.951ZM85.7232 93.2209C88.3948 90.8982 90.3576 86.5049 91.9852 80.2785C93.5925 74.1301 94.7315 66.8267 96.1577 59.055C97.5677 51.3713 99.2451 43.3247 101.922 36.0479C104.599 28.7726 108.342 22.076 114.004 17.2416L117.25 21.0441C112.49 25.109 109.134 30.9266 106.615 37.7743C104.096 44.6206 102.48 52.306 101.076 59.9574C99.6876 67.5209 98.4923 75.1558 96.8227 81.5431C95.1734 87.8524 92.9167 93.5923 89.0038 96.9942L85.7232 93.2209ZM114.004 17.2416C124.903 7.93505 138.103 3.02146 154.087 3.63317C169.988 4.24169 188.512 10.3092 210.21 22.6718L207.734 27.0161C186.432 14.8788 168.707 9.1963 153.896 8.62952C139.169 8.06594 127.196 12.5518 117.25 21.0441L114.004 17.2416Z" fill="#3FCFFD"/>
</svg>
