<svg width="56" height="56" viewBox="0 0 56 56" fill="none" xmlns="http://www.w3.org/2000/svg">
<path opacity="0.4" d="M27.5093 33.1567L19.8794 40.7867C19.0394 40.04 18.2227 39.27 17.4293 38.4767C15.026 36.05 12.856 33.5067 10.9193 30.8467C9.00602 28.1867 7.46602 25.5267 6.34602 22.89C5.22602 20.23 4.66602 17.6867 4.66602 15.26C4.66602 13.6733 4.94602 12.1567 5.50602 10.7567C6.06602 9.33334 6.95268 8.02667 8.18935 6.86001C9.68268 5.39001 11.316 4.66667 13.0427 4.66667C13.696 4.66667 14.3493 4.80667 14.9327 5.08667C15.5393 5.36667 16.076 5.78667 16.496 6.39334L21.9094 14.0233C22.3294 14.6067 22.6327 15.1433 22.8427 15.6567C23.0527 16.1467 23.1694 16.6367 23.1694 17.08C23.1694 17.64 23.006 18.2 22.6793 18.7367C22.376 19.2733 21.9327 19.8333 21.3727 20.3933L19.5993 22.2367C19.3427 22.4933 19.226 22.7967 19.226 23.17C19.226 23.3567 19.2494 23.52 19.296 23.7067C19.366 23.8933 19.436 24.0333 19.4827 24.1733C19.9027 24.9433 20.626 25.9467 21.6527 27.16C22.7027 28.3733 23.8227 29.61 25.036 30.8467C25.876 31.6633 26.6927 32.4567 27.5093 33.1567Z" fill="#31D2AC"/>
<path d="M51.2637 42.77C51.2637 43.4233 51.1471 44.1 50.9137 44.7533C50.8437 44.94 50.7737 45.1267 50.6804 45.3133C50.2837 46.1533 49.7704 46.9467 49.0937 47.6933C47.9504 48.9533 46.6904 49.8633 45.2671 50.4467C45.2437 50.4467 45.2204 50.47 45.1971 50.47C43.8204 51.03 42.3271 51.3333 40.7171 51.3333C38.3371 51.3333 35.7937 50.7733 33.1104 49.63C30.4271 48.4867 27.7437 46.9467 25.0837 45.01C24.1737 44.3333 23.2637 43.6567 22.4004 42.9333L30.0304 35.3033C30.6837 35.7933 31.2671 36.1667 31.7571 36.4233C31.8737 36.47 32.0137 36.54 32.1771 36.61C32.3637 36.68 32.5504 36.7033 32.7604 36.7033C33.1571 36.7033 33.4604 36.5633 33.7171 36.3067L35.4904 34.5567C36.0737 33.9733 36.6337 33.53 37.1704 33.25C37.7071 32.9233 38.2437 32.76 38.8271 32.76C39.2704 32.76 39.7371 32.8533 40.2504 33.0633C40.7637 33.2733 41.3004 33.5767 41.8837 33.9733L49.6071 39.4567C50.2137 39.8767 50.6337 40.3667 50.8904 40.95C51.1237 41.5333 51.2637 42.1167 51.2637 42.77Z" fill="#31D2AC"/>
</svg>
