<svg width="56" height="56" viewBox="0 0 56 56" fill="none" xmlns="http://www.w3.org/2000/svg">
<path d="M18.7133 10.78H16.2866C12.5766 10.78 11.0833 12.18 11.0833 15.7267V43.4467H23.9166V15.7267C23.8933 12.18 22.3999 10.78 18.7133 10.78Z" fill="#3FCFFD"/>
<path opacity="0.4" d="M38.5467 22.4467H36.1201C32.4101 22.4467 30.9167 23.87 30.9167 27.3933V43.4467H43.7501V27.3933C43.7501 23.87 42.2334 22.4467 38.5467 22.4467Z" fill="#3FCFFD"/>
<path d="M6.41675 41.72H49.5834C50.5401 41.72 51.3334 42.5133 51.3334 43.47C51.3334 44.4267 50.5401 45.22 49.5834 45.22H6.41675C5.46008 45.22 4.66675 44.4267 4.66675 43.4467C4.66675 42.4667 5.46008 41.72 6.41675 41.72Z" fill="#3FCFFD"/>
</svg>
