<svg width="77" height="95" viewBox="0 0 77 95" fill="none" xmlns="http://www.w3.org/2000/svg">
<path d="M30.8672 79.568L18.1192 81.106C14.7972 81.417 11.4422 81.564 8.10416 81.531C4.27516 81.482 1.83616 79.436 1.10016 75.623C0.576159 72.923 0.200159 70.157 0.134159 67.408C-0.0128408 60.633 -0.0458408 53.841 0.0691592 47.066C0.118159 44.579 0.609159 42.075 1.05116 39.604C1.67316 36.086 3.63716 33.615 7.18816 32.714C13.4232 31.127 19.6252 29.294 25.9422 28.197C35.9902 26.462 46.1362 25.219 56.2502 23.828C58.5742 23.501 60.9142 23.304 63.2542 23.19C64.6612 23.125 66.1012 23.223 67.4932 23.419C71.6172 24.024 74.2032 26.496 74.9722 30.505C75.6922 34.187 76.0692 37.951 76.3962 41.699C77.0022 48.458 76.7232 55.233 76.5112 62.008C76.4622 63.432 76.5772 64.856 76.6422 66.279C76.8062 69.765 75.7262 71.794 72.3872 72.792C69.1142 73.774 65.7262 74.494 62.3392 74.854C59.7532 75.132 57.8222 76.016 56.1042 77.947L42.5842 92.823C41.9132 93.543 41.0952 94.198 40.2282 94.656C38.9192 95.36 37.7572 94.967 37.0862 93.625C36.5132 92.512 36.1702 91.285 35.6952 90.123L32.0782 81.58C31.8002 80.876 31.3252 80.288 30.8672 79.568ZM39.4752 91.449C39.9502 91.024 40.3422 90.729 40.6702 90.369L55.0222 74.92C55.2512 74.674 55.5782 74.445 55.6442 74.151C56.0202 72.58 57.2482 72.384 58.5412 72.269C60.1282 72.138 61.7162 72.105 63.2872 71.843C65.9222 71.418 68.5892 70.992 71.1592 70.288C73.5482 69.633 74.1052 68.717 74.0062 66.246C73.8592 62.155 74.5302 58.113 74.0722 53.989C73.5482 49.259 73.7122 44.448 73.3352 39.702C73.1062 36.707 72.5332 33.729 71.9442 30.783C71.4862 28.443 69.9642 26.855 67.5742 26.495C65.6922 26.217 63.7282 26.037 61.8462 26.266L32.4712 30.144C25.0092 31.191 17.6282 32.697 10.3952 34.841C4.71616 36.527 4.16016 37.263 3.48916 43.187C2.58916 51.124 2.86716 59.077 3.29316 67.031C3.42416 69.453 3.68616 71.875 4.02916 74.264C4.45416 77.079 5.76416 78.257 8.56216 78.322C10.8202 78.371 13.0792 78.306 15.3372 78.093L29.5742 76.571C31.2112 76.391 32.4542 76.669 33.2562 78.388C34.3522 80.728 35.7602 82.921 36.8892 85.245C37.8542 87.225 38.5912 89.271 39.4752 91.447V91.449ZM40.5862 11.506L40.5702 17.528C40.5542 18.183 40.5862 18.968 40.2592 19.459C39.8992 19.999 39.1302 20.572 38.5412 20.555C37.9682 20.539 37.2152 19.917 36.8882 19.36C36.5772 18.853 36.6752 18.067 36.6592 17.396L36.2832 3.633C36.2672 3.224 36.2672 2.798 36.3162 2.389C36.4802 0.801996 37.2162 -0.0330043 38.3452 -4.29031e-06C39.3762 0.0329957 40.0632 0.801996 40.2432 2.258L40.5872 6.251L40.6032 11.521C40.6032 11.505 40.5872 11.505 40.5872 11.505L40.5862 11.506ZM29.0842 19.574C28.6422 20.049 28.2002 20.834 27.5622 21.096C26.4652 21.538 25.5822 20.916 25.2222 19.82L23.4062 13.814C23.2422 13.258 23.0952 12.685 23.0462 12.096C22.9152 10.672 23.4552 9.789 24.5192 9.543C25.5992 9.298 26.5152 9.838 26.9082 11.212L29.0852 19.575L29.0842 19.574ZM15.7452 25.269C15.0412 24.893 14.4682 24.713 14.0432 24.353L9.55916 20.326C9.10116 19.884 8.70816 19.279 8.52816 18.673C8.25016 17.724 8.47916 16.66 9.41216 16.3C10.0502 16.055 11.1472 16.202 11.6702 16.627C13.4583 18.1369 15.1475 19.7602 16.7272 21.487C17.2022 21.994 17.3982 23.042 17.2512 23.745C17.1362 24.318 16.3022 24.743 15.7452 25.267V25.269ZM55.0082 10.671L53.3392 17.037C52.9792 18.232 52.0132 18.739 51.0812 18.477C50.1322 18.215 49.7392 17.348 50.0502 16.071L51.6052 9.787C51.9652 8.494 52.8162 8.036 53.7982 8.38C54.8132 8.724 55.1722 9.493 55.0082 10.671ZM61.1772 17.692C60.0152 17.774 59.0492 16.923 59.4262 16.039C60.2612 14.075 61.3082 12.21 62.4212 10.393C62.6172 10.066 63.7302 10 64.2052 10.262C64.6802 10.524 65.2692 11.506 65.1212 11.817C64.1882 13.732 63.0592 15.548 61.9462 17.365C61.7992 17.578 61.3412 17.61 61.1772 17.692ZM33.8452 47.919L43.2552 37.216C44.0242 36.381 45.0552 35.661 46.1022 35.219C48.8352 34.057 51.4862 35.677 51.7482 38.623C51.8462 39.769 51.7642 40.996 51.4372 42.092C50.7822 44.334 49.9812 46.543 49.0972 48.703L43.1892 62.533L41.2912 66.346C39.7042 68.948 37.3962 69.848 34.6472 68.588C32.4518 67.5786 30.395 66.2918 28.5272 64.759C25.6142 62.386 23.1432 59.571 21.0482 56.413C17.9552 51.749 20.0332 47.232 25.6302 46.79C27.0372 46.676 28.4782 46.823 29.8692 47.019C31.2602 47.215 32.6172 47.641 33.8452 47.919Z" fill="#3FCFFD"/>
</svg>
