<svg width="56" height="56" viewBox="0 0 56 56" fill="none" xmlns="http://www.w3.org/2000/svg">
<path opacity="0.4" d="M49 4.66669V32.9C49 37.3334 46.6667 39.6667 42.2333 39.6667H13.7667C9.33332 39.6667 7 37.3334 7 32.9V4.66669H49Z" fill="#3FCFFD"/>
<path d="M51.3337 6.41669H4.66699C3.71033 6.41669 2.91699 5.62335 2.91699 4.66669C2.91699 3.71002 3.71033 2.91669 4.66699 2.91669H51.3337C52.2903 2.91669 53.0837 3.71002 53.0837 4.66669C53.0837 5.62335 52.2903 6.41669 51.3337 6.41669Z" fill="#3FCFFD"/>
<path d="M38.8963 52.1267C38.593 52.7333 37.963 53.0834 37.333 53.0834C37.0763 53.0834 36.7963 53.0134 36.563 52.8967L27.9996 48.6267L19.4363 52.8967C19.2029 53.0134 18.923 53.0834 18.6663 53.0834C18.0363 53.0834 17.4063 52.7333 17.1029 52.1267C16.6596 51.24 17.0097 50.19 17.8963 49.77L26.2496 45.5934V39.6667H29.7496V45.5934L38.1029 49.77C38.9896 50.19 39.3397 51.24 38.8963 52.1267Z" fill="#3FCFFD"/>
<path d="M17.4995 27.4166C17.0095 27.4166 16.4962 27.2066 16.1462 26.7866C15.5162 26.04 15.6328 24.9433 16.3795 24.3133L23.7295 18.1766C24.4062 17.6166 25.2695 17.3833 26.0862 17.5233C26.9262 17.6633 27.6495 18.1766 28.0929 18.9232L30.5428 23.0066L37.3795 17.3133C38.1261 16.6833 39.2228 16.7999 39.8528 17.5466C40.4828 18.2933 40.3662 19.3899 39.6195 20.0199L32.2695 26.1566C31.5928 26.7166 30.7295 26.9499 29.9129 26.8099C29.0729 26.6699 28.3495 26.1567 27.9061 25.41L25.4562 21.3267L18.6195 27.0199C18.2929 27.2766 17.8962 27.4166 17.4995 27.4166Z" fill="#3FCFFD"/>
</svg>
