<svg width="56" height="56" viewBox="0 0 56 56" fill="none" xmlns="http://www.w3.org/2000/svg">
<path opacity="0.4" d="M39.666 47.8333H16.3327C9.33268 47.8333 4.66602 44.3333 4.66602 36.1667V19.8333C4.66602 11.6667 9.33268 8.16667 16.3327 8.16667H39.666C46.666 8.16667 51.3327 11.6667 51.3327 19.8333V36.1667C51.3327 44.3333 46.666 47.8333 39.666 47.8333Z" fill="#FF3A3A"/>
<path d="M27.9992 30.03C26.0392 30.03 24.0558 29.4233 22.5392 28.1867L15.2358 22.3533C14.4892 21.7467 14.3492 20.65 14.9558 19.9033C15.5625 19.1567 16.6592 19.0167 17.4058 19.6233L24.7091 25.4567C26.4825 26.88 29.4925 26.88 31.2658 25.4567L38.5692 19.6233C39.3158 19.0167 40.4358 19.1333 41.0192 19.9033C41.6258 20.65 41.5092 21.77 40.7392 22.3533L33.4358 28.1867C31.9425 29.4233 29.9592 30.03 27.9992 30.03Z" fill="#FF3A3A"/>
</svg>
