<svg width="64" height="64" viewBox="0 0 64 64" fill="none" xmlns="http://www.w3.org/2000/svg">
<path opacity="0.4" d="M49.2542 44.8801L50.2942 53.3067C50.5609 55.52 48.1876 57.0666 46.2942 55.92L35.1209 49.28C33.8942 49.28 32.6942 49.2001 31.5209 49.0401C33.4942 46.7201 34.6676 43.7867 34.6676 40.6133C34.6676 33.04 28.1076 26.9068 20.0009 26.9068C16.9076 26.9068 14.0542 27.7867 11.6809 29.3334C11.6009 28.6667 11.5742 28 11.5742 27.3067C11.5742 15.1733 22.1076 5.33337 35.1209 5.33337C48.1342 5.33337 58.6676 15.1733 58.6676 27.3067C58.6676 34.5067 54.9609 40.8801 49.2542 44.8801Z" fill="#FF3AC8"/>
<path d="M34.6673 40.6133C34.6673 43.7866 33.494 46.72 31.5207 49.04C28.8807 52.24 24.694 54.2933 20.0007 54.2933L13.0406 58.4266C11.8673 59.1466 10.374 58.16 10.534 56.8L11.2006 51.5467C7.62731 49.0667 5.33398 45.0933 5.33398 40.6133C5.33398 35.9199 7.84066 31.7867 11.6807 29.3333C14.054 27.7867 16.9073 26.9067 20.0007 26.9067C28.1073 26.9067 34.6673 33.0399 34.6673 40.6133Z" fill="#FF3AC8"/>
</svg>
