<svg width="64" height="64" viewBox="0 0 64 64" fill="none" xmlns="http://www.w3.org/2000/svg">
<path opacity="0.4" d="M20.4002 55.7599C20.3202 55.7599 20.2135 55.8132 20.1335 55.8132C14.9602 53.2532 10.7468 49.0132 8.16016 43.8399C8.16016 43.7599 8.21349 43.6532 8.21349 43.5732C11.4668 44.5332 14.8268 45.2532 18.1602 45.8132C18.7468 49.1732 19.4402 52.5066 20.4002 55.7599Z" fill="#3FCFFD"/>
<path opacity="0.4" d="M55.8395 43.8666C53.1995 49.1732 48.7995 53.4666 43.4395 56.0532C44.4528 52.6666 45.3061 49.2532 45.8661 45.8132C49.2261 45.2532 52.5328 44.5332 55.7861 43.5732C55.7594 43.6799 55.8395 43.7866 55.8395 43.8666Z" fill="#3FCFFD"/>
<path opacity="0.4" d="M56.0528 20.5601C52.6928 19.5468 49.3061 18.7201 45.8661 18.1334C45.3061 14.6934 44.4795 11.2801 43.4395 7.94678C48.9595 10.5868 53.4128 15.0401 56.0528 20.5601Z" fill="#3FCFFD"/>
<path opacity="0.4" d="M20.4006 8.23991C19.4406 11.4932 18.7473 14.7999 18.1873 18.1599C14.7473 18.6932 11.3339 19.5466 7.94727 20.5599C10.5339 15.1999 14.8273 10.7999 20.1339 8.15991C20.2139 8.15991 20.3206 8.23991 20.4006 8.23991Z" fill="#3FCFFD"/>
<path d="M41.3067 17.5733C35.12 16.8799 28.88 16.8799 22.6934 17.5733C23.36 13.9199 24.2134 10.2666 25.4134 6.74659C25.4667 6.53325 25.44 6.37325 25.4667 6.15992C27.5734 5.65325 29.7334 5.33325 32 5.33325C34.24 5.33325 36.4267 5.65325 38.5067 6.15992C38.5334 6.37325 38.5334 6.53325 38.5867 6.74659C39.7867 10.2933 40.64 13.9199 41.3067 17.5733Z" fill="#3FCFFD"/>
<path d="M17.574 41.3067C13.894 40.64 10.2673 39.7867 6.74732 38.5867C6.53398 38.5334 6.37398 38.56 6.16065 38.5334C5.65398 36.4267 5.33398 34.2667 5.33398 32C5.33398 29.76 5.65398 27.5734 6.16065 25.4934C6.37398 25.4667 6.53398 25.4667 6.74732 25.4134C10.294 24.24 13.894 23.36 17.574 22.6934C16.9073 28.88 16.9073 35.12 17.574 41.3067Z" fill="#3FCFFD"/>
<path d="M58.6658 32C58.6658 34.2667 58.3458 36.4267 57.8391 38.5334C57.6258 38.56 57.4658 38.5334 57.2524 38.5867C53.7058 39.76 50.0791 40.64 46.4258 41.3067C47.1191 35.12 47.1191 28.88 46.4258 22.6934C50.0791 23.36 53.7324 24.2134 57.2524 25.4134C57.4658 25.4667 57.6258 25.4934 57.8391 25.4934C58.3458 27.6 58.6658 29.76 58.6658 32Z" fill="#3FCFFD"/>
<path d="M41.3067 46.4268C40.64 50.1068 39.7867 53.7334 38.5867 57.2534C38.5334 57.4668 38.5334 57.6268 38.5067 57.8401C36.4267 58.3468 34.24 58.6668 32 58.6668C29.7334 58.6668 27.5734 58.3468 25.4667 57.8401C25.44 57.6268 25.4667 57.4668 25.4134 57.2534C24.24 53.7068 23.36 50.1068 22.6934 46.4268C25.7867 46.7734 28.88 47.0134 32 47.0134C35.12 47.0134 38.24 46.7734 41.3067 46.4268Z" fill="#3FCFFD"/>
<path d="M42.0362 42.0355C35.3666 42.877 28.6347 42.877 21.9651 42.0355C21.1236 35.3659 21.1236 28.634 21.9651 21.9644C28.6347 21.1229 35.3666 21.1229 42.0362 21.9644C42.8777 28.634 42.8777 35.3659 42.0362 42.0355Z" fill="#3FCFFD"/>
</svg>
