<svg width="213" height="189" viewBox="0 0 213 189" fill="none" xmlns="http://www.w3.org/2000/svg">
<path d="M195.453 187.723C202.566 189.629 209.877 185.408 211.783 178.295C213.689 171.182 209.468 163.871 202.355 161.965C195.242 160.059 187.931 164.28 186.025 171.393C184.119 178.506 188.34 185.817 195.453 187.723ZM0.992922 24.1832C0.627974 25.5148 1.4116 26.8901 2.74321 27.2551L24.443 33.2023C25.7746 33.5672 27.1499 32.7836 27.5149 31.452C27.8798 30.1204 27.0962 28.745 25.7646 28.3801L6.4759 23.0937L11.7623 3.80499C12.1272 2.47339 11.3436 1.09806 10.012 0.733105C8.6804 0.368159 7.30506 1.15179 6.94012 2.48339L0.992922 24.1832ZM201.392 174.607C200.948 169.942 199.282 155.865 196.097 141.523C194.506 134.355 192.521 127.054 190.093 120.806C187.699 114.644 184.745 109.152 181.037 105.951L177.77 109.737C180.504 112.097 183.099 116.61 185.433 122.616C187.732 128.536 189.653 135.565 191.216 142.607C194.342 156.686 195.983 170.548 196.415 175.081L201.392 174.607ZM181.037 105.951C177.333 102.754 172.643 101.169 167.753 100.31C162.874 99.4531 157.527 99.2802 152.402 99.1004C147.195 98.9177 142.203 98.7279 137.705 97.9048C133.219 97.084 129.472 95.6723 126.653 93.2209L123.372 96.9942C127.137 100.268 131.871 101.92 136.805 102.823C141.726 103.724 147.093 103.917 152.227 104.097C157.443 104.28 162.419 104.45 166.888 105.235C171.347 106.018 175.031 107.373 177.77 109.737L181.037 105.951ZM126.653 93.2209C123.981 90.8982 122.018 86.5049 120.391 80.2785C118.784 74.1301 117.644 66.8267 116.218 59.055C114.808 51.3713 113.131 43.3247 110.454 36.0479C107.777 28.7726 104.034 22.076 98.3722 17.2416L95.1255 21.0441C99.8863 25.109 103.242 30.9266 105.761 37.7743C108.28 44.6206 109.896 52.306 111.3 59.9574C112.688 67.5209 113.884 75.1558 115.553 81.5431C117.203 87.8524 119.459 93.5923 123.372 96.9942L126.653 93.2209ZM98.3722 17.2416C87.4726 7.93505 74.2728 3.02146 58.2885 3.63317C42.3877 4.24169 23.8637 10.3092 2.16637 22.6718L4.64165 27.0161C25.9437 14.8788 43.6693 9.1963 58.4797 8.62952C73.2066 8.06594 85.1796 12.5518 95.1255 21.0441L98.3722 17.2416Z" fill="#31D2AC"/>
</svg>
