<svg width="574" height="264" viewBox="0 0 574 264" fill="none" xmlns="http://www.w3.org/2000/svg">
<g clip-path="url(#clip0_480_114)">
<path d="M571 3H269.31C241.695 3 219.31 25.3858 219.31 53V211C219.31 238.614 196.924 261 169.31 261H3" stroke="url(#paint0_radial_480_114)" stroke-width="6" stroke-linecap="round"/>
<g filter="url(#filter0_d_480_114)">
<path d="M324.559 87H109.151C104.809 87 101.289 90.5428 101.289 94.913V159.8C101.289 164.17 104.809 167.713 109.151 167.713H324.559C328.901 167.713 332.421 164.17 332.421 159.8V94.913C332.421 90.5428 328.901 87 324.559 87Z" fill="white"/>
</g>
<path d="M134.13 132.103L136.821 128.329L137.438 128.14C137.337 128.334 137.22 128.507 137.086 128.659C136.96 128.803 136.796 128.913 136.595 128.989C136.394 129.065 136.13 129.102 135.803 129.102C135.283 129.102 134.805 128.979 134.369 128.734C133.941 128.481 133.597 128.136 133.337 127.697C133.077 127.258 132.947 126.756 132.947 126.19C132.947 125.617 133.09 125.093 133.375 124.621C133.66 124.139 134.046 123.76 134.532 123.481C135.019 123.203 135.559 123.062 136.155 123.062C136.759 123.062 137.299 123.203 137.777 123.481C138.264 123.76 138.645 124.131 138.922 124.595C139.207 125.059 139.35 125.579 139.35 126.153C139.35 126.937 139.077 127.731 138.532 128.533L136.079 132.103H134.13ZM136.155 127.786C136.448 127.786 136.708 127.718 136.935 127.583C137.161 127.448 137.337 127.262 137.463 127.026C137.597 126.781 137.664 126.51 137.664 126.215C137.664 125.902 137.597 125.629 137.463 125.393C137.337 125.156 137.161 124.971 136.935 124.836C136.708 124.692 136.448 124.621 136.155 124.621C135.861 124.621 135.597 124.692 135.362 124.836C135.136 124.971 134.956 125.156 134.821 125.393C134.696 125.629 134.633 125.902 134.633 126.215C134.633 126.519 134.696 126.79 134.821 127.026C134.956 127.262 135.14 127.448 135.375 127.583C135.61 127.718 135.87 127.786 136.155 127.786ZM143.908 132.23C143.212 132.23 142.583 132.04 142.021 131.66C141.459 131.28 141.01 130.743 140.675 130.051C140.348 129.359 140.184 128.554 140.184 127.634C140.184 126.714 140.348 125.912 140.675 125.228C141.002 124.545 141.442 124.013 141.996 123.633C142.558 123.253 143.182 123.062 143.87 123.062C144.574 123.062 145.203 123.253 145.757 123.633C146.319 124.013 146.763 124.549 147.09 125.241C147.417 125.925 147.581 126.731 147.581 127.659C147.581 128.579 147.417 129.385 147.09 130.077C146.763 130.761 146.323 131.293 145.769 131.673C145.216 132.044 144.595 132.23 143.908 132.23ZM143.883 130.672C144.285 130.672 144.633 130.558 144.927 130.331C145.22 130.103 145.447 129.765 145.606 129.318C145.774 128.87 145.857 128.313 145.857 127.646C145.857 126.98 145.774 126.423 145.606 125.975C145.447 125.528 145.216 125.194 144.914 124.975C144.621 124.747 144.273 124.633 143.87 124.633C143.476 124.633 143.132 124.747 142.839 124.975C142.545 125.194 142.314 125.528 142.147 125.975C141.987 126.414 141.908 126.967 141.908 127.634C141.908 128.309 141.987 128.87 142.147 129.318C142.314 129.765 142.545 130.103 142.839 130.331C143.132 130.558 143.48 130.672 143.883 130.672ZM150.312 126.735C149.985 126.735 149.679 126.654 149.394 126.493C149.117 126.325 148.899 126.102 148.74 125.823C148.581 125.545 148.501 125.237 148.501 124.899C148.501 124.553 148.581 124.245 148.74 123.975C148.899 123.705 149.117 123.49 149.394 123.329C149.671 123.16 149.977 123.076 150.312 123.076C150.656 123.076 150.966 123.16 151.243 123.329C151.528 123.49 151.75 123.705 151.91 123.975C152.069 124.245 152.149 124.553 152.149 124.899C152.149 125.237 152.065 125.545 151.897 125.823C151.738 126.102 151.52 126.325 151.243 126.493C150.975 126.654 150.664 126.735 150.312 126.735ZM150.312 125.532C150.505 125.532 150.656 125.472 150.765 125.354C150.874 125.236 150.929 125.085 150.929 124.899C150.929 124.713 150.87 124.561 150.752 124.443C150.643 124.325 150.497 124.266 150.312 124.266C150.136 124.266 149.994 124.325 149.885 124.443C149.776 124.561 149.721 124.713 149.721 124.899C149.721 125.085 149.776 125.236 149.885 125.354C149.994 125.472 150.136 125.532 150.312 125.532ZM154.186 132.23C153.851 132.23 153.545 132.15 153.268 131.989C152.991 131.82 152.769 131.601 152.602 131.331C152.442 131.052 152.363 130.74 152.363 130.394C152.363 130.048 152.442 129.739 152.602 129.469C152.769 129.199 152.987 128.984 153.256 128.824C153.532 128.655 153.843 128.571 154.186 128.571C154.53 128.571 154.841 128.655 155.117 128.824C155.394 128.984 155.612 129.199 155.771 129.469C155.939 129.739 156.023 130.048 156.023 130.394C156.023 130.74 155.939 131.052 155.771 131.331C155.612 131.601 155.394 131.82 155.117 131.989C154.849 132.15 154.539 132.23 154.186 132.23ZM154.186 131.027C154.371 131.027 154.522 130.968 154.639 130.85C154.757 130.732 154.815 130.58 154.815 130.394C154.815 130.217 154.752 130.069 154.627 129.951C154.509 129.833 154.363 129.773 154.186 129.773C154.01 129.773 153.864 129.833 153.746 129.951C153.637 130.069 153.583 130.217 153.583 130.394C153.583 130.58 153.637 130.732 153.746 130.85C153.864 130.968 154.01 131.027 154.186 131.027ZM148.74 132.103L154.224 123.203H155.784L150.3 132.103H148.74Z" fill="#1D1D1D"/>
<path d="M172.045 127.36C172.045 142.656 159.726 155.056 144.529 155.056C129.333 155.056 117.014 142.656 117.014 127.36C117.014 112.064 129.333 99.6641 144.529 99.6641C159.726 99.6641 172.045 112.064 172.045 127.36ZM122.517 127.36C122.517 139.597 132.372 149.516 144.529 149.516C156.687 149.516 166.542 139.597 166.542 127.36C166.542 115.123 156.687 105.203 144.529 105.203C132.372 105.203 122.517 115.123 122.517 127.36Z" fill="#E7E7E7"/>
<path d="M163.5 143.382C164.664 144.365 164.825 146.124 163.737 147.192C159.997 150.861 155.282 153.397 150.133 154.475C144.082 155.742 137.783 154.922 132.252 152.146C126.721 149.37 122.279 144.801 119.643 139.174C117.006 133.547 116.329 127.191 117.719 121.13C119.109 115.068 122.487 109.654 127.307 105.76C132.127 101.867 138.109 99.7194 144.289 99.6651C150.47 99.6108 156.488 101.653 161.375 105.461C165.534 108.702 168.667 113.063 170.43 118.01C170.943 119.45 170.032 120.96 168.558 121.33C167.083 121.7 165.606 120.788 165.058 119.361C163.618 115.617 161.187 112.32 158.006 109.841C154.096 106.794 149.282 105.161 144.337 105.204C139.393 105.248 134.607 106.965 130.751 110.08C126.895 113.195 124.193 117.527 123.081 122.376C121.969 127.225 122.511 132.31 124.62 136.811C126.729 141.312 130.282 144.968 134.707 147.189C139.132 149.409 144.171 150.066 149.012 149.052C152.951 148.228 156.572 146.337 159.496 143.607C160.611 142.567 162.336 142.399 163.5 143.382Z" fill="#31D2AC"/>
<path d="M301.656 135.467V140.001H300.17V132.365H301.597V133.608H301.691C301.867 133.204 302.142 132.879 302.517 132.634C302.894 132.388 303.37 132.266 303.943 132.266C304.464 132.266 304.919 132.375 305.311 132.594C305.702 132.809 306.005 133.131 306.22 133.558C306.436 133.986 306.544 134.514 306.544 135.144V140.001H305.057V135.323C305.057 134.77 304.913 134.337 304.624 134.026C304.336 133.711 303.94 133.553 303.436 133.553C303.092 133.553 302.785 133.628 302.517 133.777C302.251 133.926 302.041 134.145 301.885 134.433C301.733 134.718 301.656 135.063 301.656 135.467Z" fill="black"/>
<path d="M296.683 140.004V132.367H298.17V140.004H296.683ZM297.434 131.189C297.175 131.189 296.953 131.103 296.768 130.93C296.585 130.755 296.494 130.546 296.494 130.304C296.494 130.059 296.585 129.85 296.768 129.678C296.953 129.502 297.175 129.414 297.434 129.414C297.692 129.414 297.913 129.502 298.095 129.678C298.281 129.85 298.373 130.059 298.373 130.304C298.373 130.546 298.281 130.755 298.095 130.93C297.913 131.103 297.692 131.189 297.434 131.189Z" fill="black"/>
<path d="M290.934 140.17C290.45 140.17 290.012 140.081 289.621 139.902C289.23 139.72 288.92 139.456 288.692 139.112C288.466 138.767 288.354 138.344 288.354 137.844C288.354 137.413 288.436 137.058 288.602 136.78C288.768 136.501 288.992 136.281 289.273 136.119C289.555 135.956 289.87 135.834 290.218 135.751C290.566 135.668 290.921 135.605 291.282 135.562C291.739 135.509 292.11 135.466 292.395 135.433C292.68 135.396 292.888 135.338 293.017 135.259C293.146 135.179 293.211 135.05 293.211 134.871V134.836C293.211 134.402 293.088 134.065 292.843 133.827C292.601 133.588 292.24 133.469 291.759 133.469C291.259 133.469 290.864 133.58 290.576 133.802C290.291 134.021 290.094 134.264 289.984 134.533L288.587 134.214C288.753 133.75 288.995 133.376 289.313 133.091C289.635 132.803 290.004 132.594 290.422 132.464C290.839 132.332 291.278 132.266 291.739 132.266C292.044 132.266 292.367 132.302 292.709 132.375C293.053 132.445 293.375 132.574 293.673 132.763C293.975 132.952 294.222 133.222 294.414 133.573C294.606 133.921 294.702 134.374 294.702 134.93V140.001H293.251V138.957H293.191C293.095 139.15 292.951 139.339 292.758 139.524C292.566 139.71 292.319 139.864 292.018 139.987C291.716 140.109 291.355 140.17 290.934 140.17ZM291.257 138.977C291.668 138.977 292.019 138.896 292.311 138.734C292.606 138.571 292.83 138.359 292.982 138.097C293.138 137.832 293.216 137.549 293.216 137.247V136.263C293.163 136.316 293.06 136.366 292.907 136.412C292.758 136.455 292.588 136.493 292.395 136.526C292.203 136.556 292.016 136.584 291.834 136.611C291.651 136.634 291.499 136.654 291.376 136.67C291.088 136.707 290.824 136.768 290.586 136.854C290.35 136.941 290.162 137.065 290.019 137.227C289.88 137.386 289.81 137.598 289.81 137.864C289.81 138.232 289.946 138.51 290.218 138.699C290.49 138.884 290.836 138.977 291.257 138.977Z" fill="black"/>
<path d="M283.273 143.024C282.667 143.024 282.145 142.945 281.707 142.786C281.273 142.626 280.918 142.416 280.643 142.154C280.368 141.892 280.163 141.606 280.027 141.294L281.304 140.767C281.394 140.913 281.513 141.067 281.662 141.229C281.815 141.395 282.02 141.536 282.279 141.652C282.541 141.768 282.877 141.826 283.288 141.826C283.851 141.826 284.317 141.688 284.685 141.413C285.053 141.142 285.237 140.707 285.237 140.111V138.609H285.142C285.053 138.772 284.924 138.952 284.755 139.151C284.589 139.35 284.36 139.522 284.069 139.668C283.777 139.814 283.397 139.887 282.93 139.887C282.327 139.887 281.783 139.746 281.299 139.464C280.819 139.179 280.438 138.76 280.156 138.207C279.877 137.65 279.738 136.965 279.738 136.153C279.738 135.341 279.876 134.645 280.151 134.065C280.429 133.485 280.81 133.041 281.294 132.733C281.778 132.421 282.327 132.266 282.94 132.266C283.414 132.266 283.797 132.345 284.088 132.504C284.38 132.66 284.607 132.842 284.77 133.051C284.935 133.26 285.063 133.444 285.152 133.603H285.262V132.365H286.718V140.17C286.718 140.827 286.566 141.365 286.261 141.786C285.956 142.207 285.543 142.519 285.023 142.721C284.506 142.923 283.923 143.024 283.273 143.024ZM283.258 138.654C283.686 138.654 284.047 138.555 284.342 138.356C284.64 138.154 284.866 137.865 285.018 137.491C285.174 137.113 285.252 136.661 285.252 136.134C285.252 135.62 285.176 135.167 285.023 134.776C284.871 134.385 284.647 134.08 284.352 133.862C284.057 133.639 283.692 133.528 283.258 133.528C282.811 133.528 282.438 133.644 282.14 133.876C281.841 134.105 281.616 134.417 281.463 134.811C281.314 135.205 281.24 135.646 281.24 136.134C281.24 136.634 281.316 137.073 281.468 137.451C281.621 137.829 281.846 138.124 282.145 138.336C282.446 138.548 282.817 138.654 283.258 138.654Z" fill="black"/>
<path d="M274.322 140.17C273.839 140.17 273.401 140.081 273.01 139.902C272.619 139.72 272.309 139.456 272.08 139.112C271.855 138.767 271.742 138.344 271.742 137.844C271.742 137.413 271.825 137.058 271.991 136.78C272.156 136.501 272.38 136.281 272.662 136.119C272.944 135.956 273.259 135.834 273.607 135.751C273.955 135.668 274.309 135.605 274.67 135.562C275.128 135.509 275.499 135.466 275.784 135.433C276.069 135.396 276.276 135.338 276.406 135.259C276.535 135.179 276.599 135.05 276.599 134.871V134.836C276.599 134.402 276.477 134.065 276.232 133.827C275.99 133.588 275.628 133.469 275.148 133.469C274.647 133.469 274.253 133.58 273.964 133.802C273.679 134.021 273.482 134.264 273.373 134.533L271.976 134.214C272.142 133.75 272.384 133.376 272.702 133.091C273.023 132.803 273.393 132.594 273.81 132.464C274.228 132.332 274.667 132.266 275.128 132.266C275.433 132.266 275.756 132.302 276.097 132.375C276.442 132.445 276.763 132.574 277.062 132.763C277.363 132.952 277.61 133.222 277.803 133.573C277.995 133.921 278.091 134.374 278.091 134.93V140.001H276.639V138.957H276.58C276.483 139.15 276.339 139.339 276.147 139.524C275.955 139.71 275.708 139.864 275.406 139.987C275.105 140.109 274.743 140.17 274.322 140.17ZM274.646 138.977C275.057 138.977 275.408 138.896 275.7 138.734C275.995 138.571 276.218 138.359 276.371 138.097C276.527 137.832 276.604 137.549 276.604 137.247V136.263C276.551 136.316 276.449 136.366 276.296 136.412C276.147 136.455 275.976 136.493 275.784 136.526C275.592 136.556 275.405 136.584 275.222 136.611C275.04 136.634 274.888 136.654 274.765 136.67C274.477 136.707 274.213 136.768 273.974 136.854C273.739 136.941 273.55 137.065 273.408 137.227C273.268 137.386 273.199 137.598 273.199 137.864C273.199 138.232 273.335 138.51 273.607 138.699C273.878 138.884 274.225 138.977 274.646 138.977Z" fill="black"/>
<path d="M266.613 134.229L265.266 134.468C265.209 134.296 265.12 134.132 264.997 133.976C264.878 133.82 264.716 133.692 264.51 133.593C264.305 133.494 264.048 133.444 263.74 133.444C263.319 133.444 262.967 133.538 262.686 133.727C262.404 133.913 262.263 134.153 262.263 134.448C262.263 134.703 262.357 134.909 262.546 135.065C262.735 135.22 263.04 135.348 263.461 135.447L264.674 135.726C265.377 135.888 265.901 136.138 266.245 136.477C266.59 136.815 266.762 137.254 266.762 137.794C266.762 138.251 266.63 138.659 266.365 139.017C266.103 139.372 265.736 139.65 265.266 139.852C264.798 140.054 264.257 140.156 263.64 140.156C262.785 140.156 262.087 139.973 261.547 139.609C261.007 139.241 260.675 138.719 260.553 138.043L261.99 137.824C262.079 138.198 262.263 138.482 262.541 138.674C262.82 138.863 263.183 138.957 263.63 138.957C264.117 138.957 264.507 138.856 264.798 138.654C265.09 138.449 265.236 138.198 265.236 137.903C265.236 137.665 265.146 137.464 264.968 137.302C264.792 137.139 264.522 137.017 264.157 136.934L262.865 136.651C262.152 136.488 261.625 136.23 261.284 135.875C260.945 135.52 260.776 135.071 260.776 134.528C260.776 134.077 260.902 133.683 261.154 133.344C261.406 133.006 261.754 132.743 262.198 132.554C262.642 132.362 263.151 132.266 263.725 132.266C264.55 132.266 265.2 132.445 265.673 132.803C266.147 133.157 266.461 133.633 266.613 134.229Z" fill="black"/>
<path d="M257.402 136.837V132.367H258.893V140.004H257.432V138.681H257.352C257.176 139.089 256.895 139.429 256.507 139.7C256.122 139.969 255.644 140.103 255.07 140.103C254.58 140.103 254.145 139.995 253.768 139.78C253.393 139.561 253.098 139.238 252.883 138.81C252.671 138.383 252.564 137.854 252.564 137.224V132.367H254.051V137.045C254.051 137.566 254.195 137.98 254.483 138.288C254.772 138.597 255.146 138.751 255.607 138.751C255.885 138.751 256.162 138.681 256.437 138.542C256.716 138.403 256.946 138.192 257.128 137.911C257.314 137.629 257.405 137.271 257.402 136.837Z" fill="black"/>
<path d="M243.64 140.156C242.924 140.156 242.299 139.991 241.765 139.663C241.232 139.335 240.818 138.876 240.523 138.286C240.228 137.696 240.08 137.007 240.08 136.218C240.08 135.426 240.228 134.733 240.523 134.14C240.818 133.547 241.232 133.086 241.765 132.758C242.299 132.43 242.924 132.266 243.64 132.266C244.356 132.266 244.98 132.43 245.514 132.758C246.048 133.086 246.462 133.547 246.757 134.14C247.052 134.733 247.199 135.426 247.199 136.218C247.199 137.007 247.052 137.696 246.757 138.286C246.462 138.876 246.048 139.335 245.514 139.663C244.98 139.991 244.356 140.156 243.64 140.156ZM243.645 138.908C244.109 138.908 244.493 138.785 244.798 138.54C245.103 138.295 245.328 137.968 245.474 137.56C245.623 137.153 245.698 136.704 245.698 136.213C245.698 135.726 245.623 135.278 245.474 134.871C245.328 134.46 245.103 134.13 244.798 133.881C244.493 133.633 244.109 133.509 243.645 133.509C243.177 133.509 242.79 133.633 242.481 133.881C242.176 134.13 241.949 134.46 241.8 134.871C241.654 135.278 241.581 135.726 241.581 136.213C241.581 136.704 241.654 137.153 241.8 137.56C241.949 137.968 242.176 138.295 242.481 138.54C242.79 138.785 243.177 138.908 243.645 138.908Z" fill="black"/>
<path d="M238.861 132.361V133.554H234.689V132.361H238.861ZM235.808 130.531H237.295V137.755C237.295 138.043 237.338 138.26 237.424 138.406C237.51 138.549 237.621 138.647 237.757 138.7C237.896 138.749 238.047 138.774 238.209 138.774C238.329 138.774 238.433 138.766 238.523 138.749C238.612 138.733 238.682 138.719 238.731 138.71L239 139.938C238.914 139.971 238.791 140.004 238.632 140.037C238.473 140.073 238.274 140.093 238.035 140.097C237.644 140.103 237.28 140.034 236.942 139.888C236.604 139.742 236.33 139.517 236.121 139.212C235.912 138.907 235.808 138.524 235.808 138.063V130.531Z" fill="black"/>
<path d="M224.711 135.467V140.001H223.225V132.365H224.651V133.608H224.746C224.922 133.204 225.197 132.879 225.571 132.634C225.949 132.388 226.425 132.266 226.998 132.266C227.518 132.266 227.974 132.375 228.365 132.594C228.756 132.809 229.06 133.131 229.275 133.558C229.49 133.986 229.598 134.514 229.598 135.144V140.001H228.112V135.323C228.112 134.77 227.968 134.337 227.679 134.026C227.391 133.711 226.995 133.553 226.491 133.553C226.146 133.553 225.84 133.628 225.571 133.777C225.306 133.926 225.096 134.145 224.94 134.433C224.787 134.718 224.711 135.063 224.711 135.467Z" fill="black"/>
<path d="M217.852 140.001V132.364H219.288V133.577H219.368C219.507 133.166 219.752 132.843 220.104 132.608C220.458 132.369 220.859 132.25 221.307 132.25C221.4 132.25 221.509 132.253 221.635 132.26C221.764 132.267 221.865 132.275 221.938 132.285V133.707C221.879 133.69 221.772 133.672 221.62 133.652C221.468 133.629 221.315 133.617 221.163 133.617C220.811 133.617 220.498 133.692 220.223 133.841C219.951 133.987 219.736 134.191 219.577 134.452C219.418 134.711 219.338 135.006 219.338 135.337V140.001H217.852Z" fill="black"/>
<path d="M214.363 136.837V132.367H215.854V140.004H214.393V138.681H214.313C214.137 139.089 213.856 139.429 213.468 139.7C213.083 139.969 212.604 140.103 212.031 140.103C211.541 140.103 211.106 139.995 210.729 139.78C210.354 139.561 210.059 139.238 209.844 138.81C209.631 138.383 209.525 137.854 209.525 137.224V132.367H211.012V137.045C211.012 137.566 211.156 137.98 211.444 138.288C211.733 138.597 212.107 138.751 212.568 138.751C212.846 138.751 213.123 138.681 213.398 138.542C213.677 138.403 213.907 138.192 214.089 137.911C214.275 137.629 214.366 137.271 214.363 136.837Z" fill="black"/>
<path d="M207.88 132.361V133.554H203.709V132.361H207.88ZM204.828 130.531H206.314V137.755C206.314 138.043 206.357 138.26 206.443 138.406C206.53 138.549 206.641 138.647 206.776 138.7C206.916 138.749 207.066 138.774 207.229 138.774C207.348 138.774 207.453 138.766 207.542 138.749C207.632 138.733 207.701 138.719 207.751 138.71L208.019 139.938C207.933 139.971 207.811 140.004 207.651 140.037C207.492 140.073 207.294 140.093 207.055 140.097C206.664 140.103 206.299 140.034 205.961 139.888C205.623 139.742 205.35 139.517 205.141 139.212C204.932 138.907 204.828 138.524 204.828 138.063V130.531Z" fill="black"/>
<path d="M199.39 140.156C198.638 140.156 197.99 139.995 197.446 139.673C196.906 139.348 196.488 138.893 196.193 138.306C195.902 137.716 195.756 137.025 195.756 136.233C195.756 135.451 195.902 134.761 196.193 134.165C196.488 133.568 196.899 133.103 197.426 132.768C197.957 132.433 198.576 132.266 199.286 132.266C199.717 132.266 200.134 132.337 200.539 132.479C200.943 132.622 201.306 132.846 201.627 133.151C201.949 133.455 202.202 133.852 202.388 134.339C202.574 134.823 202.666 135.411 202.666 136.104V136.631H196.596V135.517H201.21C201.21 135.126 201.13 134.78 200.971 134.478C200.812 134.173 200.588 133.933 200.3 133.757C200.015 133.581 199.68 133.494 199.296 133.494C198.878 133.494 198.513 133.596 198.202 133.802C197.894 134.004 197.655 134.269 197.486 134.597C197.32 134.922 197.237 135.275 197.237 135.656V136.526C197.237 137.037 197.327 137.471 197.506 137.829C197.688 138.187 197.942 138.46 198.267 138.649C198.591 138.835 198.971 138.928 199.405 138.928C199.687 138.928 199.944 138.888 200.176 138.808C200.408 138.725 200.608 138.603 200.777 138.44C200.946 138.278 201.075 138.077 201.165 137.839L202.572 138.092C202.459 138.507 202.257 138.87 201.965 139.181C201.677 139.489 201.314 139.73 200.877 139.902C200.442 140.071 199.947 140.156 199.39 140.156Z" fill="black"/>
<path d="M191 140.001V132.364H192.437V133.577H192.516C192.656 133.166 192.901 132.843 193.252 132.608C193.607 132.369 194.008 132.25 194.455 132.25C194.548 132.25 194.657 132.253 194.783 132.26C194.913 132.267 195.014 132.275 195.087 132.285V133.707C195.027 133.69 194.921 133.672 194.768 133.652C194.616 133.629 194.464 133.617 194.311 133.617C193.96 133.617 193.647 133.692 193.371 133.841C193.1 133.987 192.884 134.191 192.725 134.452C192.566 134.711 192.487 135.006 192.487 135.337V140.001H191Z" fill="black"/>
<path d="M277.332 119.229L275.985 119.468C275.928 119.296 275.839 119.132 275.716 118.976C275.597 118.82 275.434 118.692 275.229 118.593C275.023 118.494 274.767 118.444 274.458 118.444C274.037 118.444 273.686 118.538 273.404 118.727C273.123 118.913 272.982 119.153 272.982 119.448C272.982 119.703 273.076 119.909 273.265 120.065C273.454 120.22 273.759 120.348 274.18 120.447L275.393 120.726C276.096 120.888 276.619 121.138 276.964 121.477C277.309 121.815 277.481 122.254 277.481 122.794C277.481 123.251 277.348 123.659 277.083 124.017C276.821 124.372 276.455 124.65 275.985 124.852C275.517 125.054 274.975 125.156 274.359 125.156C273.504 125.156 272.806 124.973 272.266 124.609C271.726 124.241 271.394 123.719 271.271 123.043L272.708 122.824C272.798 123.198 272.982 123.482 273.26 123.674C273.539 123.863 273.901 123.957 274.349 123.957C274.836 123.957 275.226 123.856 275.517 123.654C275.809 123.449 275.955 123.198 275.955 122.903C275.955 122.665 275.865 122.464 275.686 122.302C275.511 122.139 275.24 122.017 274.876 121.934L273.583 121.651C272.871 121.488 272.344 121.23 272.002 120.875C271.664 120.52 271.495 120.071 271.495 119.528C271.495 119.077 271.621 118.683 271.873 118.344C272.125 118.006 272.473 117.743 272.917 117.554C273.361 117.362 273.87 117.266 274.443 117.266C275.269 117.266 275.918 117.445 276.392 117.803C276.866 118.157 277.179 118.633 277.332 119.229Z" fill="black"/>
<path d="M266.236 125.001V117.364H267.673V118.577H267.753C267.892 118.166 268.137 117.843 268.488 117.608C268.843 117.369 269.244 117.25 269.692 117.25C269.784 117.25 269.894 117.253 270.02 117.26C270.149 117.267 270.25 117.275 270.323 117.285V118.707C270.263 118.69 270.157 118.672 270.005 118.652C269.852 118.629 269.7 118.617 269.547 118.617C269.196 118.617 268.883 118.692 268.608 118.841C268.336 118.987 268.121 119.191 267.961 119.452C267.802 119.711 267.723 120.006 267.723 120.337V125.001H266.236Z" fill="black"/>
<path d="M261.31 125.156C260.558 125.156 259.91 124.995 259.366 124.673C258.826 124.348 258.408 123.893 258.113 123.306C257.822 122.716 257.676 122.025 257.676 121.233C257.676 120.451 257.822 119.761 258.113 119.165C258.408 118.568 258.819 118.103 259.346 117.768C259.877 117.433 260.496 117.266 261.206 117.266C261.636 117.266 262.054 117.337 262.458 117.479C262.863 117.622 263.226 117.846 263.547 118.151C263.869 118.455 264.122 118.852 264.308 119.339C264.493 119.823 264.586 120.411 264.586 121.104V121.631H258.516V120.517H263.13C263.13 120.126 263.05 119.78 262.891 119.478C262.732 119.173 262.508 118.933 262.22 118.757C261.935 118.581 261.6 118.494 261.216 118.494C260.798 118.494 260.433 118.596 260.122 118.802C259.814 119.004 259.575 119.269 259.406 119.597C259.24 119.922 259.157 120.275 259.157 120.656V121.526C259.157 122.037 259.247 122.471 259.426 122.829C259.608 123.187 259.862 123.46 260.186 123.649C260.511 123.835 260.891 123.928 261.325 123.928C261.607 123.928 261.864 123.888 262.096 123.808C262.328 123.725 262.528 123.603 262.697 123.44C262.866 123.278 262.995 123.077 263.085 122.839L264.492 123.092C264.379 123.507 264.177 123.87 263.885 124.181C263.597 124.489 263.234 124.73 262.797 124.902C262.362 125.071 261.867 125.156 261.31 125.156Z" fill="black"/>
<path d="M245.646 125.001V117.365H247.073V118.608H247.168C247.327 118.187 247.587 117.859 247.948 117.624C248.31 117.385 248.742 117.266 249.246 117.266C249.756 117.266 250.184 117.385 250.529 117.624C250.877 117.862 251.133 118.19 251.299 118.608H251.379C251.561 118.2 251.851 117.875 252.249 117.634C252.646 117.388 253.12 117.266 253.671 117.266C254.363 117.266 254.928 117.483 255.366 117.917C255.807 118.351 256.027 119.006 256.027 119.881V125.001H254.541V120.02C254.541 119.503 254.4 119.128 254.118 118.896C253.836 118.664 253.5 118.548 253.109 118.548C252.625 118.548 252.249 118.697 251.98 118.996C251.712 119.291 251.578 119.67 251.578 120.134V125.001H250.096V119.925C250.096 119.511 249.967 119.178 249.708 118.926C249.45 118.674 249.113 118.548 248.699 118.548C248.417 118.548 248.157 118.623 247.918 118.772C247.683 118.918 247.493 119.122 247.347 119.384C247.204 119.645 247.133 119.949 247.133 120.293V125.001H245.646Z" fill="black"/>
<path d="M240.427 125.156C239.711 125.156 239.086 124.991 238.553 124.663C238.019 124.335 237.605 123.876 237.31 123.286C237.015 122.696 236.867 122.007 236.867 121.218C236.867 120.426 237.015 119.733 237.31 119.14C237.605 118.547 238.019 118.086 238.553 117.758C239.086 117.43 239.711 117.266 240.427 117.266C241.143 117.266 241.768 117.43 242.301 117.758C242.835 118.086 243.249 118.547 243.544 119.14C243.839 119.733 243.987 120.426 243.987 121.218C243.987 122.007 243.839 122.696 243.544 123.286C243.249 123.876 242.835 124.335 242.301 124.663C241.768 124.991 241.143 125.156 240.427 125.156ZM240.432 123.908C240.896 123.908 241.28 123.785 241.585 123.54C241.89 123.295 242.116 122.968 242.261 122.56C242.411 122.153 242.485 121.704 242.485 121.213C242.485 120.726 242.411 120.278 242.261 119.871C242.116 119.46 241.89 119.13 241.585 118.881C241.28 118.633 240.896 118.509 240.432 118.509C239.964 118.509 239.577 118.633 239.268 118.881C238.964 119.13 238.737 119.46 238.587 119.871C238.442 120.278 238.369 120.726 238.369 121.213C238.369 121.704 238.442 122.153 238.587 122.56C238.737 122.968 238.964 123.295 239.268 123.54C239.577 123.785 239.964 123.908 240.432 123.908Z" fill="black"/>
<path d="M235.648 117.361V118.554H231.477V117.361H235.648ZM232.595 115.531H234.082V122.755C234.082 123.043 234.125 123.26 234.211 123.406C234.297 123.549 234.408 123.647 234.544 123.7C234.683 123.749 234.834 123.774 234.996 123.774C235.116 123.774 235.22 123.766 235.31 123.749C235.399 123.733 235.469 123.719 235.518 123.71L235.787 124.938C235.701 124.971 235.578 125.004 235.419 125.037C235.26 125.073 235.061 125.093 234.822 125.097C234.431 125.103 234.067 125.034 233.729 124.888C233.391 124.742 233.117 124.517 232.908 124.212C232.7 123.907 232.595 123.524 232.595 123.063V115.531Z" fill="black"/>
<path d="M230.301 119.229L228.953 119.468C228.897 119.296 228.807 119.132 228.685 118.976C228.566 118.82 228.403 118.692 228.198 118.593C227.992 118.494 227.735 118.444 227.427 118.444C227.006 118.444 226.655 118.538 226.373 118.727C226.091 118.913 225.95 119.153 225.95 119.448C225.95 119.703 226.045 119.909 226.234 120.065C226.423 120.22 226.728 120.348 227.149 120.447L228.362 120.726C229.064 120.888 229.588 121.138 229.933 121.477C230.277 121.815 230.45 122.254 230.45 122.794C230.45 123.251 230.317 123.659 230.052 124.017C229.79 124.372 229.424 124.65 228.953 124.852C228.486 125.054 227.944 125.156 227.328 125.156C226.472 125.156 225.775 124.973 225.235 124.609C224.694 124.241 224.363 123.719 224.24 123.043L225.677 122.824C225.767 123.198 225.95 123.482 226.229 123.674C226.507 123.863 226.87 123.957 227.318 123.957C227.805 123.957 228.194 123.856 228.486 123.654C228.778 123.449 228.923 123.198 228.923 122.903C228.923 122.665 228.834 122.464 228.655 122.302C228.479 122.139 228.209 122.017 227.845 121.934L226.552 121.651C225.839 121.488 225.312 121.23 224.971 120.875C224.633 120.52 224.464 120.071 224.464 119.528C224.464 119.077 224.59 118.683 224.842 118.344C225.094 118.006 225.442 117.743 225.886 117.554C226.33 117.362 226.839 117.266 227.412 117.266C228.237 117.266 228.887 117.445 229.361 117.803C229.835 118.157 230.148 118.633 230.301 119.229Z" fill="black"/>
<path d="M221.089 121.837V117.367H222.581V125.004H221.119V123.681H221.04C220.864 124.089 220.582 124.429 220.194 124.7C219.81 124.969 219.331 125.103 218.758 125.103C218.267 125.103 217.833 124.995 217.455 124.78C217.081 124.561 216.786 124.238 216.57 123.81C216.358 123.383 216.252 122.854 216.252 122.224V117.367H217.738V122.045C217.738 122.566 217.883 122.98 218.171 123.288C218.459 123.597 218.834 123.751 219.295 123.751C219.573 123.751 219.85 123.681 220.125 123.542C220.403 123.403 220.634 123.192 220.816 122.911C221.001 122.629 221.093 122.271 221.089 121.837Z" fill="black"/>
<path d="M211.525 125.156C210.785 125.156 210.149 124.988 209.615 124.653C209.085 124.315 208.677 123.85 208.392 123.256C208.107 122.663 207.965 121.984 207.965 121.218C207.965 120.442 208.111 119.758 208.402 119.165C208.694 118.568 209.105 118.103 209.635 117.768C210.166 117.433 210.79 117.266 211.51 117.266C212.09 117.266 212.607 117.373 213.061 117.589C213.515 117.801 213.881 118.099 214.159 118.484C214.441 118.868 214.609 119.317 214.662 119.831H213.215C213.135 119.473 212.953 119.165 212.668 118.906C212.386 118.648 212.008 118.518 211.534 118.518C211.12 118.518 210.757 118.628 210.446 118.847C210.137 119.062 209.897 119.37 209.725 119.771C209.552 120.169 209.466 120.64 209.466 121.183C209.466 121.74 209.551 122.221 209.72 122.625C209.889 123.029 210.127 123.343 210.436 123.565C210.747 123.787 211.114 123.898 211.534 123.898C211.816 123.898 212.071 123.846 212.3 123.744C212.532 123.638 212.726 123.487 212.882 123.291C213.041 123.096 213.152 122.86 213.215 122.585H214.662C214.609 123.079 214.448 123.52 214.179 123.908C213.911 124.295 213.551 124.6 213.1 124.822C212.653 125.045 212.128 125.156 211.525 125.156Z" fill="black"/>
<path d="M203.069 117.366V118.56H198.754V117.366H203.069ZM199.937 125.003V116.482C199.937 116.004 200.042 115.608 200.25 115.293C200.459 114.975 200.736 114.738 201.081 114.582C201.425 114.423 201.8 114.344 202.204 114.344C202.502 114.344 202.758 114.369 202.97 114.418C203.182 114.465 203.339 114.508 203.442 114.548L203.094 115.751C203.025 115.731 202.935 115.708 202.826 115.681C202.716 115.651 202.584 115.636 202.428 115.636C202.067 115.636 201.808 115.726 201.652 115.905C201.5 116.084 201.424 116.342 201.424 116.68V125.003H199.937Z" fill="black"/>
<path d="M194.216 125.156C193.5 125.156 192.875 124.991 192.342 124.663C191.808 124.335 191.394 123.876 191.099 123.286C190.804 122.696 190.656 122.007 190.656 121.218C190.656 120.426 190.804 119.733 191.099 119.14C191.394 118.547 191.808 118.086 192.342 117.758C192.875 117.43 193.5 117.266 194.216 117.266C194.932 117.266 195.557 117.43 196.09 117.758C196.624 118.086 197.038 118.547 197.333 119.14C197.628 119.733 197.776 120.426 197.776 121.218C197.776 122.007 197.628 122.696 197.333 123.286C197.038 123.876 196.624 124.335 196.09 124.663C195.557 124.991 194.932 125.156 194.216 125.156ZM194.221 123.908C194.685 123.908 195.069 123.785 195.374 123.54C195.679 123.295 195.905 122.968 196.05 122.56C196.2 122.153 196.274 121.704 196.274 121.213C196.274 120.726 196.2 120.278 196.05 119.871C195.905 119.46 195.679 119.13 195.374 118.881C195.069 118.633 194.685 118.509 194.221 118.509C193.754 118.509 193.366 118.633 193.058 118.881C192.753 119.13 192.526 119.46 192.376 119.871C192.231 120.278 192.158 120.726 192.158 121.213C192.158 121.704 192.231 122.153 192.376 122.56C192.526 122.968 192.753 123.295 193.058 123.54C193.366 123.785 193.754 123.908 194.221 123.908Z" fill="black"/>
</g>
<defs>
<filter id="filter0_d_480_114" x="61.2891" y="51" width="311.133" height="160.711" filterUnits="userSpaceOnUse" color-interpolation-filters="sRGB">
<feFlood flood-opacity="0" result="BackgroundImageFix"/>
<feColorMatrix in="SourceAlpha" type="matrix" values="0 0 0 0 0 0 0 0 0 0 0 0 0 0 0 0 0 0 127 0" result="hardAlpha"/>
<feOffset dy="4"/>
<feGaussianBlur stdDeviation="20"/>
<feComposite in2="hardAlpha" operator="out"/>
<feColorMatrix type="matrix" values="0 0 0 0 0.501961 0 0 0 0 0.419608 0 0 0 0 1 0 0 0 0.1 0"/>
<feBlend mode="normal" in2="BackgroundImageFix" result="effect1_dropShadow_480_114"/>
<feBlend mode="normal" in="SourceGraphic" in2="effect1_dropShadow_480_114" result="shape"/>
</filter>
<radialGradient id="paint0_radial_480_114" cx="0" cy="0" r="1" gradientUnits="userSpaceOnUse" gradientTransform="translate(233.5 3) scale(337.5 302.337)">
<stop stop-color="#806BFF"/>
<stop offset="1" stop-color="#806BFF" stop-opacity="0"/>
</radialGradient>
<clipPath id="clip0_480_114">
<rect width="574" height="264" fill="white"/>
</clipPath>
</defs>
</svg>
