<svg width="310" height="210" viewBox="0 0 310 210" fill="none" xmlns="http://www.w3.org/2000/svg">
<path d="M17.3749 209.223C10.2621 211.129 2.95089 206.908 1.045 199.795C-0.860896 192.682 3.36021 185.371 10.4731 183.465C17.586 181.559 24.8971 185.78 26.803 192.893C28.7089 200.006 24.4878 207.317 17.3749 209.223ZM309.628 20.6881C310.352 21.8635 309.987 23.4036 308.812 24.1281L289.658 35.9349C288.483 36.6595 286.943 36.294 286.218 35.1187C285.494 33.9433 285.859 32.4032 287.035 31.6787L304.06 21.1837L293.565 4.15854C292.84 2.9832 293.206 1.44305 294.381 0.718527C295.556 -0.00599902 297.097 0.359459 297.821 1.5348L309.628 20.6881ZM11.424 196.344C11.424 185.701 14.8671 168.303 21.6567 152.649C28.3854 137.135 38.7954 122.433 53.2743 118.537L54.5734 123.366C42.4559 126.626 32.8659 139.37 26.2438 154.638C19.6827 169.766 16.424 186.487 16.424 196.344L11.424 196.344ZM53.2743 118.537C67.0911 114.82 83.9089 116.821 99.1359 117.895C106.867 118.44 114.242 118.763 120.918 118.124C127.589 117.486 133.376 115.901 138.028 112.77L140.82 116.918C135.221 120.686 128.521 122.419 121.394 123.102C114.273 123.783 106.541 123.429 98.7841 122.882C83.0353 121.771 67.3532 119.927 54.5734 123.366L53.2743 118.537ZM138.028 112.77C147.743 106.231 155.056 95.2001 162.552 82.1872C169.955 69.3364 177.504 54.6103 187.605 41.609L191.553 44.6765C181.732 57.318 174.454 71.5435 166.884 84.6831C159.408 97.6606 151.604 109.659 140.82 116.918L138.028 112.77ZM187.605 41.609C208.44 14.7895 248.748 5.48945 308.077 19.5675L306.923 24.4324C248.252 10.5106 210.56 20.2105 191.553 44.6765L187.605 41.609Z" fill="#FF3AC8"/>
</svg>
