<svg width="118" height="118" viewBox="0 0 118 118" fill="none" xmlns="http://www.w3.org/2000/svg">
<path d="M58.5 30L59.0651 45.4197C59.3146 52.2256 64.7744 57.6854 71.5803 57.9348L87 58.5L71.5803 59.0651C64.7744 59.3146 59.3146 64.7744 59.0652 71.5803L58.5 87L57.9349 71.5803C57.6854 64.7744 52.2256 59.3146 45.4197 59.0652L30 58.5L45.4197 57.9349C52.2256 57.6854 57.6854 52.2256 57.9348 45.4197L58.5 30Z" fill="#EBC52A"/>
<path d="M38.8001 20.4031C38.6354 20.4816 38.479 20.5395 38.331 20.5769C38.1841 20.6167 38.0704 20.6377 37.99 20.6398L37.8251 19.6101C38.0524 19.5681 38.2429 19.506 38.3967 19.4237C38.5505 19.3414 38.6613 19.2162 38.729 19.0482C38.7992 18.8791 38.8213 18.6469 38.7952 18.3517L38.7525 17.9107L33.9473 13.1613L35.127 12.5992L38.655 16.3105L38.714 16.2824L38.0543 11.2045L39.2377 10.6406L39.9622 18.1711C39.9946 18.5176 39.9758 18.8326 39.9059 19.1163C39.8372 19.4023 39.7118 19.652 39.53 19.8654C39.3481 20.0787 39.1048 20.2579 38.8001 20.4031Z" fill="white"/>
<path d="M33.8742 20.7559C33.3684 21.0918 32.8569 21.2664 32.3397 21.2798C31.8232 21.2895 31.3326 21.156 30.8679 20.8796C30.4033 20.6032 29.997 20.203 29.6491 19.6791C29.2967 19.1483 29.0855 18.6137 29.0155 18.0752C28.9439 17.5344 29.0136 17.029 29.2243 16.559C29.4351 16.0889 29.7866 15.6905 30.2787 15.3637C30.6756 15.1001 31.0784 14.9389 31.487 14.88C31.8941 14.8188 32.2803 14.8565 32.6455 14.993C33.013 15.1281 33.3316 15.3594 33.6013 15.6868L32.6113 16.3442C32.3942 16.1354 32.1294 16.0073 31.8169 15.96C31.5067 15.9111 31.1894 15.9943 30.865 16.2097C30.5815 16.398 30.3829 16.6377 30.2691 16.929C30.1561 17.2165 30.1317 17.5366 30.196 17.8893C30.2588 18.2398 30.4137 18.601 30.6607 18.973C30.9137 19.354 31.19 19.6445 31.4894 19.8443C31.7888 20.0442 32.0944 20.1501 32.4062 20.162C32.7203 20.1724 33.0214 20.0819 33.3094 19.8907C33.5022 19.7627 33.6535 19.6115 33.7633 19.4373C33.8739 19.2593 33.938 19.068 33.9558 18.8634C33.9758 18.6573 33.9448 18.4458 33.8629 18.2289L34.8529 17.5715C35.041 17.9336 35.1313 18.3083 35.1238 18.6956C35.1163 19.083 35.0088 19.455 34.8013 19.8118C34.596 20.1671 34.287 20.4818 33.8742 20.7559Z" fill="white"/>
<path d="M24.8418 23.0264L27.3307 25.797L26.4223 26.613L22.2305 21.9466L23.1024 21.1634L23.7847 21.9229L23.8424 21.871C23.7278 21.5275 23.7176 21.178 23.8118 20.8226C23.908 20.4653 24.1314 20.1293 24.4817 19.8145C24.7997 19.5289 25.1382 19.3455 25.4973 19.2645C25.8546 19.1815 26.2164 19.2115 26.5827 19.3545C26.9491 19.4975 27.3051 19.7614 27.6508 20.1462L30.3171 23.1143L29.4087 23.9303L26.8406 21.0716C26.5368 20.7333 26.2113 20.5482 25.864 20.5161C25.515 20.482 25.1866 20.6032 24.8787 20.8797C24.6681 21.0689 24.5217 21.2828 24.4395 21.5213C24.3593 21.758 24.3508 22.0072 24.4139 22.2689C24.4772 22.5268 24.6198 22.7793 24.8418 23.0264Z" fill="white"/>
<path d="M23.8557 29.7177C23.4617 30.1938 23.0206 30.5196 22.5324 30.6952C22.0439 30.8669 21.5368 30.8924 21.0111 30.7718C20.485 30.6473 19.9713 30.3777 19.4701 29.9628C18.9752 29.5531 18.6153 29.0997 18.3906 28.6026C18.1676 28.1035 18.0882 27.5995 18.1524 27.0907C18.2183 26.5798 18.4371 26.1 18.8086 25.6512C19.0342 25.3785 19.2981 25.1516 19.6001 24.9704C19.902 24.7892 20.2337 24.6767 20.595 24.633C20.9564 24.5893 21.3398 24.6363 21.7453 24.774C22.1487 24.91 22.5696 25.1595 23.0079 25.5223L23.3414 25.7983L20.1619 29.6394L19.4572 29.0561L21.8737 26.1368C21.6262 25.9319 21.3654 25.8008 21.0912 25.7435C20.815 25.6845 20.5457 25.7002 20.2835 25.7906C20.0231 25.879 19.7922 26.0448 19.5908 26.2881C19.3721 26.5523 19.2461 26.8368 19.213 27.1416C19.1794 27.4426 19.2222 27.7324 19.3413 28.0113C19.46 28.2863 19.64 28.5236 19.8812 28.7232L20.4317 29.1789C20.7547 29.4463 21.0763 29.6171 21.3966 29.6913C21.7185 29.7634 22.0244 29.7462 22.314 29.6397C22.6016 29.5313 22.8591 29.3398 23.0865 29.0651C23.2341 28.8868 23.3435 28.7034 23.4147 28.515C23.4837 28.3248 23.5112 28.1336 23.4969 27.9416C23.4827 27.7496 23.4235 27.5628 23.3194 27.3812L24.2168 26.6237C24.4199 26.912 24.5437 27.23 24.588 27.5778C24.6321 27.9217 24.594 28.2772 24.4739 28.6443C24.3535 29.0076 24.1474 29.3654 23.8557 29.7177Z" fill="white"/>
<path d="M21.7598 36.7485C21.5026 37.1752 21.2252 37.5087 20.9278 37.7491C20.6317 37.9871 20.3333 38.1473 20.0324 38.2298C19.7316 38.3123 19.4427 38.3353 19.1659 38.2988L19.337 37.1764C19.4776 37.1753 19.6366 37.1567 19.8141 37.1207C19.9953 37.0837 20.1816 36.9989 20.3728 36.8662C20.5654 36.7312 20.7489 36.5191 20.9232 36.23C21.1621 35.8336 21.2628 35.4476 21.2253 35.0722C21.1901 34.6981 20.9627 34.3846 20.5429 34.1316L19.4867 33.4949L19.4466 33.5613C19.5229 33.6932 19.5952 33.8607 19.6634 34.064C19.733 34.2649 19.7573 34.4988 19.7362 34.7659C19.7151 35.0329 19.6055 35.3308 19.4073 35.6596C19.1515 36.0839 18.8219 36.4066 18.4185 36.6276C18.0142 36.8448 17.5576 36.9351 17.0488 36.8986C16.539 36.8584 15.9985 36.6661 15.4272 36.3217C14.8559 35.9774 14.4246 35.5855 14.1332 35.146C13.8432 34.7041 13.6924 34.2477 13.6808 33.7765C13.6668 33.304 13.7898 32.852 14.0498 32.4207C14.2508 32.0872 14.4691 31.8516 14.7047 31.7139C14.938 31.5748 15.1625 31.4924 15.3783 31.4667C15.5954 31.4386 15.7789 31.4269 15.9288 31.4314L15.9752 31.3544L15.1043 30.8295L15.722 29.8047L21.2132 33.1146C21.6748 33.3929 21.9891 33.7285 22.1559 34.1216C22.3227 34.5146 22.3669 34.937 22.2885 35.3888C22.2115 35.8383 22.0352 36.2915 21.7598 36.7485ZM18.6791 34.9059C18.8604 34.6051 18.9436 34.3088 18.9288 34.0169C18.9131 33.7213 18.8058 33.4405 18.607 33.1744C18.4072 32.9046 18.122 32.658 17.7512 32.4345C17.3898 32.2167 17.0392 32.0784 16.6994 32.0198C16.3596 31.9613 16.0502 31.9893 15.7713 32.1041C15.4899 32.2175 15.2572 32.4269 15.0731 32.7323C14.8834 33.0471 14.8069 33.3586 14.8436 33.6668C14.878 33.9737 15.0016 34.2643 15.2144 34.5388C15.4286 34.811 15.7071 35.0504 16.0499 35.257C16.402 35.4693 16.7433 35.6019 17.0737 35.6548C17.4042 35.7078 17.7073 35.6743 17.983 35.5544C18.2601 35.4322 18.4922 35.216 18.6791 34.9059Z" fill="white"/>
<path d="M16.4921 42.0807C16.3403 42.4481 16.1351 42.7522 15.8765 42.9929C15.6154 43.2326 15.3182 43.3852 14.9847 43.4507C14.6523 43.5136 14.2962 43.4666 13.9162 43.3096C13.5892 43.1744 13.3459 43.0002 13.1866 42.7871C13.0272 42.5739 12.9301 42.3349 12.8952 42.0701C12.8603 41.8053 12.866 41.5278 12.9122 41.2376C12.9585 40.9474 13.022 40.6584 13.1026 40.3706C13.2059 40.0068 13.2896 39.7114 13.3539 39.4846C13.4156 39.2568 13.4366 39.0814 13.4168 38.9583C13.3969 38.8352 13.3191 38.7456 13.1832 38.6894L13.1568 38.6785C12.8272 38.5423 12.5333 38.5298 12.2752 38.6411C12.0181 38.75 11.8142 38.9868 11.6634 39.3516C11.5064 39.7316 11.467 40.0658 11.5451 40.3544C11.6217 40.6394 11.7448 40.8655 11.9143 41.0328L11.2344 41.9935C10.9341 41.7221 10.7257 41.4209 10.6092 41.09C10.4911 40.7554 10.4486 40.4094 10.4815 40.0518C10.5118 39.6932 10.5993 39.339 10.7438 38.9892C10.8395 38.7578 10.9686 38.5239 11.131 38.2876C11.292 38.0477 11.491 37.8442 11.728 37.6771C11.9661 37.5074 12.2486 37.4047 12.5756 37.369C12.9001 37.3322 13.2737 37.4012 13.6964 37.5759L17.5461 39.1669L17.0907 40.2689L16.2981 39.9414L16.2794 39.9867C16.3951 40.12 16.4933 40.2887 16.5739 40.4928C16.6545 40.697 16.694 40.9328 16.6925 41.2003C16.691 41.4677 16.6242 41.7612 16.4921 42.0807ZM15.6877 41.4611C15.8166 41.1491 15.8652 40.8569 15.8334 40.5845C15.8027 40.3096 15.7119 40.0732 15.5609 39.8753C15.4085 39.6739 15.2178 39.5259 14.9888 39.4312L14.2415 39.1224C14.2652 39.1793 14.2707 39.2729 14.2581 39.4032C14.244 39.5299 14.2194 39.6715 14.1842 39.8278C14.1465 39.9831 14.1092 40.1341 14.0721 40.2808C14.0325 40.4265 13.9998 40.5484 13.9739 40.6467C13.9111 40.8771 13.875 41.0964 13.8655 41.3045C13.8571 41.5102 13.8922 41.6926 13.9708 41.8518C14.0479 42.0074 14.1871 42.1268 14.3884 42.21C14.6677 42.3254 14.9216 42.3096 15.1503 42.1625C15.3765 42.0144 15.5556 41.7806 15.6877 41.4611Z" fill="white"/>
<path d="M16.2898 51.4068C16.2024 51.8973 16.063 52.308 15.8713 52.639C15.6801 52.9672 15.4589 53.2237 15.2075 53.4085C14.9562 53.5932 14.6947 53.7181 14.4232 53.7832L14.181 52.674C14.3118 52.6226 14.4536 52.5483 14.6064 52.4511C14.7624 52.3517 14.9059 52.2058 15.0369 52.0134C15.1684 51.8183 15.2638 51.5546 15.323 51.2223C15.4041 50.7666 15.3599 50.3702 15.1904 50.0331C15.0235 49.6964 14.6989 49.4851 14.2164 49.3993L13.0022 49.1831L12.9886 49.2595C13.1071 49.3552 13.2345 49.4858 13.371 49.6511C13.508 49.8138 13.6144 50.0235 13.6904 50.2804C13.7663 50.5373 13.7707 50.8547 13.7034 51.2326C13.6165 51.7204 13.4244 52.1397 13.1269 52.4905C12.8272 52.8381 12.4332 53.086 11.945 53.2341C11.4546 53.3791 10.8811 53.3932 10.2244 53.2763C9.5677 53.1594 9.02462 52.9479 8.59516 52.6419C8.16617 52.3333 7.86187 51.9611 7.68227 51.5254C7.49998 51.0892 7.45297 50.6231 7.54125 50.1273C7.60949 49.744 7.72893 49.4458 7.89958 49.2329C8.06755 49.0194 8.24766 48.8621 8.43991 48.7608C8.63263 48.6568 8.79977 48.5801 8.94131 48.5307L8.95706 48.4422L7.95593 48.264L8.16565 47.0859L14.478 48.2097C15.0087 48.3042 15.4223 48.505 15.7188 48.8122C16.0153 49.1194 16.2079 49.498 16.2965 49.9479C16.3855 50.3952 16.3833 50.8815 16.2898 51.4068ZM12.7535 50.7897C12.8151 50.444 12.7867 50.1375 12.6683 49.8703C12.5478 49.5999 12.347 49.3762 12.0661 49.1989C11.7829 49.0186 11.4283 48.8904 11.0021 48.8146C10.5866 48.7406 10.2098 48.7371 9.87156 48.8041C9.53332 48.8711 9.25452 49.0081 9.03514 49.2152C8.81308 49.4218 8.6708 49.7006 8.60829 50.0518C8.54387 50.4136 8.584 50.7319 8.72868 51.0065C8.87068 51.2807 9.09019 51.5078 9.38721 51.6879C9.6847 51.8653 10.0305 51.989 10.4245 52.0592C10.8292 52.1312 11.1953 52.1328 11.5229 52.0639C11.8504 51.995 12.1214 51.8552 12.3359 51.6445C12.5508 51.4311 12.6901 51.1462 12.7535 50.7897Z" fill="white"/>
<path d="M9.38863 59.0919L13.1117 59.1914L13.0791 60.412L6.80864 60.2445L6.83993 59.0729L7.86052 59.1001L7.86259 59.0226C7.53441 58.8695 7.27373 58.6365 7.08055 58.3235C6.88744 58.0079 6.79717 57.6147 6.80975 57.1438C6.82116 56.7165 6.92096 56.3447 7.10916 56.0284C7.29464 55.712 7.56528 55.47 7.92109 55.3025C8.2769 55.1349 8.71335 55.0581 9.23045 55.0719L13.2189 55.1784L13.1863 56.399L9.34481 56.2964C8.89031 56.2843 8.53199 56.3932 8.26984 56.6231C8.00496 56.853 7.867 57.1748 7.85596 57.5885C7.8484 57.8715 7.90291 58.1249 8.01949 58.3486C8.13615 58.5696 8.31116 58.7472 8.54452 58.8815C8.77523 59.0129 9.0566 59.0831 9.38863 59.0919Z" fill="white"/>
<path d="M13.2209 63.264L6.96836 63.7667L6.87051 62.5496L13.1231 62.0469L13.2209 63.264ZM5.95419 63.2296C5.97121 63.4413 5.91527 63.6288 5.78638 63.7921C5.65455 63.9529 5.48958 64.0413 5.29147 64.0572C5.09065 64.0734 4.91368 64.0125 4.76057 63.8746C4.60452 63.7342 4.51798 63.5581 4.50097 63.3465C4.48395 63.1348 4.54135 62.9485 4.67318 62.7877C4.80208 62.6244 4.96694 62.5347 5.16776 62.5185C5.36586 62.5026 5.54294 62.5648 5.69899 62.7052C5.85211 62.8432 5.93718 63.0179 5.95419 63.2296Z" fill="white"/>
<path d="M7.16993 65.5702L8.13838 65.4194L8.66534 68.805L7.69689 68.9557L7.16993 65.5702ZM6.07061 68.2789L5.88281 67.0724L11.746 66.1598C11.98 66.1234 12.1508 66.061 12.2583 65.9726C12.3631 65.8847 12.4284 65.7822 12.4543 65.6652C12.477 65.5459 12.4782 65.4204 12.4576 65.2886C12.4426 65.1917 12.4226 65.108 12.3979 65.0375C12.3731 64.967 12.3536 64.9121 12.3392 64.873L13.302 64.5C13.3398 64.5658 13.3822 64.6611 13.4292 64.786C13.4789 64.9106 13.5201 65.0695 13.553 65.2627C13.6078 65.5793 13.5973 65.884 13.5217 66.1769C13.446 66.4697 13.2976 66.7201 13.0765 66.9281C12.8554 67.1361 12.5579 67.2692 12.184 67.3274L6.07061 68.2789Z" fill="white"/>
<path d="M14.9447 71.372C15.1134 71.9666 15.1317 72.5147 14.9996 73.0163C14.8641 73.5161 14.5976 73.9483 14.2002 74.3129C13.7994 74.6757 13.2861 74.946 12.6601 75.1236C12.042 75.2991 11.4645 75.3384 10.9277 75.2418C10.3901 75.1425 9.92991 74.9221 9.54719 74.5808C9.16372 74.2368 8.89245 73.7846 8.73337 73.2241C8.63674 72.8836 8.59939 72.5376 8.62132 72.1861C8.64325 71.8346 8.73864 71.4977 8.9075 71.1752C9.07635 70.8528 9.33246 70.5636 9.67584 70.3077C10.0166 70.0525 10.4607 69.8472 11.0081 69.6918L11.4245 69.5736L12.7859 74.3705L11.9059 74.6203L10.8712 70.9745C10.5621 71.0622 10.3063 71.2027 10.1036 71.3961C9.89835 71.5902 9.75864 71.8209 9.6845 72.0881C9.60962 72.3528 9.61529 72.637 9.70152 72.9408C9.79518 73.2708 9.95814 73.5359 10.1904 73.736C10.4193 73.9342 10.6823 74.0633 10.9795 74.1233C11.2734 74.1814 11.5709 74.1677 11.8721 74.0822L12.5596 73.8871C12.9629 73.7726 13.286 73.6045 13.5287 73.3828C13.7707 73.1585 13.9299 72.8968 14.0063 72.5978C14.0801 72.2995 14.0684 71.9788 13.971 71.6357C13.9078 71.413 13.8188 71.219 13.7039 71.0535C13.5864 70.8887 13.4445 70.7578 13.2782 70.6606C13.112 70.5635 12.9245 70.5063 12.7159 70.4891L12.6007 69.3204C12.9534 69.3166 13.2855 69.3949 13.5971 69.5556C13.9054 69.7143 14.1766 69.9472 14.411 70.2542C14.6419 70.5594 14.8198 70.932 14.9447 71.372Z" fill="white"/>
<path d="M15.5499 79.4916L14.1918 80.106L14.1054 79.9121L10.6632 78.7103L10.0679 77.375L13.9887 78.7479L14.0669 78.9232L15.5499 79.4916ZM17.9505 79.6509L10.3117 83.0566L9.81445 81.9414L17.4533 78.5357L17.9505 79.6509ZM16.3374 76.0329L14.5292 79.2983L13.4071 78.8775L15.7271 74.6641L16.3374 76.0329Z" fill="white"/>
<path d="M20.108 83.497L14.7052 86.684L14.1055 85.6674L14.9638 85.1612L14.9306 85.1049C14.5817 85.1779 14.2507 85.1393 13.9376 84.9889C13.6208 84.8376 13.369 84.6036 13.1822 84.2871C13.1435 84.2214 13.1002 84.1426 13.0523 84.0508C13.0031 83.9565 12.9668 83.8816 12.9434 83.8258L13.9494 83.2324C13.9625 83.2815 13.9939 83.3642 14.0435 83.4804C14.0907 83.5979 14.1461 83.7106 14.2097 83.8185C14.3563 84.0671 14.5398 84.2575 14.7601 84.3899C14.9767 84.5213 15.2109 84.5887 15.4625 84.592C15.7118 84.5967 15.9537 84.5298 16.1882 84.3915L19.4876 82.4453L20.108 83.497Z" fill="white"/>
<path d="M23 87.2124C23.2412 87.5283 23.4008 87.8586 23.4788 88.2032C23.5547 88.5494 23.5371 88.8831 23.426 89.2042C23.3132 89.5232 23.0935 89.8073 22.7667 90.0568C22.4853 90.2715 22.2125 90.3941 21.9481 90.4247C21.6837 90.4552 21.4283 90.419 21.1818 90.316C20.9354 90.213 20.6984 90.0685 20.4708 89.8825C20.2433 89.6966 20.0254 89.4964 19.8172 89.282C19.5547 89.0098 19.3415 88.7888 19.1778 88.6192C19.012 88.4513 18.8709 88.3449 18.7545 88.3002C18.6381 88.2554 18.5215 88.2776 18.4047 88.3668L18.3819 88.3842C18.0984 88.6006 17.9399 88.8483 17.9063 89.1274C17.8711 89.4043 17.9732 89.6997 18.2127 90.0135C18.4621 90.3403 18.7312 90.5425 19.0199 90.6201C19.3048 90.6972 19.5622 90.7045 19.792 90.6422L20.2804 91.7129C19.8949 91.836 19.5297 91.8647 19.185 91.799C18.8365 91.7327 18.516 91.5955 18.2235 91.3872C17.9288 91.1806 17.6666 90.9269 17.437 90.6261C17.285 90.427 17.1478 90.1978 17.0253 89.9385C16.8989 89.6788 16.8231 89.4044 16.7978 89.1155C16.7708 88.8244 16.8242 88.5286 16.9578 88.2279C17.0892 87.929 17.3367 87.6407 17.7003 87.3632L21.0115 84.8359L21.735 85.7839L21.0533 86.3042L21.083 86.3431C21.2564 86.3101 21.4516 86.3101 21.6686 86.3431C21.8856 86.3761 22.1093 86.4605 22.3397 86.5964C22.5701 86.7322 22.7902 86.9375 23 87.2124ZM22.0598 87.596C21.855 87.3277 21.6269 87.1387 21.3755 87.0292C21.1224 86.9175 20.8724 86.8772 20.6255 86.9081C20.3747 86.9385 20.1508 87.0289 19.9539 87.1792L19.3111 87.6698C19.3722 87.678 19.4559 87.7203 19.5621 87.7968C19.6646 87.8727 19.7746 87.9651 19.892 88.0741C20.0073 88.1848 20.119 88.293 20.2272 88.3989C20.3332 88.5063 20.4222 88.596 20.4941 88.6678C20.6616 88.8379 20.833 88.9794 21.0082 89.0923C21.1817 89.203 21.357 89.2644 21.5341 89.2765C21.7074 89.2881 21.8806 89.2278 22.0537 89.0957C22.2939 88.9123 22.408 88.6849 22.3959 88.4132C22.3816 88.1433 22.2696 87.8709 22.0598 87.596Z" fill="white"/>
<path d="M31.3883 95.6767L27.1663 100.316L26.2995 99.5271L26.9866 98.772L26.9293 98.7198C26.5999 98.8875 26.2604 98.943 25.9108 98.8862C25.5594 98.8315 25.2307 98.6648 24.9246 98.3863C24.6145 98.1041 24.4208 97.7952 24.3433 97.4597C24.2638 97.1223 24.2892 96.7809 24.4194 96.4356L24.3711 96.3916C24.0349 96.5385 23.6792 96.5755 23.3038 96.5026C22.9265 96.4317 22.5708 96.2442 22.2366 95.94C21.8157 95.557 21.5924 95.1127 21.5667 94.607C21.539 94.0995 21.767 93.58 22.2507 93.0484L25.0819 89.9375L25.9849 90.7594L23.2308 93.7857C22.9449 94.0998 22.8234 94.4052 22.8663 94.7019C22.9092 94.9986 23.0494 95.2551 23.287 95.4713C23.581 95.7389 23.892 95.8562 24.22 95.8234C24.5462 95.7927 24.8376 95.6363 25.0941 95.3544L27.7851 92.3976L28.6851 93.2167L25.8787 96.3004C25.6496 96.5521 25.544 96.8259 25.5618 97.1219C25.5796 97.4178 25.7143 97.6804 25.966 97.9094C26.1372 98.0652 26.3365 98.1637 26.5639 98.205C26.7875 98.2465 27.016 98.2281 27.2493 98.1496C27.4807 98.0694 27.6916 97.9245 27.8822 97.7151L30.4852 94.8549L31.3883 95.6767Z" fill="white"/>
<path d="M30.9609 105.549L35.2214 98.3516L36.2722 98.9736L32.0117 106.171L30.9609 105.549Z" fill="white"/>
<path d="M40.5792 100.885C40.9408 101.05 41.2373 101.266 41.4685 101.533C41.6986 101.803 41.8404 102.105 41.8938 102.441C41.9447 102.776 41.8848 103.13 41.7141 103.504C41.5672 103.826 41.3844 104.063 41.1656 104.214C40.9468 104.366 40.7045 104.454 40.4386 104.479C40.1727 104.505 39.8955 104.489 39.6072 104.432C39.3189 104.375 39.0324 104.302 38.7477 104.211C38.3878 104.094 38.0957 104 37.8714 103.928C37.646 103.858 37.4714 103.83 37.3476 103.846C37.2239 103.861 37.1316 103.936 37.0705 104.069L37.0587 104.095C36.9106 104.42 36.8876 104.713 36.9895 104.975C37.0889 105.236 37.3182 105.448 37.6774 105.612C38.0514 105.783 38.384 105.834 38.6752 105.767C38.9628 105.7 39.1933 105.586 39.3665 105.422L40.3021 106.136C40.02 106.427 39.7115 106.624 39.3765 106.728C39.0379 106.834 38.6906 106.864 38.3344 106.819C37.9771 106.775 37.6263 106.675 37.282 106.518C37.0541 106.414 36.8251 106.277 36.5948 106.106C36.3609 105.936 36.1648 105.73 36.0063 105.487C35.8453 105.243 35.7528 104.957 35.729 104.629C35.704 104.303 35.7864 103.932 35.9763 103.516L37.7053 99.7266L38.7902 100.222L38.4342 101.002L38.4788 101.022C38.6162 100.911 38.7883 100.819 38.9953 100.746C39.2022 100.673 39.4393 100.642 39.7065 100.653C39.9737 100.664 40.2646 100.742 40.5792 100.885ZM39.9309 101.667C39.6237 101.527 39.3335 101.467 39.0601 101.489C38.7843 101.51 38.5448 101.592 38.3416 101.736C38.1348 101.881 37.9799 102.066 37.8771 102.292L37.5415 103.027C37.5992 103.006 37.6929 103.004 37.8227 103.021C37.9488 103.04 38.0894 103.069 38.2443 103.11C38.3982 103.153 38.5477 103.196 38.693 103.239C38.8371 103.283 38.9578 103.32 39.0551 103.35C39.2831 103.421 39.5009 103.465 39.7086 103.482C39.9138 103.498 40.0974 103.469 40.2593 103.397C40.4176 103.325 40.5419 103.19 40.6323 102.992C40.7578 102.717 40.7511 102.463 40.6124 102.229C40.4726 101.998 40.2454 101.81 39.9309 101.667Z" fill="white"/>
<path d="M41.5254 108.246L41.8236 107.313L45.0875 108.355L44.7893 109.289L41.5254 108.246ZM43.4568 110.441L42.2936 110.069L44.0988 104.417C44.1709 104.191 44.1914 104.011 44.1605 103.875C44.1286 103.742 44.0662 103.638 43.9731 103.562C43.8766 103.488 43.7648 103.431 43.6377 103.391C43.5444 103.361 43.4606 103.341 43.3864 103.332C43.3123 103.322 43.2545 103.315 43.2131 103.311L43.3099 102.283C43.3856 102.278 43.4899 102.283 43.6226 102.297C43.7562 102.308 43.9168 102.342 44.1044 102.399C44.4121 102.492 44.68 102.638 44.9081 102.836C45.1361 103.035 45.2938 103.279 45.381 103.57C45.4682 103.861 45.4542 104.187 45.3391 104.547L43.4568 110.441Z" fill="white"/>
<path d="M48.9901 103.886L47.5306 109.986L46.3431 109.702L47.8025 103.602L48.9901 103.886ZM46.7057 110.784C46.9123 110.833 47.0732 110.945 47.1885 111.118C47.3006 111.293 47.3335 111.477 47.2873 111.671C47.2404 111.867 47.1277 112.016 46.9491 112.119C46.7672 112.224 46.5731 112.251 46.3665 112.202C46.16 112.153 46.0007 112.04 45.8886 111.865C45.7733 111.692 45.7391 111.507 45.7859 111.311C45.8322 111.118 45.9462 110.969 46.1281 110.864C46.3066 110.761 46.4992 110.735 46.7057 110.784Z" fill="white"/>
<path d="M53.706 102.059C54.2004 102.12 54.618 102.238 54.9587 102.412C55.2966 102.585 55.5645 102.792 55.7624 103.033C55.9603 103.275 56.099 103.529 56.1784 103.797L55.0838 104.098C55.0255 103.97 54.9437 103.832 54.8385 103.685C54.7309 103.534 54.5775 103.399 54.3784 103.278C54.1767 103.157 53.9083 103.076 53.5732 103.035C53.1139 102.978 52.7204 103.043 52.3928 103.23C52.0655 103.415 51.8718 103.75 51.8118 104.237L51.6606 105.461L51.7376 105.47C51.8269 105.347 51.9505 105.213 52.1083 105.068C52.2634 104.922 52.4672 104.805 52.7197 104.715C52.9721 104.626 53.2888 104.604 53.6698 104.651C54.1616 104.712 54.5906 104.882 54.9567 105.16C55.3198 105.441 55.5883 105.821 55.7623 106.301C55.9332 106.783 55.9778 107.355 55.896 108.017C55.8143 108.679 55.6321 109.232 55.3494 109.677C55.0641 110.122 54.7086 110.446 54.2831 110.648C53.8572 110.854 53.3944 110.925 52.8945 110.864C52.5081 110.816 52.204 110.713 51.9823 110.554C51.7602 110.397 51.5935 110.226 51.4821 110.039C51.368 109.852 51.2825 109.689 51.2255 109.551L51.1364 109.54L51.0118 110.549L49.8242 110.402L50.61 104.039C50.676 103.504 50.8545 103.08 51.1455 102.768C51.4364 102.455 51.8042 102.243 52.2488 102.131C52.6906 102.018 53.1764 101.994 53.706 102.059ZM53.2782 105.624C52.9297 105.581 52.6251 105.625 52.3646 105.758C52.1011 105.892 51.8883 106.105 51.7263 106.395C51.5613 106.687 51.4523 107.048 51.3992 107.478C51.3475 107.897 51.3641 108.273 51.449 108.607C51.534 108.941 51.6856 109.213 51.9041 109.421C52.1222 109.631 52.4083 109.759 52.7622 109.802C53.127 109.847 53.4427 109.79 53.7092 109.631C53.9754 109.475 54.1905 109.243 54.3545 108.937C54.5158 108.631 54.621 108.279 54.67 107.882C54.7204 107.474 54.7025 107.108 54.6162 106.785C54.5299 106.461 54.3759 106.198 54.1541 105.995C53.9295 105.792 53.6376 105.668 53.2782 105.624Z" fill="white"/>
<path d="M58.8679 104.969L58.7857 111.241L57.5647 111.225L57.6469 104.953L58.8679 104.969ZM58.1564 112.201C58.3687 112.204 58.5502 112.277 58.7008 112.421C58.8486 112.567 58.9212 112.739 58.9186 112.938C58.916 113.139 58.8389 113.31 58.6873 113.45C58.5329 113.592 58.3496 113.662 58.1373 113.659C57.9249 113.656 57.7448 113.582 57.597 113.435C57.4464 113.292 57.3724 113.119 57.3751 112.918C57.3777 112.719 57.4561 112.549 57.6105 112.406C57.7621 112.267 57.944 112.198 58.1564 112.201Z" fill="white"/>
<path d="M63.6828 104.489C64.1871 104.442 64.649 104.529 65.0687 104.75C65.4859 104.974 65.8292 105.315 66.0986 105.774C66.3656 106.236 66.5304 106.805 66.5929 107.48C66.6555 108.155 66.5964 108.743 66.4159 109.243C66.2326 109.744 65.9549 110.14 65.5827 110.432C65.2105 110.723 64.7736 110.892 64.2721 110.939C63.8845 110.975 63.5667 110.939 63.3188 110.83C63.0684 110.725 62.8702 110.593 62.7243 110.434C62.5756 110.276 62.4587 110.135 62.3734 110.011L62.3002 110.018L62.5869 113.113L61.371 113.225L60.5996 104.897L61.787 104.787L61.877 105.759L61.9787 105.75C62.0396 105.61 62.1312 105.449 62.2537 105.265C62.3734 105.082 62.5466 104.915 62.7734 104.766C63.0002 104.616 63.3033 104.524 63.6828 104.489ZM63.5105 105.551C63.1608 105.583 62.8738 105.703 62.6496 105.909C62.423 106.119 62.2626 106.395 62.1686 106.737C62.0718 107.08 62.0437 107.471 62.0844 107.91C62.1246 108.343 62.2221 108.717 62.3769 109.031C62.5318 109.345 62.7382 109.581 62.9963 109.741C63.2544 109.9 63.5611 109.963 63.9162 109.93C64.2822 109.896 64.5784 109.773 64.8048 109.561C65.0312 109.348 65.1915 109.072 65.2858 108.733C65.3775 108.393 65.4042 108.018 65.366 107.606C65.3273 107.188 65.2302 106.819 65.0746 106.497C64.919 106.175 64.7102 105.928 64.4481 105.755C64.1836 105.585 63.8711 105.517 63.5105 105.551Z" fill="white"/>
<path d="M81.5817 96.2484C81.741 96.1597 81.8934 96.092 82.0388 96.0453C82.1829 95.9963 82.295 95.9681 82.3751 95.9609L82.6049 96.9782C82.3807 97.0344 82.1945 97.1085 82.0462 97.2004C81.8979 97.2923 81.7953 97.4242 81.7383 97.5961C81.679 97.7694 81.6717 98.0025 81.7163 98.2954L81.7869 98.7329L86.8831 103.169L85.7413 103.804L81.9855 100.324L81.9284 100.355L82.9081 105.381L81.7628 106.019L80.5631 98.5495C80.5088 98.2058 80.5076 97.8902 80.5595 97.6027C80.61 97.3128 80.7193 97.0557 80.8872 96.8313C81.0552 96.6069 81.2867 96.4126 81.5817 96.2484Z" fill="white"/>
<path d="M86.4726 95.5822C86.9561 95.2151 87.4556 95.0085 87.971 94.9624C88.4858 94.9201 88.9839 95.0223 89.465 95.2688C89.9462 95.5153 90.377 95.8891 90.7573 96.3899C91.1426 96.8973 91.3871 97.4175 91.491 97.9505C91.5966 98.4857 91.559 98.9945 91.3784 99.4769C91.1977 99.9594 90.8722 100.379 90.4016 100.736C90.0222 101.025 89.6304 101.211 89.2263 101.296C88.8239 101.382 88.4361 101.369 88.063 101.256C87.6877 101.144 87.3551 100.934 87.0653 100.624L88.0117 99.9053C88.2416 100.1 88.514 100.211 88.8288 100.239C89.1416 100.268 89.453 100.165 89.763 99.9292C90.0341 99.7234 90.2172 99.4716 90.3123 99.1737C90.407 98.8796 90.411 98.5586 90.3246 98.2106C90.2398 97.8648 90.0624 97.5141 89.7923 97.1585C89.5157 96.7943 89.2217 96.5218 88.9103 96.3413C88.5988 96.1607 88.2871 96.0743 87.9752 96.0822C87.661 96.0917 87.3663 96.201 87.0909 96.41C86.9066 96.55 86.7652 96.7104 86.6666 96.8912C86.5675 97.0758 86.5156 97.2708 86.5108 97.4761C86.5038 97.6831 86.5481 97.8922 86.6436 98.1034L85.6971 98.8221C85.4865 98.4727 85.3727 98.1044 85.3557 97.7174C85.3387 97.3303 85.4225 96.9522 85.607 96.583C85.7895 96.2155 86.078 95.8819 86.4726 95.5822Z" fill="white"/>
<path d="M95.3452 92.7631L92.6894 90.152L93.5455 89.2812L98.0184 93.679L97.1967 94.5147L96.4687 93.799L96.4143 93.8543C96.55 94.19 96.5818 94.5382 96.5098 94.8988C96.4359 95.2614 96.2338 95.6106 95.9036 95.9465C95.6039 96.2513 95.2774 96.4552 94.924 96.5583C94.5726 96.6634 94.2097 96.6558 93.8352 96.5358C93.4606 96.4158 93.089 96.1744 92.7201 95.8118L89.875 93.0145L90.7311 92.1438L93.4713 94.838C93.7955 95.1567 94.1319 95.3214 94.4805 95.3319C94.831 95.3443 95.1513 95.203 95.4414 94.9079C95.6399 94.706 95.7728 94.4835 95.84 94.2403C95.9054 93.9991 95.8984 93.7499 95.8192 93.4926C95.7401 93.2391 95.5821 92.996 95.3452 92.7631Z" fill="white"/>
<path d="M95.913 86.0183C96.2768 85.5187 96.6969 85.1662 97.1732 84.9607C97.6502 84.7591 98.1547 84.7021 98.6869 84.79C99.2197 84.8816 99.749 85.1189 100.275 85.502C100.794 85.8802 101.182 86.3104 101.437 86.7926C101.69 87.2769 101.801 87.775 101.768 88.2868C101.734 88.8008 101.545 89.2933 101.202 89.7643C100.994 90.0504 100.745 90.2932 100.455 90.4928C100.164 90.6924 99.8404 90.8252 99.4825 90.8912C99.1246 90.9572 98.739 90.9341 98.3257 90.8217C97.9146 90.7109 97.4791 90.4881 97.0192 90.1531L96.6692 89.8983L99.6046 85.8675L100.344 86.4061L98.1131 89.4695C98.3728 89.6587 98.6412 89.7733 98.9184 89.8135C99.1978 89.8554 99.4656 89.823 99.7217 89.7165C99.9761 89.6122 100.196 89.4324 100.382 89.1771C100.584 88.8998 100.692 88.608 100.706 88.3018C100.721 87.9993 100.661 87.7126 100.524 87.4417C100.389 87.1746 100.195 86.9489 99.9415 86.7646L99.3638 86.3439C99.0249 86.0971 98.6933 85.9465 98.3691 85.8923C98.0433 85.8402 97.7391 85.8763 97.4566 86.0007C97.1763 86.1266 96.9311 86.3337 96.7212 86.622C96.585 86.8091 96.4871 86.9989 96.4278 87.1914C96.3706 87.3855 96.3551 87.578 96.3812 87.7687C96.4073 87.9595 96.4779 88.1423 96.5931 88.3171L95.7444 89.1287C95.5238 88.8536 95.3805 88.5438 95.3147 88.1995C95.2495 87.859 95.2654 87.5018 95.3625 87.1279C95.4603 86.7579 95.6437 86.388 95.913 86.0183Z" fill="white"/>
<path d="M97.5675 78.8704C97.7975 78.4284 98.0534 78.0782 98.3352 77.8197C98.6158 77.5637 98.9036 77.3851 99.1987 77.2839C99.4938 77.1827 99.7806 77.1417 100.059 77.1608L99.9587 78.2917C99.8185 78.3016 99.661 78.3301 99.4861 78.3772C99.3075 78.4254 99.1269 78.5218 98.9444 78.6661C98.7606 78.813 98.5908 79.0361 98.4349 79.3356C98.2213 79.7461 98.1449 80.1376 98.2059 80.51C98.2644 80.8811 98.511 81.1798 98.9458 81.406L100.04 81.9753L100.076 81.9065C99.9912 81.7797 99.9086 81.617 99.8278 81.4185C99.7457 81.2223 99.7069 80.9903 99.7112 80.7225C99.7155 80.4546 99.8063 80.1505 99.9835 79.8099C100.212 79.3704 100.521 79.0277 100.91 78.7819C101.3 78.5398 101.75 78.4211 102.26 78.4257C102.771 78.4339 103.323 78.592 103.914 78.8999C104.506 79.2078 104.961 79.572 105.279 79.9923C105.597 80.4152 105.776 80.8613 105.817 81.3308C105.86 81.8015 105.766 82.2603 105.533 82.7071C105.354 83.0524 105.15 83.3012 104.924 83.4534C104.7 83.6069 104.481 83.7032 104.267 83.7424C104.052 83.784 103.87 83.8072 103.72 83.8121L103.678 83.8918L104.58 84.3612L104.028 85.4226L98.3405 82.463C97.8623 82.2141 97.5277 81.8988 97.3366 81.517C97.1455 81.1352 97.0749 80.7164 97.1249 80.2606C97.1737 79.8071 97.3212 79.3437 97.5675 78.8704ZM100.757 80.5165C100.595 80.8281 100.531 81.129 100.564 81.4194C100.598 81.7134 100.723 81.987 100.938 82.2401C101.154 82.4969 101.454 82.7252 101.838 82.925C102.213 83.1198 102.571 83.2358 102.914 83.273C103.257 83.3102 103.564 83.2628 103.835 83.1308C104.109 83.0001 104.328 82.7765 104.492 82.4601C104.662 82.1341 104.719 81.8184 104.663 81.5131C104.609 81.209 104.468 80.9266 104.238 80.666C104.008 80.4077 103.715 80.1862 103.36 80.0015C102.995 79.8117 102.646 79.7008 102.313 79.6686C101.98 79.6364 101.679 79.6888 101.412 79.8257C101.143 79.9651 100.925 80.1953 100.757 80.5165Z" fill="white"/>
<path d="M102.491 73.2217C102.62 72.8455 102.805 72.5292 103.048 72.2726C103.294 72.0169 103.581 71.8459 103.909 71.7595C104.237 71.6758 104.596 71.7003 104.985 71.833C105.32 71.9473 105.573 72.1058 105.746 72.3085C105.918 72.5112 106.03 72.7436 106.082 73.0057C106.133 73.2678 106.145 73.5451 106.117 73.8377C106.089 74.1302 106.044 74.4226 105.982 74.7149C105.902 75.0845 105.837 75.3845 105.787 75.6149C105.74 75.8462 105.73 76.0226 105.757 76.1442C105.785 76.2658 105.868 76.3503 106.007 76.3978L106.034 76.407C106.372 76.5222 106.666 76.5161 106.917 76.3888C107.166 76.264 107.355 76.0148 107.482 75.6412C107.615 75.2521 107.633 74.916 107.537 74.6329C107.443 74.3533 107.306 74.1354 107.126 73.9791L107.744 72.9775C108.061 73.2294 108.288 73.5169 108.425 73.8398C108.564 74.1663 108.628 74.5089 108.618 74.8679C108.61 75.2277 108.545 75.5867 108.423 75.9449C108.342 76.1819 108.228 76.4235 108.081 76.6695C107.935 76.919 107.749 77.1347 107.523 77.3165C107.297 77.5008 107.021 77.6211 106.697 77.6774C106.375 77.7345 105.998 77.6892 105.565 77.5415L101.623 76.1962L102.008 75.0677L102.82 75.3446L102.836 75.2982C102.712 75.1725 102.603 75.0103 102.51 74.8116C102.416 74.613 102.362 74.3801 102.347 74.1131C102.332 73.8461 102.38 73.549 102.491 73.2217ZM103.333 73.7895C103.224 74.109 103.194 74.4037 103.243 74.6735C103.291 74.9459 103.397 75.1761 103.56 75.3641C103.724 75.5555 103.924 75.6912 104.159 75.7713L104.924 76.0324C104.897 75.9771 104.885 75.884 104.89 75.7532C104.896 75.6258 104.911 75.483 104.937 75.3248C104.964 75.1674 104.992 75.0144 105.02 74.8656C105.05 74.7177 105.075 74.5939 105.095 74.4942C105.143 74.2604 105.165 74.0393 105.162 73.8309C105.157 73.6251 105.111 73.4452 105.022 73.2914C104.935 73.1409 104.789 73.0305 104.583 72.9602C104.297 72.8626 104.044 72.8944 103.825 73.0556C103.609 73.2176 103.445 73.4623 103.333 73.7895Z" fill="white"/>
<path d="M102.097 63.8943C102.154 63.3993 102.268 62.9807 102.438 62.6385C102.609 62.299 102.813 62.0292 103.053 61.8291C103.292 61.629 103.545 61.4881 103.812 61.4062L104.123 62.4982C103.996 62.5576 103.859 62.6406 103.712 62.7472C103.563 62.8561 103.429 63.0107 103.31 63.2109C103.191 63.4137 103.112 63.6829 103.074 64.0183C103.021 64.4781 103.09 64.871 103.28 65.1969C103.468 65.5225 103.805 65.7131 104.292 65.7688L105.517 65.9088L105.526 65.8317C105.402 65.7436 105.266 65.6212 105.12 65.4647C104.973 65.3109 104.854 65.1082 104.762 64.8566C104.67 64.6049 104.646 64.2884 104.69 63.907C104.746 63.4147 104.912 62.9843 105.187 62.6156C105.464 62.25 105.842 61.978 106.32 61.7997C106.8 61.6245 107.372 61.5747 108.035 61.6505C108.697 61.7262 109.252 61.9034 109.7 62.182C110.148 62.4633 110.474 62.8158 110.681 63.2395C110.89 63.6635 110.966 64.1257 110.909 64.6261C110.865 65.0129 110.764 65.3179 110.607 65.5411C110.452 65.7646 110.283 65.9329 110.097 66.0459C109.911 66.1617 109.749 66.2487 109.611 66.3069L109.601 66.3961L110.611 66.5116L110.475 67.7004L104.105 66.9723C103.569 66.9111 103.144 66.7364 102.829 66.4483C102.514 66.1602 102.298 65.7944 102.182 65.3508C102.065 64.91 102.037 64.4245 102.097 63.8943ZM105.665 64.2898C105.625 64.6388 105.673 64.9429 105.808 65.2022C105.945 65.4645 106.159 65.6753 106.451 65.8347C106.744 65.997 107.106 66.1028 107.536 66.152C107.956 66.1999 108.332 66.1799 108.665 66.0919C108.999 66.004 109.269 65.8499 109.475 65.6295C109.683 65.4095 109.808 65.1223 109.848 64.768C109.89 64.4028 109.83 64.0877 109.669 63.8226C109.51 63.5578 109.277 63.3448 108.969 63.1836C108.661 63.0251 108.308 62.9231 107.911 62.8777C107.502 62.831 107.137 62.8522 106.814 62.9414C106.492 63.0306 106.23 63.187 106.029 63.4106C105.828 63.637 105.706 63.9301 105.665 64.2898Z" fill="white"/>
<path d="M108.506 55.7957L104.784 55.9286L104.74 54.7084L111.009 54.4844L111.051 55.6557L110.031 55.6921L110.033 55.7697C110.37 55.902 110.645 56.1183 110.857 56.4186C111.07 56.7216 111.184 57.1084 111.201 57.5791C111.217 58.0063 111.14 58.3836 110.972 58.711C110.807 59.0384 110.552 59.2968 110.207 59.4862C109.862 59.6756 109.431 59.7795 108.915 59.798L104.927 59.9405L104.884 58.7202L108.724 58.583C109.178 58.5667 109.529 58.4357 109.776 58.1898C110.027 57.9439 110.144 57.6141 110.129 57.2006C110.119 56.9176 110.049 56.6681 109.919 56.4521C109.789 56.2388 109.603 56.0725 109.361 55.9531C109.123 55.8363 108.838 55.7838 108.506 55.7957Z" fill="white"/>
<path d="M104.42 51.8687L110.628 50.9736L110.803 52.1822L104.594 53.0772L104.42 51.8687ZM111.674 51.4459C111.644 51.2357 111.688 51.0451 111.807 50.874C111.928 50.7052 112.087 50.6066 112.284 50.5782C112.483 50.5495 112.664 50.5991 112.825 50.7271C112.99 50.8574 113.087 51.0277 113.117 51.2379C113.148 51.448 113.102 51.6375 112.981 51.8063C112.862 51.9774 112.703 52.0774 112.504 52.1061C112.307 52.1345 112.127 52.0835 111.962 51.9532C111.801 51.8252 111.705 51.6561 111.674 51.4459Z" fill="white"/>
<path d="M110.311 49.1807L109.354 49.3933L108.611 46.0485L109.568 45.8359L110.311 49.1807ZM111.234 46.407L111.499 47.599L105.706 48.8859C105.475 48.9373 105.309 49.0105 105.207 49.1056C105.108 49.2001 105.049 49.3066 105.031 49.425C105.016 49.5454 105.023 49.6708 105.052 49.801C105.073 49.8967 105.098 49.979 105.128 50.0478C105.157 50.1166 105.18 50.17 105.197 50.2081L104.26 50.6422C104.218 50.579 104.17 50.4865 104.115 50.3649C104.057 50.2438 104.006 50.0879 103.961 49.8971C103.886 49.5847 103.876 49.2799 103.933 48.9828C103.99 48.6858 104.122 48.4264 104.329 48.2046C104.536 47.9828 104.825 47.8309 105.194 47.7488L111.234 46.407Z" fill="white"/>
<path d="M102.183 43.8875C101.977 43.3048 101.924 42.759 102.024 42.25C102.127 41.7426 102.366 41.2944 102.739 40.9053C103.116 40.5179 103.612 40.2157 104.225 39.9988C104.831 39.7845 105.405 39.7087 105.947 39.7712C106.489 39.8362 106.963 40.027 107.366 40.3434C107.771 40.6624 108.07 41.0966 108.264 41.6459C108.382 41.9795 108.441 42.3225 108.442 42.6747C108.442 43.0268 108.368 43.3692 108.22 43.7016C108.072 44.0341 107.835 44.339 107.508 44.6161C107.184 44.8924 106.754 45.1254 106.218 45.3151L105.81 45.4594L104.147 40.7583L105.01 40.4534L106.273 44.0263C106.576 43.9192 106.822 43.7628 107.012 43.5569C107.205 43.3502 107.33 43.1112 107.387 42.8398C107.445 42.5709 107.421 42.2876 107.316 41.9899C107.202 41.6665 107.022 41.4122 106.778 41.2272C106.537 41.0439 106.266 40.9317 105.966 40.8907C105.669 40.8513 105.373 40.8838 105.077 40.9882L104.404 41.2264C104.008 41.3662 103.697 41.5544 103.468 41.7911C103.241 42.0303 103.099 42.3015 103.042 42.6048C102.987 42.9072 103.019 43.2265 103.138 43.5627C103.215 43.7809 103.316 43.9689 103.441 44.1268C103.569 44.2838 103.719 44.4055 103.891 44.4919C104.063 44.5784 104.254 44.6235 104.463 44.6275L104.652 45.7865C104.3 45.8127 103.964 45.7555 103.643 45.615C103.325 45.4761 103.039 45.2608 102.786 44.9692C102.536 44.6793 102.335 44.3187 102.183 43.8875Z" fill="white"/>
<path d="M101.08 35.8182L102.398 35.1234L102.496 35.3118L106.004 36.3049L106.679 37.6021L102.683 36.4669L102.594 36.2966L101.08 35.8182ZM98.6738 35.8032L106.095 31.9453L106.658 33.0287L99.2371 36.8866L98.6738 35.8032ZM100.501 39.3179L102.11 35.9499L103.255 36.3026L101.192 40.6477L100.501 39.3179Z" fill="white"/>
<path d="M96.2812 32.1052L101.474 28.5859L102.136 29.5629L101.311 30.122L101.348 30.176C101.691 30.0813 102.024 30.0991 102.346 30.2296C102.672 30.3607 102.938 30.5785 103.144 30.8827C103.187 30.9458 103.235 31.0217 103.288 31.1104C103.343 31.2013 103.384 31.2739 103.411 31.3281L102.444 31.9833C102.428 31.9351 102.392 31.8546 102.335 31.7418C102.28 31.6274 102.218 31.5184 102.148 31.4147C101.986 31.1759 101.791 30.9972 101.563 30.8789C101.338 30.7613 101.1 30.7088 100.849 30.7213C100.6 30.7322 100.363 30.8141 100.137 30.9668L96.9663 33.116L96.2812 32.1052Z" fill="white"/>
<path d="M93.1638 28.5726C92.9035 28.2722 92.7236 27.9525 92.6243 27.6135C92.527 27.2727 92.5238 26.9385 92.6147 26.6111C92.7074 26.2858 92.909 25.9885 93.2197 25.7192C93.4871 25.4874 93.7518 25.348 94.0138 25.301C94.2757 25.2541 94.5329 25.2744 94.7853 25.3618C95.0377 25.4493 95.2832 25.5788 95.5219 25.7502C95.7606 25.9216 95.9905 26.1079 96.2116 26.3089C96.4906 26.5643 96.7171 26.7715 96.891 26.9306C97.067 27.0879 97.2145 27.1852 97.3334 27.2227C97.4523 27.2601 97.5673 27.2307 97.6784 27.1344L97.7 27.1157C97.9695 26.882 98.1123 26.6249 98.1285 26.3443C98.1464 26.0657 98.0261 25.7773 97.7675 25.479C97.4982 25.1684 97.2171 24.9833 96.9241 24.9238C96.635 24.8646 96.3777 24.8732 96.1522 24.9498L95.598 23.9115C95.9752 23.7647 96.3378 23.7134 96.6859 23.7575C97.0379 23.8019 97.3664 23.9189 97.6713 24.1086C97.9783 24.2964 98.2557 24.5334 98.5036 24.8193C98.6676 25.0086 98.8189 25.2288 98.9573 25.4799C99.0996 25.7313 99.1923 26.0004 99.2355 26.2872C99.2806 26.576 99.2458 26.8746 99.1311 27.183C99.0186 27.4895 98.7895 27.7926 98.4439 28.0922L95.2964 30.8207L94.5153 29.9196L95.1633 29.3579L95.1312 29.3208C94.9602 29.3646 94.7653 29.3768 94.5467 29.3573C94.328 29.3379 94.0995 29.2675 93.8611 29.1463C93.6227 29.0251 93.3903 28.8339 93.1638 28.5726ZM94.0783 28.1312C94.2994 28.3863 94.5388 28.5606 94.7966 28.6543C95.0561 28.75 95.3081 28.7747 95.5527 28.7285C95.8011 28.6825 96.0189 28.5784 96.2061 28.4161L96.8171 27.8865C96.7556 27.8821 96.6695 27.845 96.5586 27.7754C96.4516 27.706 96.3361 27.6206 96.2121 27.5191C96.0902 27.4158 95.972 27.3147 95.8574 27.2158C95.7449 27.1152 95.6506 27.0313 95.5743 26.9641C95.3965 26.8047 95.2167 26.6741 95.0348 26.5724C94.8547 26.4727 94.6759 26.4223 94.4984 26.4212C94.3248 26.4204 94.1557 26.4914 93.9911 26.634C93.7627 26.832 93.6631 27.0661 93.692 27.3364C93.7231 27.605 93.8518 27.8699 94.0783 28.1312Z" fill="white"/>
<path d="M84.2539 20.6569L88.1712 15.7578L89.0866 16.4898L88.4491 17.2871L88.5097 17.3356C88.8277 17.1472 89.1629 17.0701 89.5154 17.1045C89.8696 17.1367 90.2083 17.282 90.5315 17.5405C90.8589 17.8023 91.072 18.0982 91.1708 18.4281C91.2716 18.7597 91.2681 19.102 91.1602 19.4549L91.2112 19.4958C91.5373 19.3277 91.89 19.2681 92.2692 19.3169C92.6502 19.3636 93.0172 19.5281 93.3702 19.8103C93.8146 20.1656 94.0658 20.5948 94.1237 21.0978C94.1838 21.6025 93.9894 22.1355 93.5405 22.6969L90.9137 25.9821L89.96 25.2195L92.5154 22.0236C92.7807 21.6919 92.8824 21.3794 92.8207 21.086C92.759 20.7926 92.6027 20.5456 92.3518 20.345C92.0413 20.0968 91.7235 19.9995 91.3982 20.0531C91.0747 20.1047 90.7939 20.2793 90.5558 20.577L88.059 23.6995L87.1085 22.9395L89.7125 19.683C89.925 19.4172 90.0129 19.1372 89.9763 18.843C89.9397 18.5487 89.7884 18.2954 89.5226 18.0828C89.3419 17.9383 89.1367 17.8527 88.9071 17.826C88.6813 17.7988 88.4545 17.8318 88.2266 17.925C88.0009 18.0199 87.7996 18.1779 87.6228 18.399L85.2076 21.4195L84.2539 20.6569Z" fill="white"/>
<path d="M84.0158 10.751L80.2631 18.2255L79.1719 17.6776L82.9245 10.2031L84.0158 10.751Z" fill="white"/>
<path d="M74.7508 16.0438C74.3796 15.9017 74.0703 15.7045 73.8228 15.4524C73.5764 15.1976 73.416 14.9045 73.3418 14.5729C73.2702 14.2423 73.3079 13.885 73.4549 13.5011C73.5815 13.1705 73.7492 12.9228 73.9581 12.7579C74.167 12.593 74.4034 12.4897 74.6672 12.4479C74.931 12.406 75.2086 12.4044 75.4999 12.4431C75.7912 12.4818 76.0817 12.5376 76.3715 12.6107C76.738 12.7044 77.0354 12.7804 77.2638 12.8387C77.4931 12.8944 77.6691 12.9108 77.7916 12.8877C77.9141 12.8647 78.0017 12.7845 78.0543 12.6472L78.0645 12.6205C78.192 12.2874 78.1968 11.9934 78.0787 11.7383C77.9632 11.4841 77.7211 11.2865 77.3525 11.1453C76.9685 10.9983 76.6334 10.9676 76.3469 11.0533C76.064 11.1373 75.8412 11.2663 75.6784 11.4401L74.7002 10.7857C74.9636 10.4784 75.2593 10.2621 75.5871 10.137C75.9184 10.0102 76.2632 9.95857 76.6215 9.98208C76.9808 10.0031 77.3372 10.0812 77.6906 10.2165C77.9245 10.3061 78.1617 10.429 78.4022 10.5852C78.6461 10.7398 78.8548 10.9334 79.0281 11.166C79.204 11.3995 79.3141 11.6793 79.3583 12.0052C79.4036 12.3287 79.3444 12.7039 79.1809 13.1311L77.6913 17.0211L76.5777 16.5947L76.8843 15.7938L76.8386 15.7763C76.7084 15.8955 76.5423 15.9981 76.3403 16.084C76.1383 16.1699 75.9036 16.2156 75.6362 16.2211C75.3688 16.2266 75.0737 16.1675 74.7508 16.0438ZM75.3492 15.2235C75.6645 15.3442 75.9578 15.3851 76.2293 15.3462C76.5032 15.3082 76.7372 15.2112 76.931 15.0552C77.1284 14.8975 77.2714 14.703 77.36 14.4716L77.6492 13.7165C77.5929 13.7416 77.4995 13.7496 77.3689 13.7404C77.2418 13.7296 77.0997 13.7087 76.9425 13.6777C76.7863 13.6441 76.6343 13.6107 76.4867 13.5775C76.3401 13.5418 76.2173 13.5122 76.1183 13.4889C75.8864 13.4322 75.6663 13.4018 75.4579 13.3978C75.2521 13.3948 75.0706 13.4347 74.9136 13.5174C74.7601 13.5985 74.6444 13.7408 74.5665 13.9442C74.4584 14.2264 74.4809 14.4799 74.6339 14.7047C74.7878 14.9269 75.0263 15.0998 75.3492 15.2235Z" fill="white"/>
<path d="M73.3569 8.75985L73.1164 9.70998L69.7949 8.86894L70.0355 7.91882L73.3569 8.75985ZM71.2951 6.6875L72.4788 6.98723L71.0223 12.7395C70.9641 12.9691 70.9547 13.1506 70.9939 13.2841C71.0338 13.415 71.1025 13.5152 71.2 13.5849C71.3008 13.6525 71.4159 13.7027 71.5452 13.7355C71.6402 13.7595 71.725 13.774 71.7996 13.7788C71.8742 13.7837 71.9323 13.7872 71.9739 13.7893L71.9401 14.8212C71.8648 14.8302 71.7605 14.8319 71.6271 14.8262C71.493 14.8232 71.3307 14.7989 71.14 14.7534C70.8272 14.6799 70.5509 14.5509 70.3111 14.3666C70.0713 14.1823 69.899 13.9477 69.7943 13.6628C69.6895 13.3779 69.6835 13.052 69.7764 12.6852L71.2951 6.6875Z" fill="white"/>
<path d="M66.168 13.5843L67.2 7.39705L68.4044 7.59795L67.3724 13.7852L66.168 13.5843ZM67.9675 6.54383C67.758 6.5089 67.5897 6.40906 67.4626 6.24434C67.3387 6.07737 67.293 5.89587 67.3257 5.69984C67.3589 5.50111 67.461 5.34425 67.6319 5.22924C67.8061 5.112 67.9979 5.07084 68.2073 5.10578C68.4168 5.14072 68.5835 5.24167 68.7075 5.40863C68.8346 5.57336 68.8815 5.75508 68.8484 5.95381C68.8157 6.14984 68.7123 6.30648 68.5382 6.42373C68.3672 6.53874 68.1769 6.57877 67.9675 6.54383Z" fill="white"/>
<path d="M61.5783 15.7103C61.0809 15.6803 60.6569 15.5892 60.306 15.4371C59.9579 15.2852 59.6775 15.0951 59.4649 14.8668C59.2523 14.6385 59.098 14.3933 59.002 14.1311L60.0757 13.7622C60.1418 13.8862 60.232 14.0185 60.3463 14.159C60.4631 14.3024 60.6246 14.4281 60.8309 14.536C61.0398 14.6441 61.3128 14.7083 61.6498 14.7286C62.1117 14.7565 62.5004 14.6667 62.8156 14.4593C63.1307 14.2547 63.303 13.9078 63.3325 13.4186L63.4068 12.1876L63.3294 12.1829C63.248 12.3116 63.133 12.4533 62.9846 12.608C62.8389 12.7629 62.6428 12.8929 62.3965 12.998C62.1501 13.1032 61.8353 13.1442 61.4522 13.1211C60.9576 13.0912 60.5188 12.9489 60.136 12.6939C59.7561 12.4364 59.4643 12.0738 59.2607 11.606C59.0599 11.1357 58.9796 10.5676 59.0198 9.90182C59.06 9.23601 59.2072 8.67212 59.4614 8.21015C59.7184 7.74834 60.0529 7.40304 60.4649 7.17424C60.8771 6.94272 61.3346 6.84213 61.8373 6.87246C62.2259 6.8959 62.5359 6.98006 62.7672 7.12493C62.9986 7.26709 63.1757 7.42779 63.2986 7.60703C63.4241 7.78643 63.5197 7.94357 63.5852 8.07844L63.6748 8.08385L63.7361 7.06883L64.9305 7.14089L64.5444 13.5408C64.5119 14.0789 64.3602 14.513 64.0894 14.843C63.8186 15.1731 63.4648 15.4081 63.0282 15.5482C62.5942 15.6884 62.1109 15.7424 61.5783 15.7103ZM61.7822 12.1264C62.1328 12.1475 62.4339 12.0839 62.6856 11.9354C62.9402 11.7844 63.1393 11.5591 63.2828 11.2595C63.4292 10.9574 63.5154 10.5903 63.5415 10.1582C63.5669 9.73702 63.5268 9.3623 63.4211 9.03408C63.3155 8.70586 63.1471 8.44478 62.9161 8.25082C62.6852 8.05415 62.3917 7.94508 62.0357 7.9236C61.6689 7.90147 61.3574 7.97814 61.1013 8.15362C60.8454 8.32637 60.6452 8.57068 60.5007 8.88653C60.3589 9.20255 60.276 9.5603 60.2519 9.95979C60.2271 10.3701 60.2679 10.734 60.3742 11.0513C60.4805 11.3687 60.6507 11.6217 60.8848 11.8104C61.1216 11.9992 61.4208 12.1046 61.7822 12.1264Z" fill="white"/>
<path d="M56.2429 13.1172L55.9514 6.85125L57.1712 6.79451L57.4626 13.0605L56.2429 13.1172ZM56.5224 5.85577C56.3103 5.86564 56.1248 5.80341 55.9659 5.66907C55.8097 5.53189 55.7269 5.36404 55.7177 5.16551C55.7083 4.96426 55.7751 4.78944 55.9181 4.64107C56.0637 4.48984 56.2426 4.4093 56.4547 4.39943C56.6668 4.38956 56.851 4.45322 57.0073 4.5904C57.1662 4.72474 57.2503 4.89253 57.2597 5.09378C57.2689 5.29231 57.2007 5.46719 57.0551 5.61841C56.9121 5.76679 56.7346 5.84591 56.5224 5.85577Z" fill="white"/>
<path d="M51.4662 13.8834C50.9657 13.9604 50.4994 13.9013 50.0672 13.7061C49.6373 13.5078 49.274 13.1877 48.9774 12.7457C48.6831 12.3007 48.4844 11.7432 48.3813 11.0731C48.2782 10.4031 48.3017 9.81275 48.4518 9.30211C48.6046 8.79106 48.858 8.37884 49.2119 8.06547C49.5659 7.75209 49.9918 7.55712 50.4896 7.48055C50.8744 7.42136 51.1938 7.43834 51.4478 7.53149C51.704 7.62154 51.9098 7.7414 52.065 7.89105C52.2229 8.0403 52.3482 8.17391 52.4407 8.2919L52.5133 8.28073L52.0409 5.20907L53.2477 5.02344L54.5192 13.2899L53.3406 13.4711L53.1922 12.5065L53.0913 12.522C53.039 12.665 52.9572 12.8318 52.846 13.0225C52.7376 13.2127 52.5747 13.3893 52.3573 13.5522C52.14 13.7151 51.8429 13.8255 51.4662 13.8834ZM51.5743 12.8132C51.9214 12.7598 52.2006 12.6232 52.412 12.4034C52.6256 12.1804 52.7691 11.8953 52.8424 11.548C52.9183 11.2002 52.9228 10.8084 52.8557 10.3725C52.7895 9.94194 52.6697 9.57473 52.4962 9.27087C52.3228 8.967 52.1024 8.74334 51.8352 8.59989C51.568 8.45644 51.2581 8.41182 50.9056 8.46604C50.5424 8.52192 50.2541 8.66266 50.0409 8.88828C49.8277 9.11389 49.6842 9.39902 49.6106 9.74366C49.5395 10.0879 49.5355 10.4645 49.5984 10.8735C49.6622 11.2879 49.7814 11.6511 49.9561 11.963C50.1308 12.275 50.3541 12.5092 50.6261 12.6657C50.9003 12.8191 51.2164 12.8682 51.5743 12.8132Z" fill="white"/>
</svg>
