<svg width="56" height="56" viewBox="0 0 56 56" fill="none" xmlns="http://www.w3.org/2000/svg">
<path d="M33.833 25.0833H19.833C18.8763 25.0833 18.083 24.29 18.083 23.3333C18.083 22.3766 18.8763 21.5833 19.833 21.5833H33.833C34.7897 21.5833 35.583 22.3766 35.583 23.3333C35.583 24.29 34.7897 25.0833 33.833 25.0833Z" fill="#FFD02C"/>
<path d="M26.833 32.0833H19.833C18.8763 32.0833 18.083 31.29 18.083 30.3333C18.083 29.3766 18.8763 28.5833 19.833 28.5833H26.833C27.7897 28.5833 28.583 29.3766 28.583 30.3333C28.583 31.29 27.7897 32.0833 26.833 32.0833Z" fill="#FFD02C"/>
<path opacity="0.4" d="M26.8337 49C39.076 49 49.0003 39.0757 49.0003 26.8334C49.0003 14.591 39.076 4.66669 26.8337 4.66669C14.5913 4.66669 4.66699 14.591 4.66699 26.8334C4.66699 39.0757 14.5913 49 26.8337 49Z" fill="#FFD02C"/>
<path d="M49.7 51.3333C49.28 51.3333 48.86 51.17 48.5566 50.8666L44.2166 46.5266C43.5866 45.8966 43.5866 44.87 44.2166 44.2166C44.8466 43.5866 45.8733 43.5866 46.5266 44.2166L50.8666 48.5566C51.4966 49.1866 51.4966 50.2133 50.8666 50.8666C50.54 51.17 50.12 51.3333 49.7 51.3333Z" fill="#FFD02C"/>
</svg>
