<svg width="64" height="64" viewBox="0 0 64 64" fill="none" xmlns="http://www.w3.org/2000/svg">
<path opacity="0.4" d="M57.7337 26.7467C56.6937 25.2533 54.8537 24.4 52.747 24.4H41.8137C41.0937 24.4 40.427 24.1067 39.9737 23.5733C39.4937 23.04 39.307 22.2933 39.4137 21.52L40.7737 12.7733C41.3603 10.16 39.627 7.22668 37.0137 6.34668C34.587 5.44002 31.7337 6.66668 30.587 8.40002L19.3337 25.12L19.0137 25.6533V49.2267L19.4137 49.6267L27.867 56.16C28.987 57.28 31.5203 57.8933 33.307 57.8933H43.707C47.2803 57.8933 50.8803 55.2 51.6803 51.92L58.2403 31.9467C58.9337 30.0533 58.747 28.2133 57.7337 26.7467Z" fill="#FFD02C"/>
<path d="M13.893 17.0134H11.1463C7.01301 17.0134 5.33301 18.6134 5.33301 22.5601V49.3868C5.33301 53.3334 7.01301 54.9334 11.1463 54.9334H13.893C18.0263 54.9334 19.7063 53.3334 19.7063 49.3868V22.5601C19.7063 18.6134 18.0263 17.0134 13.893 17.0134Z" fill="#FFD02C"/>
</svg>
