<svg width="56" height="56" viewBox="0 0 56 56" fill="none" xmlns="http://www.w3.org/2000/svg">
<path opacity="0.4" d="M48.1126 19.7167C45.6626 8.93666 36.2592 4.08333 27.9992 4.08333C27.9992 4.08333 27.9992 4.08333 27.9759 4.08333C19.7392 4.08333 10.3126 8.91333 7.86258 19.6933C5.13258 31.7333 12.5059 41.93 19.1792 48.3467C21.6526 50.7267 24.8259 51.9167 27.9992 51.9167C31.1726 51.9167 34.3459 50.7267 36.7959 48.3467C43.4692 41.93 50.8426 31.7567 48.1126 19.7167Z" fill="#FF3AC8"/>
<path d="M28.0004 31.4067C32.0597 31.4067 35.3504 28.116 35.3504 24.0567C35.3504 19.9974 32.0597 16.7067 28.0004 16.7067C23.9411 16.7067 20.6504 19.9974 20.6504 24.0567C20.6504 28.116 23.9411 31.4067 28.0004 31.4067Z" fill="#FF3AC8"/>
</svg>
