<svg width="1025" height="238" viewBox="0 0 1025 238" fill="none" xmlns="http://www.w3.org/2000/svg">
<path d="M0 -0.00506592H191.722C216.933 -0.00506592 237.37 20.4323 237.37 45.643V237.365H0V-0.00506592Z" fill="#6C55FF"/>
<path d="M326.518 158.745C338.96 158.745 345.181 154.133 345.181 144.909C345.181 141.155 344.216 138.205 342.285 136.06C340.462 133.915 337.029 132.038 331.988 130.429L318.795 126.085C303.028 120.936 295.145 110.586 295.145 95.0332C295.145 86.0235 297.934 78.6226 303.511 72.8306C309.196 66.9313 318.045 63.9817 330.058 63.9817C335.099 63.9817 340.086 64.5716 345.02 65.7515C349.954 66.8241 355.21 68.5938 360.787 71.0608L354.835 87.6323C349.686 85.5944 345.288 84.1464 341.642 83.2883C338.102 82.323 334.455 81.8403 330.701 81.8403C325.767 81.8403 321.852 82.752 318.956 84.5755C316.168 86.2916 314.773 89.4557 314.773 94.0679C314.773 97.5002 315.739 100.343 317.669 102.595C319.707 104.74 323.032 106.564 327.644 108.065L340.837 112.409C348.774 115.091 354.727 119.006 358.696 124.154C362.772 129.195 364.81 135.899 364.81 144.265C364.81 153.919 361.753 161.748 355.639 167.755C349.525 173.654 339.925 176.604 326.84 176.604C321.691 176.604 316.328 176.014 310.751 174.834C305.281 173.547 299.274 171.402 292.731 168.398L298.684 151.827C304.691 154.401 309.786 156.225 313.969 157.297C318.259 158.263 322.442 158.745 326.518 158.745ZM455.322 108.709V131.716C455.322 145.66 451.836 156.654 444.864 164.698C437.892 172.635 427.703 176.604 414.295 176.604C400.781 176.604 390.538 172.635 383.566 164.698C376.701 156.654 373.269 145.66 373.269 131.716V108.709C373.269 94.7651 376.701 83.8246 383.566 75.8875C390.538 67.9503 400.781 63.9817 414.295 63.9817C427.703 63.9817 437.892 67.9503 444.864 75.8875C451.836 83.8246 455.322 94.7651 455.322 108.709ZM435.533 108.709C435.533 99.9135 433.817 93.3171 430.384 88.9194C426.952 84.4146 421.589 82.1621 414.295 82.1621C407.002 82.1621 401.639 84.4146 398.207 88.9194C394.774 93.3171 393.058 99.9135 393.058 108.709V131.716C393.058 140.511 394.774 147.161 398.207 151.666C401.639 156.171 407.002 158.423 414.295 158.423C421.589 158.423 426.952 156.171 430.384 151.666C433.817 147.161 435.533 140.511 435.533 131.716V108.709ZM535.871 156.493V174.995H472.802V65.5906H492.109V156.493H535.871ZM542.157 65.5906H561.946V135.738C561.946 142.817 563.501 148.395 566.612 152.471C569.722 156.439 574.71 158.423 581.575 158.423C588.439 158.423 593.427 156.439 596.537 152.471C599.648 148.395 601.203 142.817 601.203 135.738V65.5906H620.992V135.738C620.992 148.073 617.721 157.994 611.178 165.502C604.635 172.903 594.767 176.604 581.575 176.604C568.274 176.604 558.353 172.903 551.81 165.502C545.375 157.994 542.157 148.073 542.157 135.738V65.5906ZM627.667 84.0928V65.5906H708.111V84.0928H677.542V174.995H658.235V84.0928H627.667ZM736.647 174.995H717.341V65.5906H736.647V174.995ZM836.176 108.709V131.716C836.176 145.66 832.69 156.654 825.718 164.698C818.746 172.635 808.557 176.604 795.149 176.604C781.635 176.604 771.391 172.635 764.42 164.698C757.555 156.654 754.123 145.66 754.123 131.716V108.709C754.123 94.7651 757.555 83.8246 764.42 75.8875C771.391 67.9503 781.635 63.9817 795.149 63.9817C808.557 63.9817 818.746 67.9503 825.718 75.8875C832.69 83.8246 836.176 94.7651 836.176 108.709ZM816.387 108.709C816.387 99.9135 814.67 93.3171 811.238 88.9194C807.806 84.4146 802.443 82.1621 795.149 82.1621C787.856 82.1621 782.493 84.4146 779.06 88.9194C775.628 93.3171 773.912 99.9135 773.912 108.709V131.716C773.912 140.511 775.628 147.161 779.06 151.666C782.493 156.171 787.856 158.423 795.149 158.423C802.443 158.423 807.806 156.171 811.238 151.666C814.67 147.161 816.387 140.511 816.387 131.716V108.709ZM853.656 174.995V65.5906H871.354C879.827 76.6383 887.872 88.3295 895.487 100.664C903.103 112.892 910.021 125.495 916.242 138.473L914.794 105.813V65.5906H933.296V174.995H915.598C908.734 161.48 901.601 147.912 894.2 134.29C886.907 120.561 879.13 107.636 870.871 95.5159L872.158 133.164V174.995H853.656ZM979.249 158.745C991.691 158.745 997.912 154.133 997.912 144.909C997.912 141.155 996.947 138.205 995.016 136.06C993.192 133.915 989.76 132.038 984.719 130.429L971.526 126.085C955.759 120.936 947.875 110.586 947.875 95.0332C947.875 86.0235 950.664 78.6226 956.242 72.8306C961.926 66.9313 970.775 63.9817 982.788 63.9817C987.83 63.9817 992.817 64.5716 997.751 65.7515C1002.68 66.8241 1007.94 68.5938 1013.52 71.0608L1007.57 87.6323C1002.42 85.5944 998.019 84.1464 994.372 83.2883C990.833 82.323 987.186 81.8403 983.432 81.8403C978.498 81.8403 974.583 82.752 971.687 84.5755C968.898 86.2916 967.504 89.4557 967.504 94.0679C967.504 97.5002 968.469 100.343 970.4 102.595C972.438 104.74 975.763 106.564 980.375 108.065L993.568 112.409C1001.51 115.091 1007.46 119.006 1011.43 124.154C1015.5 129.195 1017.54 135.899 1017.54 144.265C1017.54 153.919 1014.48 161.748 1008.37 167.755C1002.26 173.654 992.656 176.604 979.571 176.604C974.422 176.604 969.059 176.014 963.482 174.834C958.011 173.547 952.005 171.402 945.462 168.398L951.415 151.827C957.422 154.401 962.516 156.225 966.699 157.297C970.99 158.263 975.173 158.745 979.249 158.745Z" fill="white"/>
<path d="M201.871 64.0534L167.119 173.458H147.33L112.417 64.0534H133.654L150.226 119.077L157.788 147.394L165.832 118.916L182.243 64.0534H201.871Z" fill="white"/>
<path d="M110.468 154.956V173.458H47.0781V64.0534H108.859V82.5556H66.3848V108.78H104.033V127.283H66.3848V154.956H110.468Z" fill="white"/>
</svg>
