<svg width="72" height="72" viewBox="0 0 72 72" fill="none" xmlns="http://www.w3.org/2000/svg">
<path opacity="0.4" d="M58.6043 10.8837V41.2744C58.6043 46.0465 56.0927 48.5581 51.3206 48.5581H20.6787C15.9066 48.5581 13.395 46.0465 13.395 41.2744V10.8837H58.6043Z" fill="#3FCFFD"/>
<path d="M61.1163 12.7674H10.8837C9.85395 12.7674 9 11.9135 9 10.8837C9 9.85395 9.85395 9 10.8837 9H61.1163C62.146 9 63 9.85395 63 10.8837C63 11.9135 62.146 12.7674 61.1163 12.7674Z" fill="#3FCFFD"/>
<path d="M47.7291 61.9702C47.4026 62.6232 46.7244 63 46.0463 63C45.77 63 45.4686 62.9247 45.2175 62.7991L35.9998 58.2027L26.7821 62.7991C26.5309 62.9247 26.2295 63 25.9533 63C25.2751 63 24.5969 62.6232 24.2704 61.9702C23.7932 61.0158 24.17 59.8855 25.1245 59.4334L34.116 54.9377V48.5581H37.8835V54.9377L46.8751 59.4334C47.8295 59.8855 48.2063 61.0158 47.7291 61.9702Z" fill="#3FCFFD"/>
<path d="M24.6976 35.3721C24.1701 35.3721 23.6176 35.1461 23.2408 34.694C22.5627 33.8903 22.6882 32.7098 23.4919 32.0317L31.4036 25.4261C32.132 24.8233 33.0613 24.5721 33.9403 24.7228C34.8445 24.8735 35.6232 25.426 36.1004 26.2297L38.7375 30.6251L46.0966 24.4968C46.9003 23.8186 48.0808 23.9441 48.7589 24.7479C49.4371 25.5516 49.3115 26.732 48.5078 27.4102L40.5961 34.0158C39.8678 34.6186 38.9385 34.8697 38.0594 34.719C37.1552 34.5683 36.3766 34.0158 35.8994 33.2121L33.2622 28.8168L25.9032 34.9451C25.5515 35.2214 25.1245 35.3721 24.6976 35.3721Z" fill="#3FCFFD"/>
</svg>
