<svg width="64" height="64" viewBox="0 0 64 64" fill="none" xmlns="http://www.w3.org/2000/svg">
<path opacity="0.4" d="M58.5863 17.0933V34.4266H5.33301V17.0933C5.33301 10.6133 10.613 5.33325 17.093 5.33325H46.8263C53.3063 5.33325 58.5863 10.6133 58.5863 17.0933Z" fill="#FF3A3A"/>
<path d="M5.33301 34.4534V34.9867C5.33301 41.4934 10.613 46.7467 17.093 46.7467H27.333C28.7997 46.7467 29.9997 47.9467 29.9997 49.4134V52C29.9997 53.4667 28.7997 54.6667 27.333 54.6667H20.8797C19.7863 54.6667 18.8797 55.5734 18.8797 56.6667C18.8797 57.76 19.7597 58.6667 20.8797 58.6667H43.1463C44.2397 58.6667 45.1463 57.76 45.1463 56.6667C45.1463 55.5734 44.2397 54.6667 43.1463 54.6667H36.693C35.2263 54.6667 34.0263 53.4667 34.0263 52V49.4134C34.0263 47.9467 35.2263 46.7467 36.693 46.7467H46.853C53.3597 46.7467 58.613 41.4667 58.613 34.9867V34.4534H5.33301Z" fill="#FF3A3A"/>
</svg>
