<svg width="64" height="64" viewBox="0 0 64 64" fill="none" xmlns="http://www.w3.org/2000/svg">
<path d="M26.5598 37.44V34.48C26.5598 33.3333 25.7065 32.7733 24.6665 33.2267L11.3065 38.9867C9.19983 39.8933 7.49316 38.7733 7.49316 36.5067V32.9867C7.49316 31.1733 8.85316 29.0667 10.5332 28.3733L25.7332 21.84C26.1598 21.6267 26.5332 21.0667 26.5332 20.5867V12.4267C26.5332 9.86666 28.4265 6.79999 30.6932 5.62666C31.4932 5.22666 32.4532 5.22666 33.2532 5.62666C35.5465 6.79999 37.4398 9.83999 37.4398 12.4V20.56C37.4398 21.04 37.8132 21.6 38.2398 21.8133L41.0132 22.9867L26.5598 37.44Z" fill="#31D2AC"/>
<path opacity="0.4" d="M56.5064 32.9867V36.5067C56.5064 38.7734 54.7998 39.8934 52.6931 38.9867L39.3331 33.2267C38.2664 32.8 37.4398 33.3334 37.4398 34.48V42.24C37.4398 42.8534 37.7864 43.7334 38.2398 44.16L44.4264 50.3734C45.0664 51.0134 45.3598 52.2934 45.0664 53.1734L43.8664 56.8C43.3331 58.3734 41.5464 59.0934 40.0798 58.3734L33.7331 53.04C32.7731 52.2134 31.1998 52.2134 30.2398 53.04L23.8931 58.3734C22.4264 59.12 20.6398 58.3734 20.1598 56.8L18.9598 53.1734C18.6664 52.2667 18.9598 51.0134 19.5998 50.3734L25.7864 44.16C26.2131 43.7334 26.5598 42.8534 26.5598 42.24V37.44L41.0131 22.9867L53.4664 28.3467C55.1464 29.0667 56.5064 31.1734 56.5064 32.9867Z" fill="#31D2AC"/>
</svg>
