<svg width="72" height="72" viewBox="0 0 72 72" fill="none" xmlns="http://www.w3.org/2000/svg">
<path opacity="0.4" d="M48.5698 6H23.4598C12.5398 6 6.02979 12.51 6.02979 23.43V48.54C6.02979 59.46 12.5398 65.97 23.4598 65.97H48.5698C59.4898 65.97 65.9998 59.46 65.9998 48.54V23.43C65.9998 12.51 59.4898 6 48.5698 6Z" fill="#31D2AC"/>
<path d="M27.5103 42.27C28.0803 42.27 28.6503 42.06 29.1003 41.61L42.2403 28.47V35.76C42.2403 36.99 43.2603 38.01 44.4903 38.01C45.7203 38.01 46.7403 36.99 46.7403 35.76V23.04C46.7403 22.74 46.6803 22.47 46.5603 22.17C46.3203 21.63 45.9003 21.18 45.3303 20.94C45.0603 20.82 44.7603 20.76 44.4603 20.76H31.7403C30.5103 20.76 29.4903 21.78 29.4903 23.01C29.4903 24.24 30.5103 25.26 31.7403 25.26H39.0303L25.8903 38.4C25.0203 39.27 25.0203 40.71 25.8903 41.58C26.3703 42.06 26.9403 42.27 27.5103 42.27Z" fill="#31D2AC"/>
<path d="M56.1301 48.84C55.7401 47.67 54.48 47.04 53.28 47.43C42.12 51.15 29.85 51.15 18.69 47.43C17.52 47.04 16.2301 47.67 15.8401 48.84C15.4501 50.01 16.0801 51.3 17.2501 51.69C23.2801 53.7 29.6101 54.72 35.9701 54.72C42.3301 54.72 48.66 53.7 54.69 51.69C55.89 51.27 56.5201 50.01 56.1301 48.84Z" fill="#31D2AC"/>
</svg>
