<svg width="120" height="122" viewBox="0 0 120 122" fill="none" xmlns="http://www.w3.org/2000/svg">
<path d="M73.8247 9.91748C73.5422 10.2308 73.1705 10.4397 72.7096 10.5739C72.2486 10.6933 71.7282 10.6933 71.1483 10.5739C70.5684 10.4546 70.0629 10.2308 69.6614 9.9324C69.26 9.63401 68.9477 9.27594 68.7544 8.84327C68.5611 8.41059 68.5017 7.94808 68.5611 7.44081L70.3008 7.81381C70.2711 8.15696 70.3454 8.47027 70.5238 8.73883C70.7023 9.00738 70.9848 9.18642 71.3714 9.26102C71.7133 9.33561 71.9958 9.30578 72.2189 9.15658C72.4419 9.00738 72.5757 8.79851 72.6352 8.51503C72.6947 8.2614 72.6649 8.0376 72.546 7.82873C72.4419 7.63477 72.2784 7.45573 72.0702 7.30654C71.862 7.15734 71.5795 6.9783 71.2078 6.75451C70.732 6.47104 70.3454 6.2174 70.0629 5.97869C69.7804 5.73997 69.5573 5.44158 69.3938 5.06859C69.2302 4.69559 69.2154 4.26292 69.3194 3.74073C69.4681 3.03951 69.8399 2.53224 70.4346 2.23385C71.0294 1.93545 71.7431 1.87577 72.5906 2.05481C73.453 2.24877 74.1072 2.60684 74.5236 3.12903C74.9548 3.66614 75.1183 4.27784 75.044 4.99399L73.2746 4.60608C73.2894 4.29276 73.2151 4.02421 73.0515 3.80041C72.888 3.5617 72.6352 3.4125 72.2932 3.3379C71.9958 3.27822 71.7282 3.29314 71.5052 3.4125C71.2821 3.53186 71.1483 3.74073 71.074 4.03913C71.0442 4.29276 71.074 4.51656 71.1781 4.71051C71.2821 4.90447 71.4457 5.06859 71.639 5.21778C71.8323 5.36698 72.1148 5.54602 72.4717 5.75489C72.9623 6.05328 73.3489 6.32184 73.6463 6.56055C73.9437 6.79927 74.1667 7.09766 74.3303 7.48557C74.4938 7.85857 74.5087 8.32108 74.4046 8.84327C74.3005 9.2461 74.1221 9.60417 73.8247 9.91748Z" fill="#6C54FF"/>
<path d="M86.0756 7.5451C86.4919 8.32093 86.6257 9.17135 86.4473 10.1113L84.8266 9.41006C84.8415 8.91771 84.7225 8.48504 84.4697 8.08221C84.217 7.6943 83.8452 7.38099 83.3546 7.17211C82.9531 6.99307 82.5368 6.93339 82.1205 6.99307C81.7041 7.05275 81.3175 7.23179 80.9756 7.53018C80.6336 7.82858 80.3511 8.23141 80.128 8.7536C79.905 9.26087 79.8158 9.7383 79.8306 10.2008C79.8455 10.6633 79.9793 11.0661 80.2172 11.4093C80.4551 11.7525 80.7823 12.021 81.1837 12.2C81.6744 12.4089 82.1502 12.4835 82.6111 12.394C83.0721 12.3045 83.4735 12.0956 83.8155 11.7525L85.4362 12.4537C84.8712 13.2146 84.1575 13.7069 83.31 13.9307C82.4624 14.1545 81.5554 14.0501 80.6038 13.6323C79.8753 13.319 79.2954 12.8565 78.879 12.2896C78.4627 11.7077 78.2248 11.0512 78.1802 10.3202C78.1356 9.5891 78.2694 8.84311 78.5965 8.08221C78.9237 7.32131 79.3846 6.7096 79.9496 6.23217C80.5146 5.76966 81.154 5.48618 81.8528 5.41159C82.5517 5.32207 83.2802 5.44143 84.0237 5.76966C84.9753 6.17249 85.6592 6.76928 86.0756 7.5451Z" fill="#6C54FF"/>
<path d="M90.7748 19.4212L91.0424 15.6017L90.4328 15.184L88.5593 17.8695L87.1914 16.8997L92.0089 10.0068L94.6258 11.842C95.4288 12.4089 95.8897 13.0206 96.0384 13.7069C96.1871 14.3932 96.0384 15.0497 95.5923 15.6912C95.2355 16.2134 94.7745 16.5417 94.2392 16.6909C93.704 16.8401 93.1241 16.7804 92.4996 16.5118L92.2914 20.4655L90.7748 19.4212ZM91.1019 14.244L92.2319 15.0348C93.02 15.5868 93.6594 15.5122 94.1352 14.811C94.3731 14.4827 94.4474 14.1545 94.3879 13.8263C94.3285 13.498 94.0906 13.1996 93.6891 12.9162L92.5591 12.1254L91.1019 14.244Z" fill="#6C54FF"/>
<path d="M104.723 21.4803C104.901 22.1964 104.871 22.9126 104.648 23.6287C104.425 24.3449 104.024 24.9864 103.414 25.5534C102.819 26.1203 102.15 26.4933 101.422 26.6873C100.693 26.8663 99.9646 26.8514 99.2658 26.6425C98.5669 26.4336 97.9424 26.0308 97.4072 25.4638C96.8719 24.8969 96.515 24.2553 96.3366 23.5392C96.1582 22.8231 96.1879 22.1069 96.4109 21.3758C96.634 20.6597 97.0503 20.0032 97.6451 19.4363C98.2398 18.8693 98.9089 18.4963 99.6375 18.3173C100.366 18.1383 101.08 18.1532 101.779 18.3621C102.477 18.5709 103.102 18.9738 103.637 19.5407C104.187 20.1226 104.544 20.7641 104.723 21.4803ZM101.392 19.8988C100.976 19.7794 100.544 19.7794 100.098 19.9137C99.6524 20.048 99.2212 20.3016 98.8197 20.6895C98.4182 21.0774 98.1357 21.4803 97.9722 21.9279C97.8086 22.3605 97.7789 22.7932 97.883 23.2259C97.9722 23.6436 98.1952 24.0465 98.5372 24.4045C98.8792 24.7626 99.2509 25.0013 99.6672 25.1207C100.084 25.24 100.515 25.2251 100.961 25.0908C101.407 24.9566 101.838 24.7029 102.24 24.315C102.641 23.9271 102.924 23.5243 103.087 23.0767C103.251 22.6291 103.28 22.2113 103.176 21.7787C103.087 21.3609 102.864 20.9581 102.522 20.6C102.195 20.2569 101.823 20.0182 101.392 19.8988Z" fill="#6C54FF"/>
<path d="M104.319 32.0582L105.851 34.4304L104.765 35.1316L102.342 31.342L109.405 26.7766L110.312 28.194L104.319 32.0582Z" fill="#6C54FF"/>
<path d="M108.126 38.9959L109.286 41.577L108.111 42.0992L106.268 37.9814L113.925 34.52L114.609 36.0567L108.126 38.9959Z" fill="#6C54FF"/>
<path d="M113.525 56.4072C112.841 56.1535 112.29 55.7208 111.844 55.1241C111.398 54.5124 111.116 53.7664 110.982 52.8563L110.551 49.8873L118.848 48.6489L119.279 51.603C119.413 52.5131 119.353 53.3188 119.115 54.02C118.877 54.7212 118.461 55.3031 117.896 55.7358C117.331 56.1684 116.617 56.4519 115.785 56.5713C114.952 56.7354 114.209 56.6608 113.525 56.4072ZM113.45 54.4825C114 54.9003 114.684 55.0495 115.532 54.9301C116.394 54.8108 117.019 54.4527 117.405 53.9006C117.807 53.3337 117.941 52.6176 117.807 51.7075L117.628 50.5586L112.261 51.3494L112.424 52.4982C112.573 53.3934 112.9 54.0499 113.45 54.4825Z" fill="#6C54FF"/>
<path d="M119.278 67.2538C118.861 67.8655 118.326 68.3429 117.642 68.6563C116.958 68.9845 116.215 69.1188 115.397 69.0591C114.579 68.9994 113.85 68.7607 113.226 68.3429C112.601 67.9252 112.126 67.3881 111.799 66.7316C111.486 66.0752 111.352 65.3441 111.397 64.5533C111.457 63.7626 111.68 63.0614 112.096 62.4497C112.497 61.838 113.047 61.3605 113.731 61.0472C114.415 60.719 115.159 60.5847 115.992 60.6444C116.809 60.7041 117.538 60.9428 118.162 61.3456C118.787 61.7634 119.263 62.3005 119.59 62.9569C119.902 63.6134 120.036 64.3445 119.991 65.1352C119.917 65.9409 119.694 66.6421 119.278 67.2538ZM118.192 63.7328C117.999 63.3448 117.701 63.0315 117.3 62.7928C116.899 62.5541 116.423 62.4198 115.873 62.3751C115.322 62.3303 114.832 62.4049 114.401 62.5839C113.969 62.763 113.627 63.0315 113.389 63.3896C113.137 63.7477 113.003 64.1654 112.973 64.6578C112.943 65.1501 113.018 65.5828 113.211 65.9856C113.404 66.3735 113.702 66.6869 114.103 66.9256C114.505 67.1643 114.98 67.2986 115.531 67.3433C116.081 67.3881 116.571 67.3135 117.003 67.1345C117.434 66.9554 117.776 66.6869 118.014 66.3288C118.266 65.9707 118.4 65.553 118.43 65.0606C118.46 64.5533 118.385 64.1207 118.192 63.7328Z" fill="#6C54FF"/>
<path d="M115.263 85.1723L107.918 80.6068L108.557 78.6374L114.832 79.0254L109.539 75.6237L110.178 73.6692L118.802 74.3107L118.237 76.0414L111.65 75.2507L117.315 78.8612L116.75 80.6068L110.044 80.1891L115.828 83.4416L115.263 85.1723Z" fill="#6C54FF"/>
<path d="M101.926 91.4385L102.818 90.0062L109.643 89.8421L104.81 86.8134L105.702 85.3811L112.825 89.8421L111.933 91.2744L105.063 91.4087L109.94 94.4672L109.048 95.8995L101.926 91.4385Z" fill="#6C54FF"/>
<path d="M97.5835 108.044L96.7062 107.045L98.431 105.493L93.7324 100.196L94.9814 99.0774L99.68 104.374L101.405 102.837L102.297 103.837L97.5835 108.044Z" fill="#6C54FF"/>
<path d="M88.3797 113.609C87.6511 113.624 86.9523 113.43 86.298 113.057C85.6438 112.684 85.1085 112.132 84.6922 111.416C84.2759 110.7 84.0528 109.969 84.038 109.208C84.0231 108.447 84.2015 107.761 84.5584 107.119C84.9301 106.477 85.4505 105.955 86.1196 105.552C86.7887 105.15 87.5024 104.956 88.231 104.941C88.9596 104.926 89.6584 105.12 90.3126 105.493C90.9669 105.881 91.5021 106.418 91.9185 107.134C92.3348 107.85 92.5578 108.581 92.5578 109.327C92.5727 110.073 92.3943 110.774 92.0374 111.416C91.6657 112.057 91.1453 112.58 90.4762 112.982C89.822 113.4 89.1083 113.609 88.3797 113.609ZM90.6546 110.715C90.8628 110.327 90.952 109.909 90.9223 109.446C90.8925 108.984 90.729 108.507 90.4613 108.029C90.1788 107.552 89.8368 107.179 89.4502 106.925C89.0636 106.671 88.6473 106.537 88.2161 106.537C87.7849 106.537 87.3537 106.657 86.9374 106.91C86.5062 107.164 86.194 107.477 85.9858 107.865C85.7776 108.253 85.6884 108.671 85.7182 109.133C85.7479 109.596 85.9114 110.073 86.194 110.551C86.4765 111.028 86.8185 111.401 87.205 111.655C87.5916 111.908 88.008 112.028 88.4392 112.043C88.8704 112.043 89.3016 111.923 89.7179 111.67C90.1342 111.416 90.4465 111.103 90.6546 110.715Z" fill="#6C54FF"/>
<path d="M69.7058 113.087C69.8248 112.684 70.0627 112.326 70.4344 112.013C70.7912 111.699 71.2671 111.476 71.8469 111.326C72.4268 111.192 72.9621 111.162 73.4676 111.252C73.9732 111.341 74.4044 111.535 74.7612 111.834C75.1181 112.132 75.3857 112.535 75.5493 113.012L73.8096 113.43C73.6907 113.102 73.4974 112.863 73.2149 112.699C72.9324 112.535 72.6053 112.49 72.2335 112.595C71.8915 112.669 71.6536 112.833 71.5198 113.057C71.386 113.281 71.3414 113.535 71.4157 113.818C71.4752 114.072 71.5942 114.266 71.7875 114.4C71.9659 114.534 72.1889 114.624 72.4417 114.668C72.6945 114.713 73.0216 114.758 73.4528 114.788C74.0029 114.833 74.4639 114.907 74.8207 114.997C75.1924 115.086 75.5195 115.265 75.8169 115.519C76.1143 115.787 76.3373 116.175 76.4563 116.683C76.6198 117.384 76.5009 117.996 76.0994 118.533C75.698 119.055 75.0735 119.428 74.2408 119.622C73.3784 119.831 72.635 119.786 72.0254 119.488C71.4157 119.189 70.9845 118.712 70.7615 118.025L72.516 117.608C72.635 117.891 72.8134 118.1 73.0662 118.249C73.319 118.383 73.6163 118.413 73.9583 118.339C74.2557 118.264 74.4787 118.13 74.6274 117.921C74.7761 117.712 74.8058 117.458 74.7315 117.16C74.672 116.921 74.5531 116.742 74.3746 116.608C74.1962 116.489 73.9881 116.399 73.7353 116.354C73.4974 116.31 73.1703 116.265 72.7539 116.235C72.1889 116.175 71.7131 116.101 71.3563 116.026C70.9845 115.937 70.6574 115.773 70.3452 115.504C70.0329 115.235 69.8099 114.833 69.691 114.31C69.572 113.893 69.572 113.49 69.7058 113.087Z" fill="#6C54FF"/>
<path d="M64.5005 119.711L64.3667 117.533L61.393 117.727L61.3186 116.444L64.2775 116.25L64.1288 113.982L60.7982 114.191L60.709 112.848L65.7049 112.52L66.2402 120.92L61.2443 121.248L61.155 119.92L64.5005 119.711Z" fill="#6C54FF"/>
<path d="M54.9113 119.652L55.1343 117.473L52.1754 117.175L52.3092 115.892L55.2681 116.19L55.4912 113.937L52.1754 113.609L52.3092 112.266L57.2903 112.759L56.4576 121.144L51.4766 120.651L51.6104 119.323L54.9113 119.652Z" fill="#6C54FF"/>
<path d="M35.5516 115.564C35.1055 114.982 34.823 114.325 34.7338 113.579C34.6446 112.833 34.7487 112.072 35.0609 111.311C35.3732 110.551 35.8193 109.924 36.414 109.447C37.0088 108.969 37.663 108.686 38.3916 108.596C39.1201 108.507 39.8487 108.596 40.5773 108.894C41.3059 109.193 41.9006 109.626 42.3467 110.207C42.8076 110.789 43.0753 111.446 43.1645 112.207C43.2537 112.953 43.1496 113.714 42.8374 114.474C42.5251 115.235 42.079 115.862 41.4843 116.325C40.8895 116.787 40.2353 117.07 39.5067 117.175C38.7782 117.264 38.0496 117.175 37.321 116.877C36.5924 116.578 35.9977 116.145 35.5516 115.564ZM39.2242 115.623C39.6554 115.564 40.042 115.37 40.3989 115.071C40.7557 114.758 41.0234 114.355 41.2464 113.833C41.4546 113.311 41.5438 112.833 41.4992 112.356C41.4694 111.893 41.3207 111.476 41.0531 111.132C40.8003 110.789 40.4286 110.521 39.9825 110.327C39.5216 110.148 39.0904 110.073 38.6592 110.148C38.228 110.207 37.8414 110.401 37.4846 110.715C37.1277 111.028 36.8601 111.431 36.637 111.953C36.4289 112.475 36.3397 112.953 36.3843 113.43C36.4289 113.893 36.5627 114.295 36.8303 114.653C37.098 114.997 37.4548 115.265 37.9009 115.459C38.347 115.653 38.8079 115.683 39.2242 115.623Z" fill="#6C54FF"/>
<path d="M27.6414 111.729L30.4218 107.656C30.7936 107.104 30.9571 106.627 30.8976 106.179C30.8382 105.732 30.5854 105.374 30.1393 105.06C29.6933 104.762 29.2621 104.658 28.8309 104.762C28.3997 104.866 28.0131 105.195 27.6414 105.747L24.8757 109.82L23.5078 108.88L26.2734 104.792C26.7046 104.15 27.1953 103.688 27.7454 103.404C28.2807 103.121 28.8457 103.016 29.4108 103.091C29.9758 103.166 30.5259 103.389 31.0612 103.747C31.8939 104.314 32.3845 105.016 32.5481 105.866C32.7116 106.702 32.4589 107.612 31.8046 108.581L29.039 112.669L27.6414 111.729Z" fill="#6C54FF"/>
<path d="M22.3618 96.4365L21.4251 100.137L21.9455 100.659L24.2651 98.3463L25.4397 99.5398L19.4773 105.463L17.2321 103.18C16.5481 102.479 16.1913 101.793 16.1764 101.091C16.1615 100.39 16.4143 99.7636 16.9644 99.2116C17.4105 98.764 17.9161 98.5104 18.4662 98.4656C19.0164 98.4209 19.5814 98.5701 20.1464 98.9431L21.0534 95.0789L22.3618 96.4365ZM21.1129 101.479L20.1464 100.495C19.4773 99.8084 18.8379 99.7636 18.2283 100.375C17.9458 100.659 17.7971 100.972 17.7971 101.285C17.7971 101.614 17.9755 101.957 18.3175 102.3L19.284 103.285L21.1129 101.479Z" fill="#6C54FF"/>
<path d="M14.2741 87.6489L12.8764 85.2021L13.9916 84.5605L16.2219 88.4695L8.93617 92.6619L8.10352 91.1998L14.2741 87.6489Z" fill="#6C54FF"/>
<path d="M9.26364 77.3991L10.3937 80.577L12.1779 80.5621L12.7727 82.2331L3.91085 82.1138L3.27148 80.3085L10.0517 74.5942L10.6464 76.2652L9.26364 77.3991ZM8.20795 78.2645L5.29365 80.6367L9.0406 80.6069L8.20795 78.2645Z" fill="#6C54FF"/>
<path d="M0.251953 67.224L1.56041 67.0151L1.91727 69.3128L8.89077 68.2236L9.14354 69.8797L2.17004 70.9689L2.52689 73.2516L1.20356 73.4604L0.251953 67.224Z" fill="#6C54FF"/>
<path d="M1.35307 61.032L3.52392 61.0618L3.55366 58.0779L4.83238 58.0928L4.80264 61.0768L7.06271 61.1066L7.10732 57.7646L8.44552 57.7795L8.38604 62.8074L0 62.6881L0.0594755 57.6602L1.3828 57.6751L1.35307 61.032Z" fill="#6C54FF"/>
<path d="M8.683 48.7534C8.99525 49.0369 9.23315 49.395 9.36697 49.8426C9.50079 50.2902 9.51566 50.8273 9.41158 51.4091C9.30749 51.991 9.1142 52.4983 8.81682 52.9309C8.53431 53.3636 8.17746 53.6769 7.76113 53.8858C7.32993 54.0947 6.869 54.1693 6.36346 54.1245L6.69057 52.364C7.03256 52.3938 7.32993 52.3043 7.59757 52.1104C7.86521 51.9164 8.02877 51.6329 8.10311 51.245C8.16259 50.9019 8.11798 50.6184 7.9693 50.4095C7.82061 50.1857 7.59757 50.0514 7.31507 50.0067C7.06229 49.9619 6.83926 49.9918 6.6311 50.1111C6.4378 50.2305 6.25937 50.3946 6.12555 50.6035C5.97687 50.8123 5.81331 51.0958 5.60514 51.4837C5.3375 51.9612 5.0996 52.364 4.8617 52.6624C4.63867 52.9608 4.34129 53.1995 3.98444 53.3636C3.62759 53.5426 3.18152 53.5725 2.67598 53.483C1.96227 53.3487 1.45673 52.9906 1.14448 52.4087C0.832238 51.8269 0.743025 51.1107 0.906582 50.2603C1.07014 49.38 1.41212 48.7236 1.91767 48.276C2.43808 47.8284 3.0477 47.6344 3.76141 47.6941L3.43429 49.4845C3.12204 49.4845 2.86927 49.5591 2.63137 49.7232C2.40834 49.8873 2.25965 50.1559 2.20017 50.499C2.1407 50.7974 2.1853 51.066 2.30426 51.2898C2.42321 51.5136 2.64624 51.6478 2.94362 51.6926C3.18152 51.7374 3.40455 51.7075 3.58298 51.5882C3.76141 51.4688 3.93983 51.3196 4.07365 51.1107C4.20747 50.9019 4.3859 50.6184 4.57919 50.2603C4.8617 49.768 5.11447 49.3651 5.3375 49.0667C5.56054 48.7683 5.85792 48.5296 6.22964 48.3506C6.60136 48.1716 7.04743 48.1417 7.5827 48.2312C7.99903 48.3058 8.35589 48.4849 8.683 48.7534Z" fill="#6C54FF"/>
<path d="M4.8908 37.0413L6.13979 37.5038L5.33687 39.682L11.9535 42.1587L11.3736 43.7402L4.75698 41.2635L3.95406 43.4269L2.70508 42.9644L4.8908 37.0413Z" fill="#6C54FF"/>
<path d="M16.7413 18.9585L22.0049 25.8365L20.7113 27.4478L14.9868 24.8518L18.7486 29.9095L17.455 31.5209L9.61914 27.8655L10.7492 26.4482L16.6224 29.5216L12.5929 24.1356L13.7378 22.6884L19.8638 25.4635L15.5964 20.3759L16.7413 18.9585Z" fill="#6C54FF"/>
<path d="M25.768 12.0805C26.4966 11.991 27.2103 12.0955 27.8943 12.3939C28.5782 12.6923 29.173 13.1697 29.6785 13.8262C30.1692 14.4826 30.4814 15.1838 30.5706 15.9447C30.6747 16.6907 30.5855 17.4069 30.2881 18.0783C30.0056 18.7496 29.5447 19.3315 28.9202 19.8089C28.2957 20.2864 27.6117 20.5698 26.8832 20.6594C26.1546 20.7489 25.4409 20.6444 24.7569 20.3461C24.073 20.0477 23.4782 19.5553 22.9727 18.8988C22.482 18.2424 22.1697 17.5412 22.0805 16.7952C21.9764 16.0492 22.0805 15.333 22.363 14.6617C22.6604 13.9903 23.1065 13.4084 23.731 12.931C24.3555 12.4685 25.0394 12.185 25.768 12.0805ZM23.8351 15.2286C23.6715 15.6314 23.6269 16.0641 23.7161 16.5266C23.8053 16.9891 24.0135 17.4367 24.3406 17.8843C24.6677 18.3319 25.0543 18.6452 25.4706 18.8541C25.887 19.063 26.3181 19.1376 26.7493 19.0928C27.1805 19.048 27.5969 18.869 27.9835 18.5706C28.3701 18.2722 28.6526 17.9291 28.8161 17.5262C28.9797 17.1234 29.0243 16.6907 28.9351 16.2282C28.8459 15.7657 28.6377 15.3181 28.3106 14.8705C27.9835 14.4229 27.5969 14.1096 27.1805 13.9007C26.7642 13.6919 26.333 13.6173 25.9018 13.662C25.4706 13.7068 25.0543 13.8858 24.6677 14.1842C24.2811 14.4826 23.9986 14.8258 23.8351 15.2286Z" fill="#6C54FF"/>
<path d="M39.1503 13.6474L35.9683 11.5288L35.2992 11.8421L36.7118 14.7962L35.1952 15.5273L31.582 7.9481L34.4666 6.56057C35.3439 6.14282 36.117 6.03838 36.7861 6.24726C37.4552 6.45614 37.9608 6.91865 38.2879 7.61987C38.5555 8.20174 38.6299 8.75377 38.4961 9.29088C38.3622 9.82798 38.0202 10.3054 37.485 10.7232L40.8156 12.8567L39.1503 13.6474ZM34.8086 10.8127L36.0576 10.2159C36.92 9.79814 37.1727 9.21628 36.801 8.44045C36.6226 8.06746 36.3847 7.84367 36.0724 7.73923C35.7602 7.63479 35.3885 7.69447 34.9424 7.90334L33.6934 8.50013L34.8086 10.8127Z" fill="#6C54FF"/>
<path d="M45.9442 6.76944L50.4644 10.007L48.5017 10.5292L44.5168 7.59003L45.4982 11.3199L43.8774 11.7526L41.7363 3.60647L43.357 3.1738L44.3235 6.82912L46.3754 2.36814L48.3232 1.84595L45.9442 6.76944Z" fill="#6C54FF"/>
<path d="M59.7925 0.0710213L61.1457 3.13467L64.438 3.74963L61.9516 5.99637L62.3791 9.31512L59.4888 7.6466L56.4641 9.07976L57.1661 5.8073L54.8669 3.37149L58.1882 3.01699L59.7925 0.0710213Z" fill="#FFD02C"/>
</svg>
