<svg width="56" height="56" viewBox="0 0 56 56" fill="none" xmlns="http://www.w3.org/2000/svg">
<path opacity="0.4" d="M51.3337 18.2234V35.3734C50.657 35.0467 49.9103 34.8134 49.0703 34.6734L48.347 34.5567L47.7403 33.2967C46.457 30.6834 44.357 29.1667 42.0003 29.1667C39.6437 29.1667 37.5437 30.6834 36.2603 33.2967L35.6303 34.5567L34.9303 34.6734C32.1537 35.14 30.147 36.68 29.4236 38.8734C28.7236 41.09 29.447 43.5167 31.4303 45.5234L32.1537 46.2467L32.0837 46.5267C31.617 48.6034 31.8037 50.19 32.247 51.3334H18.2237C9.73032 51.3334 4.66699 46.27 4.66699 37.7767V18.2234C4.66699 9.73002 9.73032 4.66669 18.2237 4.66669H37.777C46.2703 4.66669 51.3337 9.73002 51.3337 18.2234Z" fill="#31D2AC"/>
<path d="M44.6134 34.86L45.3601 36.3767C45.7334 37.1233 46.6901 37.8233 47.4835 37.9633L48.4868 38.1267C51.5434 38.64 52.2434 40.88 50.0734 43.0733L49.1401 44.0067C48.5101 44.6367 48.1835 45.85 48.3701 46.7367L48.4868 47.2966C49.3268 50.9833 47.3668 52.4067 44.1701 50.47L43.4935 50.05C42.6768 49.56 41.3234 49.56 40.5067 50.05L39.8301 50.47C36.6101 52.4067 34.6734 50.9833 35.5134 47.2966L35.6301 46.7367C35.8167 45.8733 35.4901 44.6367 34.8601 44.0067L33.9268 43.0733C31.7568 40.8567 32.4568 38.64 35.5134 38.1267L36.5168 37.9633C37.3334 37.8233 38.2668 37.1233 38.6401 36.3767L39.3868 34.86C40.8335 31.9433 43.1668 31.9433 44.6134 34.86Z" fill="#31D2AC"/>
<path fill-rule="evenodd" clip-rule="evenodd" d="M37.6352 18.4735C38.399 19.0657 38.5383 20.1649 37.9461 20.9288L32.5457 27.8955C31.1577 29.6509 28.5984 29.9711 26.813 28.5914L26.8008 28.582L22.5388 25.2282C22.2755 25.0282 21.9082 25.078 21.7083 25.336C21.7081 25.3362 21.7085 25.3357 21.7083 25.336L16.156 32.5445C15.5663 33.3102 14.4675 33.4528 13.7018 32.8631C12.9361 32.2733 12.7934 31.1745 13.3832 30.4088L18.9382 23.1966C20.324 21.4032 22.8935 21.0791 24.683 22.4619L24.6952 22.4713L28.9572 25.8251C29.2233 26.0272 29.5982 25.9751 29.7967 25.729L35.1799 18.7845C35.772 18.0206 36.8713 17.8814 37.6352 18.4735Z" fill="#31D2AC"/>
</svg>
