<svg width="72" height="72" viewBox="0 0 72 72" fill="none" xmlns="http://www.w3.org/2000/svg">
<path opacity="0.4" d="M66 23.43V48.57C66 59.49 59.49 66 48.57 66H23.43C12.51 66 6 59.49 6 48.57V23.43C6 21.9 6.12 20.43 6.39 19.08C7.92 10.83 14.01 6.03 23.31 6H48.69C57.99 6.03 64.08 10.83 65.61 19.08C65.88 20.43 66 21.9 66 23.43Z" fill="#B04AFF"/>
<path d="M66 23.43V23.58H6V23.43C6 21.9 6.12 20.43 6.39 19.08H23.31V6H27.81V19.08H44.19V6H48.69V19.08H65.61C65.88 20.43 66 21.9 66 23.43Z" fill="#B04AFF"/>
<path d="M43.3199 38.16L37.0799 34.56C34.7699 33.24 32.5499 33.06 30.8099 34.05C29.0699 35.04 28.1099 37.08 28.1099 39.72V46.92C28.1099 49.56 29.0699 51.6 30.8099 52.59C31.5599 53.01 32.3999 53.22 33.2699 53.22C34.4699 53.22 35.7599 52.83 37.0799 52.08L43.3199 48.48C45.6299 47.16 46.8899 45.3 46.8899 43.29C46.8899 41.28 45.5999 39.51 43.3199 38.16Z" fill="#B04AFF"/>
</svg>
