<svg width="64" height="64" viewBox="0 0 64 64" fill="none" xmlns="http://www.w3.org/2000/svg">
<path opacity="0.4" d="M31.9997 50.6667C42.309 50.6667 50.6663 42.3094 50.6663 32C50.6663 21.6907 42.309 13.3334 31.9997 13.3334C21.6904 13.3334 13.333 21.6907 13.333 32C13.333 42.3094 21.6904 50.6667 31.9997 50.6667Z" fill="#B04AFF"/>
<path d="M32.0003 61.2266C30.5337 61.2266 29.3337 60.1333 29.3337 58.6666V58.4533C29.3337 56.9866 30.5337 55.7866 32.0003 55.7866C33.467 55.7866 34.667 56.9866 34.667 58.4533C34.667 59.92 33.467 61.2266 32.0003 61.2266ZM51.0403 53.7066C50.347 53.7066 49.6803 53.44 49.147 52.9333L48.8003 52.5866C47.7603 51.5466 47.7603 49.8666 48.8003 48.8266C49.8403 47.7866 51.5203 47.7866 52.5603 48.8266L52.907 49.1733C53.947 50.2133 53.947 51.8933 52.907 52.9333C52.4003 53.44 51.7337 53.7066 51.0403 53.7066ZM12.9603 53.7066C12.267 53.7066 11.6003 53.44 11.067 52.9333C10.027 51.8933 10.027 50.2133 11.067 49.1733L11.4137 48.8266C12.4537 47.7866 14.1337 47.7866 15.1737 48.8266C16.2137 49.8666 16.2137 51.5466 15.1737 52.5866L14.827 52.9333C14.3203 53.44 13.627 53.7066 12.9603 53.7066ZM58.667 34.6666H58.4537C56.987 34.6666 55.787 33.4666 55.787 32C55.787 30.5333 56.987 29.3333 58.4537 29.3333C59.9203 29.3333 61.227 30.5333 61.227 32C61.227 33.4666 60.1337 34.6666 58.667 34.6666ZM5.54699 34.6666H5.33366C3.86699 34.6666 2.66699 33.4666 2.66699 32C2.66699 30.5333 3.86699 29.3333 5.33366 29.3333C6.80033 29.3333 8.10699 30.5333 8.10699 32C8.10699 33.4666 7.01366 34.6666 5.54699 34.6666ZM50.6937 15.9733C50.0003 15.9733 49.3337 15.7066 48.8003 15.2C47.7603 14.16 47.7603 12.48 48.8003 11.44L49.147 11.0933C50.187 10.0533 51.867 10.0533 52.907 11.0933C53.947 12.1333 53.947 13.8133 52.907 14.8533L52.5603 15.2C52.0537 15.7066 51.387 15.9733 50.6937 15.9733ZM13.307 15.9733C12.6137 15.9733 11.947 15.7066 11.4137 15.2L11.067 14.8266C10.027 13.7866 10.027 12.1066 11.067 11.0666C12.107 10.0266 13.787 10.0266 14.827 11.0666L15.1737 11.4133C16.2137 12.4533 16.2137 14.1333 15.1737 15.1733C14.667 15.7066 13.9737 15.9733 13.307 15.9733ZM32.0003 8.10663C30.5337 8.10663 29.3337 7.01329 29.3337 5.54663V5.33329C29.3337 3.86663 30.5337 2.66663 32.0003 2.66663C33.467 2.66663 34.667 3.86663 34.667 5.33329C34.667 6.79996 33.467 8.10663 32.0003 8.10663Z" fill="#B04AFF"/>
</svg>
